<?xml version="1.0" encoding="UTF-8"?>
<svg id="_레이어_1" data-name="레이어 1" xmlns="http://www.w3.org/2000/svg" viewBox="0 0 283.46 425.2">
  <defs>
    <style>
      .cls-1 {
        fill: #231815;
      }

      .cls-1, .cls-2 {
        stroke-width: 0px;
      }

      .cls-3 {
        stroke-width: .14px;
      }

      .cls-3, .cls-4 {
        stroke: #fff;
      }

      .cls-3, .cls-4, .cls-5 {
        stroke-miterlimit: 10;
      }

      .cls-3, .cls-5 {
        fill: none;
      }

      .cls-4 {
        fill: #e3dedb;
        stroke-width: .28px;
      }

      .cls-5 {
        stroke: #231815;
        stroke-width: .28px;
      }

      .cls-2 {
        fill: #fff;
      }
    </style>
  </defs>
  <rect class="cls-2" x=".2" y="382.97" width="283.46" height="41.67"/>
  <g> 
    <g>
      <path class="cls-1" d="M60.51,171.5c0,.85-.43,1.36-1.14,1.36s-1.08-.48-1.08-1.28v-2.34h-.5v2.24c0,1.03.52,1.55,1.53,1.55.83,0,1.35-.59,1.35-1.54v-2.25h-.16v2.26Z"/>
      <path class="cls-1" d="M62.22,169.25h-.89v3.76h.5v-1.74h.24c.5,0,.87-.12,1.1-.35.18-.18.27-.43.27-.73,0-.58-.46-.93-1.22-.93ZM62.73,170.86c-.15.15-.38.23-.65.23h-.24v-1.69s.4,0,.4,0c.46,0,.72.27.73.77,0,.29-.08.52-.24.68Z"/>
      <rect class="cls-1" x="63.89" y="169.25" width=".5" height="3.76"/>
      <path class="cls-1" d="M66.26,169.25h-1.25v3.76h1.23c1.15,0,2.02-.81,2.02-1.89s-.8-1.86-2-1.86ZM67.74,171.11c0,1.05-.59,1.73-1.51,1.73h-.72v-3.43h.76c.94,0,1.47.62,1.47,1.7Z"/>
      <path class="cls-1" d="M70.45,169.21c-1.1,0-1.92.82-1.92,1.91s.81,1.91,1.92,1.91,1.92-.82,1.92-1.92-.82-1.91-1.92-1.91ZM70.45,169.38c.86,0,1.4.67,1.4,1.75s-.54,1.75-1.4,1.75-1.41-.67-1.41-1.75.54-1.75,1.41-1.75Z"/>
      <path class="cls-1" d="M75.14,170.65c-.47-.14-.88-.25-.88-.7,0-.34.35-.57.84-.57h.03c.56,0,.85.32.85.62,0,.11-.02.19-.06.26l-.03.05.14.08.03-.04c.06-.09.09-.21.09-.34,0-.38-.36-.78-1.02-.78-.69,0-1.16.38-1.16.96,0,.69.57.85,1.08,1,.48.14.94.27.94.8,0,.67-.54.91-1,.91-.64,0-1.08-.4-1.08-.99v-.05h-.16v.05c0,.69.5,1.16,1.24,1.16.65,0,1.3-.41,1.3-1.32,0-.74-.61-.91-1.14-1.07Z"/>
      <polygon class="cls-1" points="77.22 170.8 78.63 170.8 78.63 170.64 77.22 170.64 77.22 169.41 78.87 169.41 78.87 169.25 76.72 169.25 76.72 173 78.92 173 78.92 172.84 77.22 172.84 77.22 170.8"/>
      <path class="cls-1" d="M80.93,169.21c-1.1,0-1.92.82-1.92,1.91s.81,1.91,1.92,1.91,1.92-.82,1.92-1.92-.82-1.91-1.92-1.91ZM80.93,169.38c.86,0,1.4.67,1.4,1.75s-.54,1.75-1.4,1.75-1.41-.67-1.41-1.75.54-1.75,1.41-1.75Z"/>
      <path class="cls-1" d="M86.07,171.5c0,.85-.43,1.36-1.14,1.36s-1.08-.48-1.08-1.28v-2.34h-.5v2.24c0,1.03.52,1.55,1.53,1.55.83,0,1.35-.59,1.35-1.54v-2.25h-.16v2.26Z"/>
      <polygon class="cls-1" points="87.38 172.84 87.38 169.25 86.88 169.25 86.88 173 89.09 173 89.09 172.84 87.38 172.84"/>
      <path class="cls-1" d="M56.95,172.64s-.05.03-.06.07c-.07.12-.13.22-.2.3-.06.06-.12.12-.2.16-.09.06-.21.1-.37.1-.29,0-.63-.11-.87-.22h0c1.09,0,1.92-.82,1.92-1.92s-.82-1.91-1.92-1.91-1.92.82-1.92,1.91c0,.63.26,1.18.73,1.53-.2.15-.4.47-.41.48v.02s-.05.06-.05.09c0,.07.06.14.14.14s.13-.05.14-.12c0-.01,0-.03.02-.05h0s0-.02,0-.02c0-.03.02-.05.03-.08v-.03s.05-.09.07-.13l-.05-.02h.06s.02-.03.04-.05c.06-.07.12-.11.16-.12.12.07.24.13.38.17.06.05.11.09.17.13.03.02.07.05.11.08h.02s.09.08.14.11c.04.03.09.05.13.08.02.01.04.02.06.03l.06.03c.26.13.52.2.75.2.82,0,1.14-.81,1.14-.82l.02-.04-.2-.1-.02.02ZM55.24,169.38c.86,0,1.4.67,1.4,1.75s-.54,1.75-1.4,1.75-1.41-.67-1.41-1.75.54-1.75,1.41-1.75Z"/>
    </g>
    <g>
      <path class="cls-1" d="M42.19,176.96h-.37v.51h-.23v-.51h-1.25v-.15l.7-1.66h.25l-.67,1.6h.96v-.75h.23v.75h.37v.21Z"/>
      <path class="cls-1" d="M43.72,176.29c.26.11.39.29.39.56,0,.19-.07.35-.22.48-.15.12-.34.18-.57.18s-.42-.06-.57-.17c-.15-.11-.23-.26-.25-.44h.24c.02.12.08.22.18.29.1.07.23.11.4.11s.3-.04.4-.13c.1-.08.16-.19.16-.33s-.05-.25-.15-.33c-.1-.08-.23-.12-.4-.12h-.19v-.2h.19c.14,0,.26-.04.35-.12.09-.08.13-.19.13-.32s-.05-.25-.14-.33c-.09-.08-.21-.12-.37-.12-.14,0-.25.04-.34.11s-.14.17-.16.29h-.23c.02-.18.09-.33.22-.44.13-.11.3-.17.51-.17.22,0,.4.06.54.18s.2.28.2.48c0,.25-.11.42-.32.53Z"/>
      <path class="cls-1" d="M45.75,176.42v.23h-1.12v-.23h1.12Z"/>
      <path class="cls-1" d="M47.2,175.92c.25,0,.45.07.61.22s.24.34.24.57-.08.42-.24.58c-.16.15-.36.23-.61.23s-.45-.08-.61-.22c-.16-.15-.24-.35-.24-.58,0-.18.06-.36.19-.53l.73-1.03h.29l-.56.79c.07-.02.14-.02.21-.02ZM47.81,176.72c0-.17-.06-.31-.17-.42-.11-.11-.26-.17-.44-.17s-.34.05-.45.16l-.02.02c-.1.14-.15.27-.15.41,0,.17.06.32.17.43.11.11.26.17.44.17s.33-.05.44-.17c.12-.11.17-.26.17-.43Z"/>
      <path class="cls-1" d="M48.31,177.94l.17-.45c-.07-.02-.11-.06-.11-.13,0-.04.02-.08.05-.11s.07-.05.11-.05.08.02.11.05c.03.03.05.07.05.11,0,.02-.02.07-.05.15l-.18.43h-.15Z"/>
      <path class="cls-1" d="M51.73,175.15l-.96,1.49v.83h-.24v-.83l-.96-1.49h.27l.81,1.26.81-1.26h.27Z"/>
      <path class="cls-1" d="M53.14,176.67c0,.05,0,.09,0,.1h-.01s0,0,0,0h-1.33c.02.16.08.29.19.39.11.1.24.15.4.15.22,0,.38-.08.46-.24h.25c-.05.13-.13.24-.26.32-.13.08-.28.12-.45.12-.24,0-.44-.08-.59-.24-.15-.16-.23-.36-.23-.59s.08-.43.23-.59c.15-.16.35-.24.59-.24.22,0,.41.08.55.23.14.15.21.35.22.59ZM52.37,176.05c-.16,0-.29.05-.39.15-.1.1-.16.23-.18.38h1.11c-.01-.16-.07-.29-.17-.39s-.22-.15-.37-.15Z"/>
      <path class="cls-1" d="M55.19,176.68c0,.24-.08.43-.24.6s-.36.24-.59.24-.43-.08-.6-.24-.24-.36-.24-.6.08-.43.24-.59.36-.24.6-.24.43.08.59.24c.16.16.24.36.24.59ZM54.95,176.68c0-.17-.06-.31-.17-.43-.12-.12-.26-.18-.43-.18s-.31.06-.43.18c-.12.12-.17.26-.17.43s.06.32.17.45c.12.12.26.18.43.18s.31-.06.43-.18c.12-.12.17-.27.17-.45Z"/>
      <path class="cls-1" d="M56.45,175.84c.2,0,.36.07.48.2.12.13.19.31.19.52v.91h-.24v-.89c0-.16-.04-.29-.13-.38s-.2-.14-.35-.14c-.22,0-.4.1-.54.29v1.12h-.23v-1.57h.23v.19c.15-.16.35-.24.58-.24Z"/>
      <path class="cls-1" d="M58.44,175.84c.2,0,.36.07.48.2.12.13.19.31.19.52v.91h-.24v-.89c0-.16-.04-.29-.13-.38s-.2-.14-.35-.14c-.22,0-.4.1-.54.29v1.12h-.23v-2.42h.23v1.03c.15-.16.35-.24.58-.24Z"/>
      <path class="cls-1" d="M61.03,175.89v1.57h-.23v-.18c-.16.16-.35.24-.58.24-.2,0-.36-.07-.49-.19-.12-.13-.18-.3-.18-.52v-.91h.23v.89c0,.16.04.29.13.38s.2.14.35.14c.22,0,.39-.1.54-.29v-1.12h.23Z"/>
      <path class="cls-1" d="M61.93,175.3c0,.06-.02.11-.08.14s-.11.03-.16,0-.08-.07-.08-.14c0-.05.02-.08.05-.11.03-.03.07-.04.11-.04s.08.01.11.05c.03.03.05.07.05.11ZM61.89,175.89v1.57h-.23v-1.57h.23Z"/>
      <path class="cls-1" d="M64.44,175.84c.19,0,.34.07.46.2.12.13.18.3.18.52v.91h-.23v-.89c0-.16-.04-.29-.12-.38-.08-.09-.19-.13-.33-.13-.22,0-.38.1-.5.3.01.06.02.13.02.2v.91h-.23v-.89c0-.16-.04-.29-.12-.38-.08-.09-.19-.13-.33-.13-.19,0-.36.09-.48.29v1.12h-.23v-1.57h.23v.18c.14-.15.31-.23.52-.23.24,0,.42.1.54.29.16-.2.37-.29.63-.29Z"/>
      <path class="cls-1" d="M67.12,175.89v1.57h-.23v-.17c-.15.14-.34.22-.57.22s-.41-.08-.58-.24c-.16-.16-.24-.35-.24-.59s.08-.43.24-.58.35-.24.58-.24.42.07.57.22v-.18h.23ZM66.35,177.31c.23,0,.41-.09.54-.29v-.68c-.13-.19-.31-.29-.54-.29-.17,0-.32.06-.44.18-.12.12-.17.27-.17.44s.06.32.17.44c.12.12.27.18.44.18Z"/>
      <path class="cls-1" d="M68.68,177.26l.04.2c-.12.04-.24.05-.34.05-.36,0-.54-.21-.54-.62v-.81h-.42v-.2h.42v-.58h.23v.58h.6v.2h-.6v.81c0,.14.03.24.08.31.06.06.15.1.27.1.08,0,.17-.01.26-.04Z"/>
      <path class="cls-1" d="M70.14,176.42v.23h-1.12v-.23h1.12Z"/>
      <path class="cls-1" d="M71.06,175.89v.27c.15-.21.36-.31.62-.31v.22c-.26,0-.47.13-.62.36v1.03h-.23v-1.57h.23Z"/>
      <path class="cls-1" d="M73.57,176.68c0,.24-.08.43-.24.6s-.36.24-.59.24-.43-.08-.6-.24-.24-.36-.24-.6.08-.43.24-.59.36-.24.6-.24.43.08.59.24c.16.16.24.36.24.59ZM73.34,176.68c0-.17-.06-.31-.17-.43-.12-.12-.26-.18-.43-.18s-.31.06-.43.18c-.12.12-.17.26-.17.43s.06.32.17.45c.12.12.26.18.43.18s.31-.06.43-.18c.12-.12.17-.27.17-.45Z"/>
      <path class="cls-1" d="M73.83,177.94l.17-.45c-.07-.02-.11-.06-.11-.13,0-.04.02-.08.05-.11s.07-.05.11-.05.08.02.11.05c.03.03.05.07.05.11,0,.02-.02.07-.05.15l-.18.43h-.15Z"/>
      <path class="cls-1" d="M76.4,175.1c.24,0,.44.06.61.17.17.12.26.28.29.5h-.24c-.06-.31-.27-.47-.65-.47-.18,0-.32.04-.42.12-.11.08-.16.19-.16.32,0,.2.16.33.48.39l.35.07c.43.08.64.28.64.6,0,.21-.08.38-.24.51-.16.13-.37.19-.62.19-.28,0-.5-.07-.67-.21s-.27-.33-.29-.58h.24c.03.18.11.33.23.42s.29.15.5.15c.18,0,.33-.04.44-.12.11-.08.16-.19.16-.33,0-.2-.15-.34-.44-.4l-.4-.08c-.43-.08-.64-.28-.64-.61,0-.2.07-.36.22-.48.15-.12.35-.18.6-.18Z"/>
      <path class="cls-1" d="M79.26,176.67c0,.05,0,.09,0,.1h-.01s0,0,0,0h-1.33c.02.16.08.29.19.39.11.1.24.15.4.15.22,0,.38-.08.46-.24h.25c-.05.13-.13.24-.26.32-.13.08-.28.12-.45.12-.24,0-.44-.08-.59-.24-.15-.16-.23-.36-.23-.59s.08-.43.23-.59c.15-.16.35-.24.59-.24.22,0,.41.08.55.23.14.15.21.35.22.59ZM78.48,176.05c-.16,0-.29.05-.39.15-.1.1-.16.23-.18.38h1.11c-.01-.16-.07-.29-.17-.39s-.22-.15-.37-.15Z"/>
      <path class="cls-1" d="M81.3,176.68c0,.24-.08.43-.24.6s-.36.24-.59.24-.43-.08-.6-.24-.24-.36-.24-.6.08-.43.24-.59.36-.24.6-.24.43.08.59.24c.16.16.24.36.24.59ZM81.06,176.68c0-.17-.06-.31-.17-.43-.12-.12-.26-.18-.43-.18s-.31.06-.43.18c-.12.12-.17.26-.17.43s.06.32.17.45c.12.12.26.18.43.18s.31-.06.43-.18c.12-.12.17-.27.17-.45Z"/>
      <path class="cls-1" d="M83.29,175.05v2.42h-.23v-.17c-.15.14-.34.21-.57.21s-.41-.08-.58-.24-.24-.35-.24-.59.08-.43.24-.58.35-.24.58-.24.42.07.57.21v-1.02h.23ZM82.51,177.3c.23,0,.41-.1.54-.29v-.67c-.13-.19-.31-.29-.54-.29-.17,0-.32.06-.44.18-.12.12-.17.27-.17.44s.06.32.17.44c.12.12.27.18.44.18Z"/>
      <path class="cls-1" d="M85.39,175.89v1.57h-.23v-.17c-.15.14-.34.22-.57.22s-.41-.08-.58-.24c-.16-.16-.24-.35-.24-.59s.08-.43.24-.58.35-.24.58-.24.42.07.57.22v-.18h.23ZM84.62,177.31c.23,0,.41-.09.54-.29v-.68c-.13-.19-.31-.29-.54-.29-.17,0-.32.06-.44.18-.12.12-.17.27-.17.44s.06.32.17.44c.12.12.27.18.44.18Z"/>
      <path class="cls-1" d="M87.45,176.67c0,.05,0,.09,0,.1h-.01s0,0,0,0h-1.33c.02.16.08.29.19.39.11.1.24.15.4.15.22,0,.38-.08.46-.24h.25c-.05.13-.13.24-.26.32-.13.08-.28.12-.45.12-.24,0-.44-.08-.59-.24-.15-.16-.23-.36-.23-.59s.08-.43.23-.59c.15-.16.35-.24.59-.24.22,0,.41.08.55.23.14.15.21.35.22.59ZM86.68,176.05c-.16,0-.29.05-.39.15-.1.1-.16.23-.18.38h1.11c-.01-.16-.07-.29-.17-.39s-.22-.15-.37-.15Z"/>
      <path class="cls-1" d="M89.83,175.84c.19,0,.34.07.46.2.12.13.18.3.18.52v.91h-.23v-.89c0-.16-.04-.29-.12-.38-.08-.09-.19-.13-.33-.13-.22,0-.38.1-.5.3.01.06.02.13.02.2v.91h-.23v-.89c0-.16-.04-.29-.12-.38-.08-.09-.19-.13-.33-.13-.19,0-.36.09-.48.29v1.12h-.23v-1.57h.23v.18c.14-.15.31-.23.52-.23.24,0,.42.1.54.29.16-.2.37-.29.63-.29Z"/>
      <path class="cls-1" d="M92.39,175.89v1.57h-.23v-.18c-.16.16-.35.24-.58.24-.2,0-.36-.07-.49-.19-.12-.13-.18-.3-.18-.52v-.91h.23v.89c0,.16.04.29.13.38s.2.14.35.14c.22,0,.39-.1.54-.29v-1.12h.23Z"/>
      <path class="cls-1" d="M93.78,175.84c.2,0,.36.07.48.2.12.13.19.31.19.52v.91h-.24v-.89c0-.16-.04-.29-.13-.38s-.2-.14-.35-.14c-.22,0-.4.1-.54.29v1.12h-.23v-1.57h.23v.19c.15-.16.35-.24.58-.24Z"/>
      <path class="cls-1" d="M96.19,176.42v.23h-1.12v-.23h1.12Z"/>
      <path class="cls-1" d="M98.39,175.89v1.62c0,.24-.07.43-.22.56-.15.14-.33.21-.56.21-.2,0-.38-.05-.52-.16-.14-.11-.23-.25-.26-.42h.24c.02.11.08.2.18.27.1.07.21.1.36.1.17,0,.3-.05.4-.15.1-.1.15-.24.15-.41v-.28c-.16.15-.35.22-.59.22s-.42-.08-.57-.23c-.15-.16-.23-.35-.23-.57,0-.24.08-.43.23-.58.15-.16.34-.23.57-.23s.43.07.59.22v-.17h.23ZM97.6,177.26c.24,0,.43-.1.56-.3v-.63c-.13-.2-.32-.3-.56-.3-.17,0-.31.06-.42.18s-.17.26-.17.44.05.31.17.43.25.18.42.18Z"/>
      <path class="cls-1" d="M100.37,175.89v1.57h-.23v-.18c-.16.16-.35.24-.58.24-.2,0-.36-.07-.49-.19-.12-.13-.18-.3-.18-.52v-.91h.23v.89c0,.16.04.29.13.38s.2.14.35.14c.22,0,.39-.1.54-.29v-1.12h.23Z"/>
      <path class="cls-1" d="M100.8,177.94l.17-.45c-.07-.02-.11-.06-.11-.13,0-.04.02-.08.05-.11s.07-.05.11-.05.08.02.11.05c.03.03.05.07.05.11,0,.02-.02.07-.05.15l-.18.43h-.15Z"/>
      <path class="cls-1" d="M52.66,179.18c.24,0,.44.06.61.17.17.12.26.28.29.5h-.24c-.06-.31-.27-.47-.65-.47-.18,0-.32.04-.42.12-.11.08-.16.19-.16.32,0,.2.16.33.48.39l.35.07c.43.08.64.28.64.6,0,.21-.08.38-.24.51-.16.13-.37.19-.62.19-.28,0-.5-.07-.67-.21s-.27-.33-.29-.58h.24c.03.18.11.33.23.42s.29.15.5.15c.18,0,.33-.04.44-.12.11-.08.16-.19.16-.33,0-.2-.15-.34-.44-.4l-.4-.08c-.43-.08-.64-.28-.64-.61,0-.2.07-.36.22-.48.15-.12.35-.18.6-.18Z"/>
      <path class="cls-1" d="M55.52,180.76c0,.05,0,.09,0,.1h-.01s0,0,0,0h-1.33c.02.16.08.29.19.39.11.1.24.15.4.15.22,0,.38-.08.46-.24h.25c-.05.13-.13.24-.26.32-.13.08-.28.12-.45.12-.24,0-.44-.08-.59-.24-.15-.16-.23-.36-.23-.59s.08-.43.23-.59c.15-.16.35-.24.59-.24.22,0,.41.08.55.23.14.15.21.35.22.59ZM54.74,180.14c-.16,0-.29.05-.39.15-.1.1-.16.23-.18.38h1.11c-.01-.16-.07-.29-.17-.39s-.22-.15-.37-.15Z"/>
      <path class="cls-1" d="M57.56,180.76c0,.24-.08.43-.24.6s-.36.24-.59.24-.43-.08-.6-.24-.24-.36-.24-.6.08-.43.24-.59.36-.24.6-.24.43.08.59.24c.16.16.24.36.24.59ZM57.32,180.76c0-.17-.06-.31-.17-.43-.12-.12-.26-.18-.43-.18s-.31.06-.43.18c-.12.12-.17.26-.17.43s.06.32.17.45c.12.12.26.18.43.18s.31-.06.43-.18c.12-.12.17-.27.17-.45Z"/>
      <path class="cls-1" d="M59.46,179.98v1.57h-.23v-.18c-.16.16-.35.24-.58.24-.2,0-.36-.07-.49-.19-.12-.13-.18-.3-.18-.52v-.91h.23v.89c0,.16.04.29.13.38s.2.14.35.14c.22,0,.39-.1.54-.29v-1.12h.23Z"/>
      <path class="cls-1" d="M60.27,179.13v2.42h-.23v-2.42h.23Z"/>
      <path class="cls-1" d="M60.69,182.02l.17-.45c-.07-.02-.11-.06-.11-.13,0-.04.02-.08.05-.11s.07-.05.11-.05.08.02.11.05c.03.03.05.07.05.11,0,.02-.02.07-.05.15l-.18.43h-.15Z"/>
      <path class="cls-1" d="M63.28,180.71h-.58v.84h-.24v-2.31h.86c.26,0,.47.07.64.2.16.13.24.31.24.54,0,.18-.06.34-.17.47-.11.13-.27.21-.47.25l.74.86h-.3l-.72-.84ZM62.71,180.49h.61c.19,0,.35-.05.47-.14.12-.09.18-.22.18-.37s-.06-.28-.18-.38-.28-.14-.47-.14h-.61v1.03Z"/>
      <path class="cls-1" d="M66.08,180.76c0,.05,0,.09,0,.1h-.01s0,0,0,0h-1.33c.02.16.08.29.19.39.11.1.24.15.4.15.22,0,.38-.08.46-.24h.25c-.05.13-.13.24-.26.32-.13.08-.28.12-.45.12-.24,0-.44-.08-.59-.24-.15-.16-.23-.36-.23-.59s.08-.43.23-.59c.15-.16.35-.24.59-.24.22,0,.41.08.55.23.14.15.21.35.22.59ZM65.31,180.14c-.16,0-.29.05-.39.15-.1.1-.16.23-.18.38h1.11c-.01-.16-.07-.29-.17-.39s-.22-.15-.37-.15Z"/>
      <path class="cls-1" d="M67.38,179.94c.22,0,.41.08.58.24.16.16.24.35.24.58s-.08.43-.24.59-.35.24-.58.24-.42-.07-.57-.22v1.02h-.23v-2.42h.23v.18c.15-.15.34-.22.57-.22ZM67.35,181.39c.17,0,.31-.06.43-.18.12-.12.18-.27.18-.44s-.06-.32-.18-.44c-.12-.12-.26-.18-.43-.18-.23,0-.41.1-.54.29v.66c.13.2.31.29.54.29Z"/>
      <path class="cls-1" d="M70.09,179.98v1.57h-.23v-.18c-.16.16-.35.24-.58.24-.2,0-.36-.07-.49-.19-.12-.13-.18-.3-.18-.52v-.91h.23v.89c0,.16.04.29.13.38s.2.14.35.14c.22,0,.39-.1.54-.29v-1.12h.23Z"/>
      <path class="cls-1" d="M71.47,179.94c.22,0,.41.08.58.24.16.16.24.35.24.58s-.08.43-.24.59c-.16.16-.35.24-.58.24s-.42-.07-.57-.22v.18h-.23v-2.42h.23v1.02c.15-.15.34-.22.57-.22ZM71.44,181.39c.17,0,.31-.06.43-.18.12-.12.18-.27.18-.44s-.06-.32-.18-.44c-.12-.12-.26-.18-.43-.18-.23,0-.41.1-.54.3v.66c.13.2.31.29.54.29Z"/>
      <path class="cls-1" d="M72.99,179.13v2.42h-.23v-2.42h.23Z"/>
      <path class="cls-1" d="M73.88,179.38c0,.06-.02.11-.08.14s-.11.03-.16,0-.08-.07-.08-.14c0-.05.02-.08.05-.11.03-.03.07-.04.11-.04s.08.01.11.05c.03.03.05.07.05.11ZM73.84,179.98v1.57h-.23v-1.57h.23Z"/>
      <path class="cls-1" d="M75.17,181.38c.13,0,.24-.03.33-.1.09-.06.15-.15.17-.26h.24c-.03.17-.12.3-.25.41-.13.1-.3.16-.49.16-.24,0-.43-.08-.59-.24-.15-.16-.23-.36-.23-.59s.08-.43.23-.59c.16-.16.35-.24.59-.24.19,0,.35.05.49.16.14.11.22.24.25.41h-.24c-.02-.11-.08-.19-.17-.26-.09-.07-.2-.1-.33-.1-.17,0-.31.06-.42.18-.11.12-.16.27-.16.44s.05.32.16.44c.11.12.25.18.42.18Z"/>
      <path class="cls-1" d="M78.91,180.76c0,.24-.08.43-.24.6s-.36.24-.59.24-.43-.08-.6-.24-.24-.36-.24-.6.08-.43.24-.59.36-.24.6-.24.43.08.59.24c.16.16.24.36.24.59ZM78.68,180.76c0-.17-.06-.31-.17-.43-.12-.12-.26-.18-.43-.18s-.31.06-.43.18c-.12.12-.17.26-.17.43s.06.32.17.45c.12.12.26.18.43.18s.31-.06.43-.18c.12-.12.17-.27.17-.45Z"/>
      <path class="cls-1" d="M79.77,179.98h.63v.2h-.63v1.37h-.23v-1.37h-.46v-.2h.46v-.41c0-.18.05-.32.15-.43.1-.11.24-.16.41-.16.1,0,.21.02.32.05l-.03.2c-.09-.02-.17-.03-.25-.03-.11,0-.2.04-.27.1-.07.07-.1.16-.1.27v.41Z"/>
      <path class="cls-1" d="M82.36,180.47l-.45.48v.61h-.24v-2.31h.24v1.38l1.33-1.38h.3l-1,1.05,1.12,1.26h-.31l-.98-1.08Z"/>
      <path class="cls-1" d="M85.48,180.76c0,.24-.08.43-.24.6s-.36.24-.59.24-.43-.08-.6-.24-.24-.36-.24-.6.08-.43.24-.59.36-.24.6-.24.43.08.59.24c.16.16.24.36.24.59ZM85.24,180.76c0-.17-.06-.31-.17-.43-.12-.12-.26-.18-.43-.18s-.31.06-.43.18c-.12.12-.17.26-.17.43s.06.32.17.45c.12.12.26.18.43.18s.31-.06.43-.18c.12-.12.17-.27.17-.45Z"/>
      <path class="cls-1" d="M86.16,179.98v.27c.15-.21.36-.31.62-.31v.22c-.26,0-.47.13-.62.36v1.03h-.23v-1.57h.23Z"/>
      <path class="cls-1" d="M88.59,180.76c0,.05,0,.09,0,.1h-.01s0,0,0,0h-1.33c.02.16.08.29.19.39.11.1.24.15.4.15.22,0,.38-.08.46-.24h.25c-.05.13-.13.24-.26.32-.13.08-.28.12-.45.12-.24,0-.44-.08-.59-.24-.15-.16-.23-.36-.23-.59s.08-.43.23-.59c.15-.16.35-.24.59-.24.22,0,.41.08.55.23.14.15.21.35.22.59ZM87.82,180.14c-.16,0-.29.05-.39.15-.1.1-.16.23-.18.38h1.11c-.01-.16-.07-.29-.17-.39s-.22-.15-.37-.15Z"/>
      <path class="cls-1" d="M90.58,179.98v1.57h-.23v-.17c-.15.14-.34.22-.57.22s-.41-.08-.58-.24c-.16-.16-.24-.35-.24-.59s.08-.43.24-.58.35-.24.58-.24.42.07.57.22v-.18h.23ZM89.81,181.39c.23,0,.41-.09.54-.29v-.68c-.13-.19-.31-.29-.54-.29-.17,0-.32.06-.44.18-.12.12-.17.27-.17.44s.06.32.17.44c.12.12.27.18.44.18Z"/>
    </g>
    <g>
      <path class="cls-1" d="M202.06,171.5c0,.85-.43,1.36-1.14,1.36s-1.08-.48-1.08-1.28v-2.34h-.5v2.24c0,1.03.52,1.55,1.53,1.55.83,0,1.35-.59,1.35-1.54v-2.25h-.16v2.26Z"/>
      <path class="cls-1" d="M203.76,169.25h-.89v3.76h.5v-1.74h.24c.5,0,.87-.12,1.1-.35.18-.18.27-.43.27-.73,0-.58-.46-.93-1.22-.93ZM204.27,170.86c-.15.15-.38.23-.65.23h-.24v-1.69s.4,0,.4,0c.46,0,.72.27.73.77,0,.29-.08.52-.24.68Z"/>
      <rect class="cls-1" x="205.44" y="169.25" width=".5" height="3.76"/>
      <path class="cls-1" d="M207.8,169.25h-1.25v3.76h1.23c1.15,0,2.02-.81,2.02-1.89s-.8-1.86-2-1.86ZM209.28,171.11c0,1.05-.59,1.73-1.51,1.73h-.72v-3.43h.76c.94,0,1.47.62,1.47,1.7Z"/>
      <path class="cls-1" d="M211.99,169.21c-1.1,0-1.92.82-1.92,1.91s.81,1.91,1.92,1.91,1.92-.82,1.92-1.92-.82-1.91-1.92-1.91ZM211.99,169.38c.86,0,1.4.67,1.4,1.75s-.54,1.75-1.4,1.75-1.41-.67-1.41-1.75.54-1.75,1.41-1.75Z"/>
      <path class="cls-1" d="M216.68,170.65c-.47-.14-.88-.25-.88-.7,0-.34.35-.57.84-.57h.03c.56,0,.85.32.85.62,0,.11-.02.19-.06.26l-.03.05.14.08.03-.04c.06-.09.09-.21.09-.34,0-.38-.36-.78-1.02-.78-.69,0-1.16.38-1.16.96,0,.69.57.85,1.08,1,.48.14.94.27.94.8,0,.67-.54.91-1,.91-.64,0-1.08-.4-1.08-.99v-.05h-.16v.05c0,.69.5,1.16,1.24,1.16.65,0,1.3-.41,1.3-1.32,0-.74-.61-.91-1.14-1.07Z"/>
      <polygon class="cls-1" points="218.77 170.8 220.18 170.8 220.18 170.64 218.77 170.64 218.77 169.41 220.42 169.41 220.42 169.25 218.27 169.25 218.27 173 220.46 173 220.46 172.84 218.77 172.84 218.77 170.8"/>
      <path class="cls-1" d="M222.47,169.21c-1.1,0-1.92.82-1.92,1.91s.81,1.91,1.92,1.91,1.92-.82,1.92-1.92-.82-1.91-1.92-1.91ZM222.47,169.38c.86,0,1.4.67,1.4,1.75s-.54,1.75-1.4,1.75-1.41-.67-1.41-1.75.54-1.75,1.41-1.75Z"/>
      <path class="cls-1" d="M227.61,171.5c0,.85-.43,1.36-1.14,1.36s-1.08-.48-1.08-1.28v-2.34h-.5v2.24c0,1.03.52,1.55,1.53,1.55.83,0,1.35-.59,1.35-1.54v-2.25h-.16v2.26Z"/>
      <polygon class="cls-1" points="228.93 172.84 228.93 169.25 228.42 169.25 228.42 173 230.63 173 230.63 172.84 228.93 172.84"/>
      <path class="cls-1" d="M198.49,172.64s-.05.03-.06.07c-.07.12-.13.22-.2.3-.06.06-.12.12-.2.16-.09.06-.21.1-.37.1-.29,0-.63-.11-.87-.22h0c1.09,0,1.92-.82,1.92-1.92s-.82-1.91-1.92-1.91-1.92.82-1.92,1.91c0,.63.26,1.18.73,1.53-.2.15-.4.47-.41.48v.02s-.05.06-.05.09c0,.07.06.14.14.14s.13-.05.14-.12c0-.01,0-.03.02-.05h0s0-.02,0-.02c0-.03.02-.05.03-.08v-.03s.05-.09.07-.13l-.05-.02h.06s.02-.03.04-.05c.06-.07.12-.11.16-.12.12.07.24.13.38.17.06.05.11.09.17.13.03.02.07.05.11.08h.02s.09.08.14.11c.04.03.09.05.13.08.02.01.04.02.06.03l.06.03c.26.13.52.2.75.2.82,0,1.14-.81,1.14-.82l.02-.04-.2-.1-.02.02ZM196.78,169.38c.86,0,1.4.67,1.4,1.75s-.54,1.75-1.4,1.75-1.41-.67-1.41-1.75.54-1.75,1.41-1.75Z"/>
    </g>
    <g>
      <path class="cls-1" d="M183.74,176.96h-.37v.51h-.23v-.51h-1.25v-.15l.7-1.66h.25l-.67,1.6h.96v-.75h.23v.75h.37v.21Z"/>
      <path class="cls-1" d="M185.27,176.29c.26.11.39.29.39.56,0,.19-.07.35-.22.48-.15.12-.34.18-.57.18s-.42-.06-.57-.17c-.15-.11-.23-.26-.25-.44h.24c.02.12.08.22.18.29.1.07.23.11.4.11s.3-.04.4-.13c.1-.08.16-.19.16-.33s-.05-.25-.15-.33c-.1-.08-.23-.12-.4-.12h-.19v-.2h.19c.14,0,.26-.04.35-.12.09-.08.13-.19.13-.32s-.05-.25-.14-.33c-.09-.08-.21-.12-.37-.12-.14,0-.25.04-.34.11s-.14.17-.16.29h-.23c.02-.18.09-.33.22-.44.13-.11.3-.17.51-.17.22,0,.4.06.54.18s.2.28.2.48c0,.25-.11.42-.32.53Z"/>
      <path class="cls-1" d="M187.3,176.42v.23h-1.12v-.23h1.12Z"/>
      <path class="cls-1" d="M188.74,175.92c.25,0,.45.07.61.22s.24.34.24.57-.08.42-.24.58c-.16.15-.36.23-.61.23s-.45-.08-.61-.22c-.16-.15-.24-.35-.24-.58,0-.18.06-.36.19-.53l.73-1.03h.29l-.56.79c.07-.02.14-.02.21-.02ZM189.36,176.72c0-.17-.06-.31-.17-.42-.11-.11-.26-.17-.44-.17s-.34.05-.45.16l-.02.02c-.1.14-.15.27-.15.41,0,.17.06.32.17.43.11.11.26.17.44.17s.33-.05.44-.17c.12-.11.17-.26.17-.43Z"/>
      <path class="cls-1" d="M189.86,177.94l.17-.45c-.07-.02-.11-.06-.11-.13,0-.04.02-.08.05-.11s.07-.05.11-.05.08.02.11.05c.03.03.05.07.05.11,0,.02-.02.07-.05.15l-.18.43h-.15Z"/>
      <path class="cls-1" d="M193.28,175.15l-.96,1.49v.83h-.24v-.83l-.96-1.49h.27l.81,1.26.81-1.26h.27Z"/>
      <path class="cls-1" d="M194.69,176.67c0,.05,0,.09,0,.1h-.01s0,0,0,0h-1.33c.02.16.08.29.19.39.11.1.24.15.4.15.22,0,.38-.08.46-.24h.25c-.05.13-.13.24-.26.32-.13.08-.28.12-.45.12-.24,0-.44-.08-.59-.24-.15-.16-.23-.36-.23-.59s.08-.43.23-.59c.15-.16.35-.24.59-.24.22,0,.41.08.55.23.14.15.21.35.22.59ZM193.92,176.05c-.16,0-.29.05-.39.15-.1.1-.16.23-.18.38h1.11c-.01-.16-.07-.29-.17-.39s-.22-.15-.37-.15Z"/>
      <path class="cls-1" d="M196.73,176.68c0,.24-.08.43-.24.6s-.36.24-.59.24-.43-.08-.6-.24-.24-.36-.24-.6.08-.43.24-.59.36-.24.6-.24.43.08.59.24c.16.16.24.36.24.59ZM196.5,176.68c0-.17-.06-.31-.17-.43-.12-.12-.26-.18-.43-.18s-.31.06-.43.18c-.12.12-.17.26-.17.43s.06.32.17.45c.12.12.26.18.43.18s.31-.06.43-.18c.12-.12.17-.27.17-.45Z"/>
      <path class="cls-1" d="M198,175.84c.2,0,.36.07.48.2.12.13.19.31.19.52v.91h-.24v-.89c0-.16-.04-.29-.13-.38s-.2-.14-.35-.14c-.22,0-.4.1-.54.29v1.12h-.23v-1.57h.23v.19c.15-.16.35-.24.58-.24Z"/>
      <path class="cls-1" d="M199.99,175.84c.2,0,.36.07.48.2.12.13.19.31.19.52v.91h-.24v-.89c0-.16-.04-.29-.13-.38s-.2-.14-.35-.14c-.22,0-.4.1-.54.29v1.12h-.23v-2.42h.23v1.03c.15-.16.35-.24.58-.24Z"/>
      <path class="cls-1" d="M202.58,175.89v1.57h-.23v-.18c-.16.16-.35.24-.58.24-.2,0-.36-.07-.49-.19-.12-.13-.18-.3-.18-.52v-.91h.23v.89c0,.16.04.29.13.38s.2.14.35.14c.22,0,.39-.1.54-.29v-1.12h.23Z"/>
      <path class="cls-1" d="M203.48,175.3c0,.06-.02.11-.08.14s-.11.03-.16,0-.08-.07-.08-.14c0-.05.02-.08.05-.11.03-.03.07-.04.11-.04s.08.01.11.05c.03.03.05.07.05.11ZM203.44,175.89v1.57h-.23v-1.57h.23Z"/>
      <path class="cls-1" d="M205.98,175.84c.19,0,.34.07.46.2.12.13.18.3.18.52v.91h-.23v-.89c0-.16-.04-.29-.12-.38-.08-.09-.19-.13-.33-.13-.22,0-.38.1-.5.3.01.06.02.13.02.2v.91h-.23v-.89c0-.16-.04-.29-.12-.38-.08-.09-.19-.13-.33-.13-.19,0-.36.09-.48.29v1.12h-.23v-1.57h.23v.18c.14-.15.31-.23.52-.23.24,0,.42.1.54.29.16-.2.37-.29.63-.29Z"/>
      <path class="cls-1" d="M208.66,175.89v1.57h-.23v-.17c-.15.14-.34.22-.57.22s-.41-.08-.58-.24c-.16-.16-.24-.35-.24-.59s.08-.43.24-.58.35-.24.58-.24.42.07.57.22v-.18h.23ZM207.89,177.31c.23,0,.41-.09.54-.29v-.68c-.13-.19-.31-.29-.54-.29-.17,0-.32.06-.44.18-.12.12-.17.27-.17.44s.06.32.17.44c.12.12.27.18.44.18Z"/>
      <path class="cls-1" d="M210.23,177.26l.04.2c-.12.04-.24.05-.34.05-.36,0-.54-.21-.54-.62v-.81h-.42v-.2h.42v-.58h.23v.58h.6v.2h-.6v.81c0,.14.03.24.08.31.06.06.15.1.27.1.08,0,.17-.01.26-.04Z"/>
      <path class="cls-1" d="M211.69,176.42v.23h-1.12v-.23h1.12Z"/>
      <path class="cls-1" d="M212.6,175.89v.27c.15-.21.36-.31.62-.31v.22c-.26,0-.47.13-.62.36v1.03h-.23v-1.57h.23Z"/>
      <path class="cls-1" d="M215.12,176.68c0,.24-.08.43-.24.6s-.36.24-.59.24-.43-.08-.6-.24-.24-.36-.24-.6.08-.43.24-.59.36-.24.6-.24.43.08.59.24c.16.16.24.36.24.59ZM214.88,176.68c0-.17-.06-.31-.17-.43-.12-.12-.26-.18-.43-.18s-.31.06-.43.18c-.12.12-.17.26-.17.43s.06.32.17.45c.12.12.26.18.43.18s.31-.06.43-.18c.12-.12.17-.27.17-.45Z"/>
      <path class="cls-1" d="M215.37,177.94l.17-.45c-.07-.02-.11-.06-.11-.13,0-.04.02-.08.05-.11s.07-.05.11-.05.08.02.11.05c.03.03.05.07.05.11,0,.02-.02.07-.05.15l-.18.43h-.15Z"/>
      <path class="cls-1" d="M217.94,175.1c.24,0,.44.06.61.17.17.12.26.28.29.5h-.24c-.06-.31-.27-.47-.65-.47-.18,0-.32.04-.42.12-.11.08-.16.19-.16.32,0,.2.16.33.48.39l.35.07c.43.08.64.28.64.6,0,.21-.08.38-.24.51-.16.13-.37.19-.62.19-.28,0-.5-.07-.67-.21s-.27-.33-.29-.58h.24c.03.18.11.33.23.42s.29.15.5.15c.18,0,.33-.04.44-.12.11-.08.16-.19.16-.33,0-.2-.15-.34-.44-.4l-.4-.08c-.43-.08-.64-.28-.64-.61,0-.2.07-.36.22-.48.15-.12.35-.18.6-.18Z"/>
      <path class="cls-1" d="M220.8,176.67c0,.05,0,.09,0,.1h-.01s0,0,0,0h-1.33c.02.16.08.29.19.39.11.1.24.15.4.15.22,0,.38-.08.46-.24h.25c-.05.13-.13.24-.26.32-.13.08-.28.12-.45.12-.24,0-.44-.08-.59-.24-.15-.16-.23-.36-.23-.59s.08-.43.23-.59c.15-.16.35-.24.59-.24.22,0,.41.08.55.23.14.15.21.35.22.59ZM220.03,176.05c-.16,0-.29.05-.39.15-.1.1-.16.23-.18.38h1.11c-.01-.16-.07-.29-.17-.39s-.22-.15-.37-.15Z"/>
      <path class="cls-1" d="M222.84,176.68c0,.24-.08.43-.24.6s-.36.24-.59.24-.43-.08-.6-.24-.24-.36-.24-.6.08-.43.24-.59.36-.24.6-.24.43.08.59.24c.16.16.24.36.24.59ZM222.61,176.68c0-.17-.06-.31-.17-.43-.12-.12-.26-.18-.43-.18s-.31.06-.43.18c-.12.12-.17.26-.17.43s.06.32.17.45c.12.12.26.18.43.18s.31-.06.43-.18c.12-.12.17-.27.17-.45Z"/>
      <path class="cls-1" d="M224.83,175.05v2.42h-.23v-.17c-.15.14-.34.21-.57.21s-.41-.08-.58-.24-.24-.35-.24-.59.08-.43.24-.58.35-.24.58-.24.42.07.57.21v-1.02h.23ZM224.06,177.3c.23,0,.41-.1.54-.29v-.67c-.13-.19-.31-.29-.54-.29-.17,0-.32.06-.44.18-.12.12-.17.27-.17.44s.06.32.17.44c.12.12.27.18.44.18Z"/>
      <path class="cls-1" d="M226.94,175.89v1.57h-.23v-.17c-.15.14-.34.22-.57.22s-.41-.08-.58-.24c-.16-.16-.24-.35-.24-.59s.08-.43.24-.58.35-.24.58-.24.42.07.57.22v-.18h.23ZM226.16,177.31c.23,0,.41-.09.54-.29v-.68c-.13-.19-.31-.29-.54-.29-.17,0-.32.06-.44.18-.12.12-.17.27-.17.44s.06.32.17.44c.12.12.27.18.44.18Z"/>
      <path class="cls-1" d="M228.99,176.67c0,.05,0,.09,0,.1h-.01s0,0,0,0h-1.33c.02.16.08.29.19.39.11.1.24.15.4.15.22,0,.38-.08.46-.24h.25c-.05.13-.13.24-.26.32-.13.08-.28.12-.45.12-.24,0-.44-.08-.59-.24-.15-.16-.23-.36-.23-.59s.08-.43.23-.59c.15-.16.35-.24.59-.24.22,0,.41.08.55.23.14.15.21.35.22.59ZM228.22,176.05c-.16,0-.29.05-.39.15-.1.1-.16.23-.18.38h1.11c-.01-.16-.07-.29-.17-.39s-.22-.15-.37-.15Z"/>
      <path class="cls-1" d="M231.38,175.84c.19,0,.34.07.46.2.12.13.18.3.18.52v.91h-.23v-.89c0-.16-.04-.29-.12-.38-.08-.09-.19-.13-.33-.13-.22,0-.38.1-.5.3.01.06.02.13.02.2v.91h-.23v-.89c0-.16-.04-.29-.12-.38-.08-.09-.19-.13-.33-.13-.19,0-.36.09-.48.29v1.12h-.23v-1.57h.23v.18c.14-.15.31-.23.52-.23.24,0,.42.1.54.29.16-.2.37-.29.63-.29Z"/>
      <path class="cls-1" d="M233.94,175.89v1.57h-.23v-.18c-.16.16-.35.24-.58.24-.2,0-.36-.07-.49-.19-.12-.13-.18-.3-.18-.52v-.91h.23v.89c0,.16.04.29.13.38s.2.14.35.14c.22,0,.39-.1.54-.29v-1.12h.23Z"/>
      <path class="cls-1" d="M235.33,175.84c.2,0,.36.07.48.2.12.13.19.31.19.52v.91h-.24v-.89c0-.16-.04-.29-.13-.38s-.2-.14-.35-.14c-.22,0-.4.1-.54.29v1.12h-.23v-1.57h.23v.19c.15-.16.35-.24.58-.24Z"/>
      <path class="cls-1" d="M237.73,176.42v.23h-1.12v-.23h1.12Z"/>
      <path class="cls-1" d="M239.94,175.89v1.62c0,.24-.07.43-.22.56-.15.14-.33.21-.56.21-.2,0-.38-.05-.52-.16-.14-.11-.23-.25-.26-.42h.24c.02.11.08.2.18.27.1.07.21.1.36.1.17,0,.3-.05.4-.15.1-.1.15-.24.15-.41v-.28c-.16.15-.35.22-.59.22s-.42-.08-.57-.23c-.15-.16-.23-.35-.23-.57,0-.24.08-.43.23-.58.15-.16.34-.23.57-.23s.43.07.59.22v-.17h.23ZM239.15,177.26c.24,0,.43-.1.56-.3v-.63c-.13-.2-.32-.3-.56-.3-.17,0-.31.06-.42.18s-.17.26-.17.44.05.31.17.43.25.18.42.18Z"/>
      <path class="cls-1" d="M241.92,175.89v1.57h-.23v-.18c-.16.16-.35.24-.58.24-.2,0-.36-.07-.49-.19-.12-.13-.18-.3-.18-.52v-.91h.23v.89c0,.16.04.29.13.38s.2.14.35.14c.22,0,.39-.1.54-.29v-1.12h.23Z"/>
      <path class="cls-1" d="M242.34,177.94l.17-.45c-.07-.02-.11-.06-.11-.13,0-.04.02-.08.05-.11s.07-.05.11-.05.08.02.11.05c.03.03.05.07.05.11,0,.02-.02.07-.05.15l-.18.43h-.15Z"/>
      <path class="cls-1" d="M194.21,179.18c.24,0,.44.06.61.17.17.12.26.28.29.5h-.24c-.06-.31-.27-.47-.65-.47-.18,0-.32.04-.42.12-.11.08-.16.19-.16.32,0,.2.16.33.48.39l.35.07c.43.08.64.28.64.6,0,.21-.08.38-.24.51-.16.13-.37.19-.62.19-.28,0-.5-.07-.67-.21s-.27-.33-.29-.58h.24c.03.18.11.33.23.42s.29.15.5.15c.18,0,.33-.04.44-.12.11-.08.16-.19.16-.33,0-.2-.15-.34-.44-.4l-.4-.08c-.43-.08-.64-.28-.64-.61,0-.2.07-.36.22-.48.15-.12.35-.18.6-.18Z"/>
      <path class="cls-1" d="M197.06,180.76c0,.05,0,.09,0,.1h-.01s0,0,0,0h-1.33c.02.16.08.29.19.39.11.1.24.15.4.15.22,0,.38-.08.46-.24h.25c-.05.13-.13.24-.26.32-.13.08-.28.12-.45.12-.24,0-.44-.08-.59-.24-.15-.16-.23-.36-.23-.59s.08-.43.23-.59c.15-.16.35-.24.59-.24.22,0,.41.08.55.23.14.15.21.35.22.59ZM196.29,180.14c-.16,0-.29.05-.39.15-.1.1-.16.23-.18.38h1.11c-.01-.16-.07-.29-.17-.39s-.22-.15-.37-.15Z"/>
      <path class="cls-1" d="M199.11,180.76c0,.24-.08.43-.24.6s-.36.24-.59.24-.43-.08-.6-.24-.24-.36-.24-.6.08-.43.24-.59.36-.24.6-.24.43.08.59.24c.16.16.24.36.24.59ZM198.87,180.76c0-.17-.06-.31-.17-.43-.12-.12-.26-.18-.43-.18s-.31.06-.43.18c-.12.12-.17.26-.17.43s.06.32.17.45c.12.12.26.18.43.18s.31-.06.43-.18c.12-.12.17-.27.17-.45Z"/>
      <path class="cls-1" d="M201.01,179.98v1.57h-.23v-.18c-.16.16-.35.24-.58.24-.2,0-.36-.07-.49-.19-.12-.13-.18-.3-.18-.52v-.91h.23v.89c0,.16.04.29.13.38s.2.14.35.14c.22,0,.39-.1.54-.29v-1.12h.23Z"/>
      <path class="cls-1" d="M201.81,179.13v2.42h-.23v-2.42h.23Z"/>
      <path class="cls-1" d="M202.24,182.02l.17-.45c-.07-.02-.11-.06-.11-.13,0-.04.02-.08.05-.11s.07-.05.11-.05.08.02.11.05c.03.03.05.07.05.11,0,.02-.02.07-.05.15l-.18.43h-.15Z"/>
      <path class="cls-1" d="M204.83,180.71h-.58v.84h-.24v-2.31h.86c.26,0,.47.07.64.2.16.13.24.31.24.54,0,.18-.06.34-.17.47-.11.13-.27.21-.47.25l.74.86h-.3l-.72-.84ZM204.25,180.49h.61c.19,0,.35-.05.47-.14.12-.09.18-.22.18-.37s-.06-.28-.18-.38-.28-.14-.47-.14h-.61v1.03Z"/>
      <path class="cls-1" d="M207.63,180.76c0,.05,0,.09,0,.1h-.01s0,0,0,0h-1.33c.02.16.08.29.19.39.11.1.24.15.4.15.22,0,.38-.08.46-.24h.25c-.05.13-.13.24-.26.32-.13.08-.28.12-.45.12-.24,0-.44-.08-.59-.24-.15-.16-.23-.36-.23-.59s.08-.43.23-.59c.15-.16.35-.24.59-.24.22,0,.41.08.55.23.14.15.21.35.22.59ZM206.86,180.14c-.16,0-.29.05-.39.15-.1.1-.16.23-.18.38h1.11c-.01-.16-.07-.29-.17-.39s-.22-.15-.37-.15Z"/>
      <path class="cls-1" d="M208.92,179.94c.22,0,.41.08.58.24.16.16.24.35.24.58s-.08.43-.24.59-.35.24-.58.24-.42-.07-.57-.22v1.02h-.23v-2.42h.23v.18c.15-.15.34-.22.57-.22ZM208.89,181.39c.17,0,.31-.06.43-.18.12-.12.18-.27.18-.44s-.06-.32-.18-.44c-.12-.12-.26-.18-.43-.18-.23,0-.41.1-.54.29v.66c.13.2.31.29.54.29Z"/>
      <path class="cls-1" d="M211.64,179.98v1.57h-.23v-.18c-.16.16-.35.24-.58.24-.2,0-.36-.07-.49-.19-.12-.13-.18-.3-.18-.52v-.91h.23v.89c0,.16.04.29.13.38s.2.14.35.14c.22,0,.39-.1.54-.29v-1.12h.23Z"/>
      <path class="cls-1" d="M213.02,179.94c.22,0,.41.08.58.24.16.16.24.35.24.58s-.08.43-.24.59c-.16.16-.35.24-.58.24s-.42-.07-.57-.22v.18h-.23v-2.42h.23v1.02c.15-.15.34-.22.57-.22ZM212.99,181.39c.17,0,.31-.06.43-.18.12-.12.18-.27.18-.44s-.06-.32-.18-.44c-.12-.12-.26-.18-.43-.18-.23,0-.41.1-.54.3v.66c.13.2.31.29.54.29Z"/>
      <path class="cls-1" d="M214.53,179.13v2.42h-.23v-2.42h.23Z"/>
      <path class="cls-1" d="M215.43,179.38c0,.06-.02.11-.08.14s-.11.03-.16,0-.08-.07-.08-.14c0-.05.02-.08.05-.11.03-.03.07-.04.11-.04s.08.01.11.05c.03.03.05.07.05.11ZM215.39,179.98v1.57h-.23v-1.57h.23Z"/>
      <path class="cls-1" d="M216.72,181.38c.13,0,.24-.03.33-.1.09-.06.15-.15.17-.26h.24c-.03.17-.12.3-.25.41-.13.1-.3.16-.49.16-.24,0-.43-.08-.59-.24-.15-.16-.23-.36-.23-.59s.08-.43.23-.59c.16-.16.35-.24.59-.24.19,0,.35.05.49.16.14.11.22.24.25.41h-.24c-.02-.11-.08-.19-.17-.26-.09-.07-.2-.1-.33-.1-.17,0-.31.06-.42.18-.11.12-.16.27-.16.44s.05.32.16.44c.11.12.25.18.42.18Z"/>
      <path class="cls-1" d="M220.46,180.76c0,.24-.08.43-.24.6s-.36.24-.59.24-.43-.08-.6-.24-.24-.36-.24-.6.08-.43.24-.59.36-.24.6-.24.43.08.59.24c.16.16.24.36.24.59ZM220.22,180.76c0-.17-.06-.31-.17-.43-.12-.12-.26-.18-.43-.18s-.31.06-.43.18c-.12.12-.17.26-.17.43s.06.32.17.45c.12.12.26.18.43.18s.31-.06.43-.18c.12-.12.17-.27.17-.45Z"/>
      <path class="cls-1" d="M221.32,179.98h.63v.2h-.63v1.37h-.23v-1.37h-.46v-.2h.46v-.41c0-.18.05-.32.15-.43.1-.11.24-.16.41-.16.1,0,.21.02.32.05l-.03.2c-.09-.02-.17-.03-.25-.03-.11,0-.2.04-.27.1-.07.07-.1.16-.1.27v.41Z"/>
      <path class="cls-1" d="M223.91,180.47l-.45.48v.61h-.24v-2.31h.24v1.38l1.33-1.38h.3l-1,1.05,1.12,1.26h-.31l-.98-1.08Z"/>
      <path class="cls-1" d="M227.02,180.76c0,.24-.08.43-.24.6s-.36.24-.59.24-.43-.08-.6-.24-.24-.36-.24-.6.08-.43.24-.59.36-.24.6-.24.43.08.59.24c.16.16.24.36.24.59ZM226.79,180.76c0-.17-.06-.31-.17-.43-.12-.12-.26-.18-.43-.18s-.31.06-.43.18c-.12.12-.17.26-.17.43s.06.32.17.45c.12.12.26.18.43.18s.31-.06.43-.18c.12-.12.17-.27.17-.45Z"/>
      <path class="cls-1" d="M227.71,179.98v.27c.15-.21.36-.31.62-.31v.22c-.26,0-.47.13-.62.36v1.03h-.23v-1.57h.23Z"/>
      <path class="cls-1" d="M230.14,180.76c0,.05,0,.09,0,.1h-.01s0,0,0,0h-1.33c.02.16.08.29.19.39.11.1.24.15.4.15.22,0,.38-.08.46-.24h.25c-.05.13-.13.24-.26.32-.13.08-.28.12-.45.12-.24,0-.44-.08-.59-.24-.15-.16-.23-.36-.23-.59s.08-.43.23-.59c.15-.16.35-.24.59-.24.22,0,.41.08.55.23.14.15.21.35.22.59ZM229.37,180.14c-.16,0-.29.05-.39.15-.1.1-.16.23-.18.38h1.11c-.01-.16-.07-.29-.17-.39s-.22-.15-.37-.15Z"/>
      <path class="cls-1" d="M232.13,179.98v1.57h-.23v-.17c-.15.14-.34.22-.57.22s-.41-.08-.58-.24c-.16-.16-.24-.35-.24-.59s.08-.43.24-.58.35-.24.58-.24.42.07.57.22v-.18h.23ZM231.35,181.39c.23,0,.41-.09.54-.29v-.68c-.13-.19-.31-.29-.54-.29-.17,0-.32.06-.44.18-.12.12-.17.27-.17.44s.06.32.17.44c.12.12.27.18.44.18Z"/>
    </g>
    <g>
      <path class="cls-1" d="M60.51,362.78c0,.85-.43,1.36-1.14,1.36s-1.08-.48-1.08-1.28v-2.34h-.5v2.24c0,1.03.52,1.55,1.53,1.55.83,0,1.35-.59,1.35-1.54v-2.25h-.16v2.26Z"/>
      <path class="cls-1" d="M62.22,360.52h-.89v3.76h.5v-1.74h.24c.5,0,.87-.12,1.1-.35.18-.18.27-.43.27-.73,0-.58-.46-.93-1.22-.93ZM62.73,362.14c-.15.15-.38.23-.65.23h-.24v-1.69s.4,0,.4,0c.46,0,.72.27.73.77,0,.29-.08.52-.24.68Z"/>
      <rect class="cls-1" x="63.89" y="360.52" width=".5" height="3.76"/>
      <path class="cls-1" d="M66.26,360.52h-1.25v3.76h1.23c1.15,0,2.02-.81,2.02-1.89s-.8-1.86-2-1.86ZM67.74,362.39c0,1.05-.59,1.73-1.51,1.73h-.72v-3.43h.76c.94,0,1.47.62,1.47,1.7Z"/>
      <path class="cls-1" d="M70.45,360.49c-1.1,0-1.92.82-1.92,1.91s.81,1.91,1.92,1.91,1.92-.82,1.92-1.92-.82-1.91-1.92-1.91ZM70.45,360.65c.86,0,1.4.67,1.4,1.75s-.54,1.75-1.4,1.75-1.41-.67-1.41-1.75.54-1.75,1.41-1.75Z"/>
      <path class="cls-1" d="M75.14,361.92c-.47-.14-.88-.25-.88-.7,0-.34.35-.57.84-.57h.03c.56,0,.85.32.85.62,0,.11-.02.19-.06.26l-.03.05.14.08.03-.04c.06-.09.09-.21.09-.34,0-.38-.36-.78-1.02-.78-.69,0-1.16.38-1.16.96,0,.69.57.85,1.08,1,.48.14.94.27.94.8,0,.67-.54.91-1,.91-.64,0-1.08-.4-1.08-.99v-.05h-.16v.05c0,.69.5,1.16,1.24,1.16.65,0,1.3-.41,1.3-1.32,0-.74-.61-.91-1.14-1.07Z"/>
      <polygon class="cls-1" points="77.22 362.08 78.63 362.08 78.63 361.92 77.22 361.92 77.22 360.69 78.87 360.69 78.87 360.52 76.72 360.52 76.72 364.28 78.92 364.28 78.92 364.12 77.22 364.12 77.22 362.08"/>
      <path class="cls-1" d="M80.93,360.49c-1.1,0-1.92.82-1.92,1.91s.81,1.91,1.92,1.91,1.92-.82,1.92-1.92-.82-1.91-1.92-1.91ZM80.93,360.65c.86,0,1.4.67,1.4,1.75s-.54,1.75-1.4,1.75-1.41-.67-1.41-1.75.54-1.75,1.41-1.75Z"/>
      <path class="cls-1" d="M86.07,362.78c0,.85-.43,1.36-1.14,1.36s-1.08-.48-1.08-1.28v-2.34h-.5v2.24c0,1.03.52,1.55,1.53,1.55.83,0,1.35-.59,1.35-1.54v-2.25h-.16v2.26Z"/>
      <polygon class="cls-1" points="87.38 364.12 87.38 360.52 86.88 360.52 86.88 364.28 89.09 364.28 89.09 364.12 87.38 364.12"/>
      <path class="cls-1" d="M56.95,363.91s-.05.03-.06.07c-.07.12-.13.22-.2.3-.06.06-.12.12-.2.16-.09.06-.21.1-.37.1-.29,0-.63-.11-.87-.22h0c1.09,0,1.92-.82,1.92-1.92s-.82-1.91-1.92-1.91-1.92.82-1.92,1.91c0,.63.26,1.18.73,1.53-.2.15-.4.47-.41.48v.02s-.05.06-.05.09c0,.07.06.14.14.14s.13-.05.14-.12c0-.01,0-.03.02-.05h0s0-.02,0-.02c0-.03.02-.05.03-.08v-.03s.05-.09.07-.13l-.05-.02h.06s.02-.03.04-.05c.06-.07.12-.11.16-.12.12.07.24.13.38.17.06.05.11.09.17.13.03.02.07.05.11.08h.02s.09.08.14.11c.04.03.09.05.13.08.02.01.04.02.06.03l.06.03c.26.13.52.2.75.2.82,0,1.14-.81,1.14-.82l.02-.04-.2-.1-.02.02ZM55.24,360.65c.86,0,1.4.67,1.4,1.75s-.54,1.75-1.4,1.75-1.41-.67-1.41-1.75.54-1.75,1.41-1.75Z"/>
    </g>
    <g>
      <path class="cls-1" d="M42.19,368.23h-.37v.51h-.23v-.51h-1.25v-.15l.7-1.66h.25l-.67,1.6h.96v-.75h.23v.75h.37v.21Z"/>
      <path class="cls-1" d="M43.72,367.57c.26.11.39.29.39.56,0,.19-.07.35-.22.48-.15.12-.34.18-.57.18s-.42-.05-.57-.17c-.15-.11-.23-.26-.25-.44h.24c.02.12.08.22.18.29.1.07.23.11.4.11s.3-.04.4-.13c.1-.08.16-.19.16-.33s-.05-.25-.15-.33c-.1-.08-.23-.12-.4-.12h-.19v-.2h.19c.14,0,.26-.04.35-.12.09-.08.13-.19.13-.32s-.05-.25-.14-.33c-.09-.08-.21-.12-.37-.12-.14,0-.25.04-.34.11-.09.07-.14.17-.16.29h-.23c.02-.18.09-.33.22-.44.13-.11.3-.17.51-.17.22,0,.4.06.54.18s.2.28.2.48c0,.24-.11.42-.32.53Z"/>
      <path class="cls-1" d="M45.75,367.7v.23h-1.12v-.23h1.12Z"/>
      <path class="cls-1" d="M47.2,367.2c.25,0,.45.07.61.22s.24.34.24.57-.08.42-.24.58c-.16.15-.36.23-.61.23s-.45-.08-.61-.22c-.16-.15-.24-.35-.24-.58,0-.18.06-.36.19-.53l.73-1.03h.29l-.56.79c.07-.02.14-.02.21-.02ZM47.81,368c0-.17-.06-.31-.17-.42-.11-.11-.26-.17-.44-.17s-.34.05-.45.16l-.02.02c-.1.14-.15.27-.15.4,0,.17.06.32.17.43.11.11.26.17.44.17s.33-.06.44-.17c.12-.11.17-.26.17-.43Z"/>
      <path class="cls-1" d="M48.31,369.21l.17-.45c-.07-.02-.11-.06-.11-.13,0-.04.02-.08.05-.11.03-.03.07-.05.11-.05s.08.02.11.05.05.07.05.11c0,.02-.02.07-.05.15l-.18.43h-.15Z"/>
      <path class="cls-1" d="M51.73,366.43l-.96,1.49v.83h-.24v-.83l-.96-1.49h.27l.81,1.26.81-1.26h.27Z"/>
      <path class="cls-1" d="M53.14,367.95c0,.05,0,.08,0,.1h-.01s0,0,0,0h-1.33c.02.16.08.29.19.39s.24.15.4.15c.22,0,.38-.08.46-.24h.25c-.05.13-.13.24-.26.32-.13.08-.28.12-.45.12-.24,0-.44-.08-.59-.24-.15-.16-.23-.36-.23-.59s.08-.43.23-.59c.15-.16.35-.24.59-.24.22,0,.41.08.55.23.14.15.21.35.22.59ZM52.37,367.33c-.16,0-.29.05-.39.15-.1.1-.16.23-.18.38h1.11c-.01-.16-.07-.29-.17-.39s-.22-.15-.37-.15Z"/>
      <path class="cls-1" d="M55.19,367.96c0,.24-.08.43-.24.6s-.36.24-.59.24-.43-.08-.6-.24-.24-.36-.24-.6.08-.43.24-.59c.16-.16.36-.24.6-.24s.43.08.59.24.24.36.24.59ZM54.95,367.96c0-.17-.06-.31-.17-.43-.12-.12-.26-.18-.43-.18s-.31.06-.43.18c-.12.12-.17.26-.17.43s.06.32.17.45c.12.12.26.18.43.18s.31-.06.43-.18c.12-.12.17-.27.17-.45Z"/>
      <path class="cls-1" d="M56.45,367.12c.2,0,.36.07.48.2s.19.3.19.52v.91h-.24v-.9c0-.16-.04-.29-.13-.38s-.2-.14-.35-.14c-.22,0-.4.1-.54.29v1.12h-.23v-1.57h.23v.19c.15-.16.35-.24.58-.24Z"/>
      <path class="cls-1" d="M58.44,367.12c.2,0,.36.07.48.2s.19.3.19.52v.91h-.24v-.9c0-.16-.04-.29-.13-.38s-.2-.14-.35-.14c-.22,0-.4.1-.54.29v1.12h-.23v-2.42h.23v1.03c.15-.16.35-.24.58-.24Z"/>
      <path class="cls-1" d="M61.03,367.17v1.57h-.23v-.18c-.16.16-.35.23-.58.23-.2,0-.36-.06-.49-.19-.12-.13-.18-.3-.18-.52v-.91h.23v.89c0,.16.04.29.13.38s.2.14.35.14c.22,0,.39-.1.54-.29v-1.12h.23Z"/>
      <path class="cls-1" d="M61.93,366.58c0,.06-.02.11-.08.14s-.11.03-.16,0-.08-.07-.08-.14c0-.04.02-.08.05-.11.03-.03.07-.04.11-.04s.08.02.11.05c.03.03.05.07.05.11ZM61.89,367.17v1.57h-.23v-1.57h.23Z"/>
      <path class="cls-1" d="M64.44,367.12c.19,0,.34.07.46.2.12.13.18.3.18.52v.91h-.23v-.9c0-.16-.04-.29-.12-.38s-.19-.13-.33-.13c-.22,0-.38.1-.5.3.01.06.02.13.02.2v.91h-.23v-.9c0-.16-.04-.29-.12-.38-.08-.09-.19-.13-.33-.13-.19,0-.36.1-.48.29v1.12h-.23v-1.57h.23v.18c.14-.15.31-.23.52-.23.24,0,.42.1.54.29.16-.19.37-.29.63-.29Z"/>
      <path class="cls-1" d="M67.12,367.17v1.57h-.23v-.17c-.15.15-.34.22-.57.22s-.41-.08-.58-.24-.24-.36-.24-.59.08-.43.24-.58c.16-.16.35-.24.58-.24s.42.07.57.22v-.18h.23ZM66.35,368.58c.23,0,.41-.1.54-.29v-.68c-.13-.19-.31-.29-.54-.29-.17,0-.32.06-.44.18-.12.12-.17.27-.17.44s.06.32.17.44c.12.12.27.18.44.18Z"/>
      <path class="cls-1" d="M68.68,368.54l.04.2c-.12.04-.24.05-.34.05-.36,0-.54-.21-.54-.62v-.81h-.42v-.2h.42v-.58h.23v.58h.6v.2h-.6v.81c0,.14.03.24.08.31s.15.1.27.1c.08,0,.17-.01.26-.04Z"/>
      <path class="cls-1" d="M70.14,367.7v.23h-1.12v-.23h1.12Z"/>
      <path class="cls-1" d="M71.06,367.17v.27c.15-.21.36-.31.62-.31v.22c-.26,0-.47.13-.62.36v1.03h-.23v-1.57h.23Z"/>
      <path class="cls-1" d="M73.57,367.96c0,.24-.08.43-.24.6s-.36.24-.59.24-.43-.08-.6-.24-.24-.36-.24-.6.08-.43.24-.59c.16-.16.36-.24.6-.24s.43.08.59.24.24.36.24.59ZM73.34,367.96c0-.17-.06-.31-.17-.43-.12-.12-.26-.18-.43-.18s-.31.06-.43.18c-.12.12-.17.26-.17.43s.06.32.17.45c.12.12.26.18.43.18s.31-.06.43-.18c.12-.12.17-.27.17-.45Z"/>
      <path class="cls-1" d="M73.83,369.21l.17-.45c-.07-.02-.11-.06-.11-.13,0-.04.02-.08.05-.11.03-.03.07-.05.11-.05s.08.02.11.05.05.07.05.11c0,.02-.02.07-.05.15l-.18.43h-.15Z"/>
      <path class="cls-1" d="M76.4,366.38c.24,0,.44.06.61.17.17.12.26.28.29.5h-.24c-.06-.31-.27-.47-.65-.47-.18,0-.32.04-.42.12-.11.08-.16.19-.16.32,0,.2.16.33.48.39l.35.07c.43.08.64.28.64.6,0,.21-.08.38-.24.51-.16.13-.37.19-.62.19-.28,0-.5-.07-.67-.21-.17-.14-.27-.33-.29-.58h.24c.03.18.11.32.23.42s.29.15.5.15c.18,0,.33-.04.44-.12.11-.08.16-.19.16-.33,0-.2-.15-.34-.44-.39l-.4-.08c-.43-.08-.64-.28-.64-.61,0-.2.07-.36.22-.48.15-.12.35-.18.6-.18Z"/>
      <path class="cls-1" d="M79.26,367.95c0,.05,0,.08,0,.1h-.01s0,0,0,0h-1.33c.02.16.08.29.19.39s.24.15.4.15c.22,0,.38-.08.46-.24h.25c-.05.13-.13.24-.26.32-.13.08-.28.12-.45.12-.24,0-.44-.08-.59-.24-.15-.16-.23-.36-.23-.59s.08-.43.23-.59c.15-.16.35-.24.59-.24.22,0,.41.08.55.23.14.15.21.35.22.59ZM78.48,367.33c-.16,0-.29.05-.39.15-.1.1-.16.23-.18.38h1.11c-.01-.16-.07-.29-.17-.39s-.22-.15-.37-.15Z"/>
      <path class="cls-1" d="M81.3,367.96c0,.24-.08.43-.24.6s-.36.24-.59.24-.43-.08-.6-.24-.24-.36-.24-.6.08-.43.24-.59c.16-.16.36-.24.6-.24s.43.08.59.24.24.36.24.59ZM81.06,367.96c0-.17-.06-.31-.17-.43-.12-.12-.26-.18-.43-.18s-.31.06-.43.18c-.12.12-.17.26-.17.43s.06.32.17.45c.12.12.26.18.43.18s.31-.06.43-.18c.12-.12.17-.27.17-.45Z"/>
      <path class="cls-1" d="M83.29,366.33v2.42h-.23v-.17c-.15.14-.34.21-.57.21s-.41-.08-.58-.24c-.16-.16-.24-.35-.24-.58s.08-.43.24-.58c.16-.16.35-.24.58-.24s.42.07.57.21v-1.02h.23ZM82.51,368.58c.23,0,.41-.1.54-.29v-.67c-.13-.19-.31-.29-.54-.29-.17,0-.32.06-.44.18-.12.12-.17.27-.17.44s.06.32.17.44c.12.12.27.18.44.18Z"/>
      <path class="cls-1" d="M85.39,367.17v1.57h-.23v-.17c-.15.15-.34.22-.57.22s-.41-.08-.58-.24-.24-.36-.24-.59.08-.43.24-.58c.16-.16.35-.24.58-.24s.42.07.57.22v-.18h.23ZM84.62,368.58c.23,0,.41-.1.54-.29v-.68c-.13-.19-.31-.29-.54-.29-.17,0-.32.06-.44.18-.12.12-.17.27-.17.44s.06.32.17.44c.12.12.27.18.44.18Z"/>
      <path class="cls-1" d="M87.45,367.95c0,.05,0,.08,0,.1h-.01s0,0,0,0h-1.33c.02.16.08.29.19.39s.24.15.4.15c.22,0,.38-.08.46-.24h.25c-.05.13-.13.24-.26.32-.13.08-.28.12-.45.12-.24,0-.44-.08-.59-.24-.15-.16-.23-.36-.23-.59s.08-.43.23-.59c.15-.16.35-.24.59-.24.22,0,.41.08.55.23.14.15.21.35.22.59ZM86.68,367.33c-.16,0-.29.05-.39.15-.1.1-.16.23-.18.38h1.11c-.01-.16-.07-.29-.17-.39s-.22-.15-.37-.15Z"/>
      <path class="cls-1" d="M89.83,367.12c.19,0,.34.07.46.2.12.13.18.3.18.52v.91h-.23v-.9c0-.16-.04-.29-.12-.38s-.19-.13-.33-.13c-.22,0-.38.1-.5.3.01.06.02.13.02.2v.91h-.23v-.9c0-.16-.04-.29-.12-.38-.08-.09-.19-.13-.33-.13-.19,0-.36.1-.48.29v1.12h-.23v-1.57h.23v.18c.14-.15.31-.23.52-.23.24,0,.42.1.54.29.16-.19.37-.29.63-.29Z"/>
      <path class="cls-1" d="M92.39,367.17v1.57h-.23v-.18c-.16.16-.35.23-.58.23-.2,0-.36-.06-.49-.19-.12-.13-.18-.3-.18-.52v-.91h.23v.89c0,.16.04.29.13.38s.2.14.35.14c.22,0,.39-.1.54-.29v-1.12h.23Z"/>
      <path class="cls-1" d="M93.78,367.12c.2,0,.36.07.48.2s.19.3.19.52v.91h-.24v-.9c0-.16-.04-.29-.13-.38s-.2-.14-.35-.14c-.22,0-.4.1-.54.29v1.12h-.23v-1.57h.23v.19c.15-.16.35-.24.58-.24Z"/>
      <path class="cls-1" d="M96.19,367.7v.23h-1.12v-.23h1.12Z"/>
      <path class="cls-1" d="M98.39,367.17v1.62c0,.24-.07.43-.22.56-.15.14-.33.21-.56.21-.2,0-.38-.05-.52-.16-.14-.11-.23-.25-.26-.42h.24c.02.11.08.2.18.27.1.07.21.1.36.1.17,0,.3-.05.4-.15.1-.1.15-.24.15-.41v-.28c-.16.15-.35.22-.59.22s-.42-.08-.57-.24c-.15-.16-.23-.35-.23-.57,0-.24.08-.43.23-.58.15-.16.34-.24.57-.24s.43.08.59.22v-.17h.23ZM97.6,368.54c.24,0,.43-.1.56-.3v-.63c-.13-.2-.32-.3-.56-.3-.17,0-.31.06-.42.18-.11.12-.17.26-.17.44s.05.31.17.43c.11.12.25.18.42.18Z"/>
      <path class="cls-1" d="M100.37,367.17v1.57h-.23v-.18c-.16.16-.35.23-.58.23-.2,0-.36-.06-.49-.19-.12-.13-.18-.3-.18-.52v-.91h.23v.89c0,.16.04.29.13.38s.2.14.35.14c.22,0,.39-.1.54-.29v-1.12h.23Z"/>
      <path class="cls-1" d="M100.8,369.21l.17-.45c-.07-.02-.11-.06-.11-.13,0-.04.02-.08.05-.11.03-.03.07-.05.11-.05s.08.02.11.05.05.07.05.11c0,.02-.02.07-.05.15l-.18.43h-.15Z"/>
      <path class="cls-1" d="M52.66,370.46c.24,0,.44.06.61.17.17.12.26.28.29.5h-.24c-.06-.31-.27-.47-.65-.47-.18,0-.32.04-.42.12-.11.08-.16.19-.16.32,0,.2.16.33.48.39l.35.07c.43.08.64.28.64.6,0,.21-.08.38-.24.51-.16.13-.37.19-.62.19-.28,0-.5-.07-.67-.21-.17-.14-.27-.33-.29-.58h.24c.03.18.11.32.23.42s.29.15.5.15c.18,0,.33-.04.44-.12.11-.08.16-.19.16-.33,0-.2-.15-.34-.44-.39l-.4-.08c-.43-.08-.64-.28-.64-.61,0-.2.07-.36.22-.48.15-.12.35-.18.6-.18Z"/>
      <path class="cls-1" d="M55.52,372.03c0,.05,0,.08,0,.1h-.01s0,0,0,0h-1.33c.02.16.08.29.19.39s.24.15.4.15c.22,0,.38-.08.46-.24h.25c-.05.13-.13.24-.26.32-.13.08-.28.12-.45.12-.24,0-.44-.08-.59-.24-.15-.16-.23-.36-.23-.59s.08-.43.23-.59c.15-.16.35-.24.59-.24.22,0,.41.08.55.23.14.15.21.35.22.59ZM54.74,371.41c-.16,0-.29.05-.39.15-.1.1-.16.23-.18.38h1.11c-.01-.16-.07-.29-.17-.39s-.22-.15-.37-.15Z"/>
      <path class="cls-1" d="M57.56,372.04c0,.24-.08.43-.24.6s-.36.24-.59.24-.43-.08-.6-.24-.24-.36-.24-.6.08-.43.24-.59c.16-.16.36-.24.6-.24s.43.08.59.24.24.36.24.59ZM57.32,372.04c0-.17-.06-.31-.17-.43-.12-.12-.26-.18-.43-.18s-.31.06-.43.18c-.12.12-.17.26-.17.43s.06.32.17.45c.12.12.26.18.43.18s.31-.06.43-.18c.12-.12.17-.27.17-.45Z"/>
      <path class="cls-1" d="M59.46,371.25v1.57h-.23v-.18c-.16.16-.35.23-.58.23-.2,0-.36-.06-.49-.19-.12-.13-.18-.3-.18-.52v-.91h.23v.89c0,.16.04.29.13.38s.2.14.35.14c.22,0,.39-.1.54-.29v-1.12h.23Z"/>
      <path class="cls-1" d="M60.27,370.41v2.42h-.23v-2.42h.23Z"/>
      <path class="cls-1" d="M60.69,373.3l.17-.45c-.07-.02-.11-.06-.11-.13,0-.04.02-.08.05-.11.03-.03.07-.05.11-.05s.08.02.11.05.05.07.05.11c0,.02-.02.07-.05.15l-.18.43h-.15Z"/>
      <path class="cls-1" d="M63.28,371.99h-.58v.84h-.24v-2.31h.86c.26,0,.47.07.64.2.16.13.24.31.24.54,0,.18-.06.34-.17.47-.11.13-.27.21-.47.25l.74.86h-.3l-.72-.84ZM62.71,371.76h.61c.19,0,.35-.05.47-.14s.18-.22.18-.37-.06-.28-.18-.38c-.12-.09-.28-.14-.47-.14h-.61v1.03Z"/>
      <path class="cls-1" d="M66.08,372.03c0,.05,0,.08,0,.1h-.01s0,0,0,0h-1.33c.02.16.08.29.19.39s.24.15.4.15c.22,0,.38-.08.46-.24h.25c-.05.13-.13.24-.26.32-.13.08-.28.12-.45.12-.24,0-.44-.08-.59-.24-.15-.16-.23-.36-.23-.59s.08-.43.23-.59c.15-.16.35-.24.59-.24.22,0,.41.08.55.23.14.15.21.35.22.59ZM65.31,371.41c-.16,0-.29.05-.39.15-.1.1-.16.23-.18.38h1.11c-.01-.16-.07-.29-.17-.39s-.22-.15-.37-.15Z"/>
      <path class="cls-1" d="M67.38,371.21c.22,0,.41.08.58.24s.24.35.24.58-.08.43-.24.59c-.16.16-.35.24-.58.24s-.42-.07-.57-.22v1.02h-.23v-2.42h.23v.18c.15-.15.34-.22.57-.22ZM67.35,372.67c.17,0,.31-.06.43-.18.12-.12.18-.27.18-.44s-.06-.32-.18-.44c-.12-.12-.26-.18-.43-.18-.23,0-.41.1-.54.29v.66c.13.2.31.29.54.29Z"/>
      <path class="cls-1" d="M70.09,371.25v1.57h-.23v-.18c-.16.16-.35.23-.58.23-.2,0-.36-.06-.49-.19-.12-.13-.18-.3-.18-.52v-.91h.23v.89c0,.16.04.29.13.38s.2.14.35.14c.22,0,.39-.1.54-.29v-1.12h.23Z"/>
      <path class="cls-1" d="M71.47,371.21c.22,0,.41.08.58.24s.24.35.24.58-.08.43-.24.58-.35.24-.58.24-.42-.07-.57-.22v.18h-.23v-2.42h.23v1.02c.15-.14.34-.22.57-.22ZM71.44,372.66c.17,0,.31-.06.43-.18.12-.12.18-.27.18-.44s-.06-.32-.18-.44c-.12-.12-.26-.18-.43-.18-.23,0-.41.1-.54.3v.66c.13.2.31.29.54.29Z"/>
      <path class="cls-1" d="M72.99,370.41v2.42h-.23v-2.42h.23Z"/>
      <path class="cls-1" d="M73.88,370.66c0,.06-.02.11-.08.14s-.11.03-.16,0-.08-.07-.08-.14c0-.04.02-.08.05-.11.03-.03.07-.04.11-.04s.08.02.11.05c.03.03.05.07.05.11ZM73.84,371.25v1.57h-.23v-1.57h.23Z"/>
      <path class="cls-1" d="M75.17,372.66c.13,0,.24-.03.33-.1.09-.06.15-.15.17-.26h.24c-.03.17-.12.31-.25.41-.13.1-.3.16-.49.16-.24,0-.43-.08-.59-.24-.15-.16-.23-.36-.23-.59s.08-.43.23-.59c.16-.16.35-.24.59-.24.19,0,.35.05.49.16s.22.24.25.41h-.24c-.02-.11-.08-.19-.17-.26-.09-.06-.2-.1-.33-.1-.17,0-.31.06-.42.18-.11.12-.16.27-.16.44s.05.32.16.44c.11.12.25.18.42.18Z"/>
      <path class="cls-1" d="M78.91,372.04c0,.24-.08.43-.24.6s-.36.24-.59.24-.43-.08-.6-.24-.24-.36-.24-.6.08-.43.24-.59c.16-.16.36-.24.6-.24s.43.08.59.24.24.36.24.59ZM78.68,372.04c0-.17-.06-.31-.17-.43-.12-.12-.26-.18-.43-.18s-.31.06-.43.18c-.12.12-.17.26-.17.43s.06.32.17.45c.12.12.26.18.43.18s.31-.06.43-.18c.12-.12.17-.27.17-.45Z"/>
      <path class="cls-1" d="M79.77,371.25h.63v.2h-.63v1.37h-.23v-1.37h-.46v-.2h.46v-.41c0-.18.05-.32.15-.43.1-.11.24-.16.41-.16.1,0,.21.02.32.05l-.03.2c-.09-.02-.17-.03-.25-.03-.11,0-.2.03-.27.1-.07.07-.1.16-.1.27v.41Z"/>
      <path class="cls-1" d="M82.36,371.74l-.45.48v.61h-.24v-2.31h.24v1.38l1.33-1.38h.3l-1,1.06,1.12,1.26h-.31l-.98-1.08Z"/>
      <path class="cls-1" d="M85.48,372.04c0,.24-.08.43-.24.6s-.36.24-.59.24-.43-.08-.6-.24-.24-.36-.24-.6.08-.43.24-.59c.16-.16.36-.24.6-.24s.43.08.59.24.24.36.24.59ZM85.24,372.04c0-.17-.06-.31-.17-.43-.12-.12-.26-.18-.43-.18s-.31.06-.43.18c-.12.12-.17.26-.17.43s.06.32.17.45c.12.12.26.18.43.18s.31-.06.43-.18c.12-.12.17-.27.17-.45Z"/>
      <path class="cls-1" d="M86.16,371.25v.27c.15-.21.36-.31.62-.31v.22c-.26,0-.47.13-.62.36v1.03h-.23v-1.57h.23Z"/>
      <path class="cls-1" d="M88.59,372.03c0,.05,0,.08,0,.1h-.01s0,0,0,0h-1.33c.02.16.08.29.19.39s.24.15.4.15c.22,0,.38-.08.46-.24h.25c-.05.13-.13.24-.26.32-.13.08-.28.12-.45.12-.24,0-.44-.08-.59-.24-.15-.16-.23-.36-.23-.59s.08-.43.23-.59c.15-.16.35-.24.59-.24.22,0,.41.08.55.23.14.15.21.35.22.59ZM87.82,371.41c-.16,0-.29.05-.39.15-.1.1-.16.23-.18.38h1.11c-.01-.16-.07-.29-.17-.39s-.22-.15-.37-.15Z"/>
      <path class="cls-1" d="M90.58,371.25v1.57h-.23v-.17c-.15.15-.34.22-.57.22s-.41-.08-.58-.24-.24-.36-.24-.59.08-.43.24-.58c.16-.16.35-.24.58-.24s.42.07.57.22v-.18h.23ZM89.81,372.67c.23,0,.41-.1.54-.29v-.68c-.13-.19-.31-.29-.54-.29-.17,0-.32.06-.44.18-.12.12-.17.27-.17.44s.06.32.17.44c.12.12.27.18.44.18Z"/>
    </g>
    <g>
      <path class="cls-1" d="M202.06,362.78c0,.85-.43,1.36-1.14,1.36s-1.08-.48-1.08-1.28v-2.34h-.5v2.24c0,1.03.52,1.55,1.53,1.55.83,0,1.35-.59,1.35-1.54v-2.25h-.16v2.26Z"/>
      <path class="cls-1" d="M203.77,360.52h-.89v3.76h.5v-1.74h.24c.5,0,.87-.12,1.1-.35.18-.18.27-.43.27-.73,0-.58-.46-.93-1.22-.93ZM204.28,362.14c-.15.15-.38.23-.65.23h-.24v-1.69s.4,0,.4,0c.46,0,.72.27.73.77,0,.29-.08.52-.24.68Z"/>
      <rect class="cls-1" x="205.44" y="360.52" width=".5" height="3.76"/>
      <path class="cls-1" d="M207.8,360.52h-1.25v3.76h1.23c1.15,0,2.02-.81,2.02-1.89s-.8-1.86-2-1.86ZM209.28,362.39c0,1.05-.59,1.73-1.51,1.73h-.72v-3.43h.76c.94,0,1.47.62,1.47,1.7Z"/>
      <path class="cls-1" d="M211.99,360.49c-1.1,0-1.92.82-1.92,1.91s.81,1.91,1.92,1.91,1.92-.82,1.92-1.92-.82-1.91-1.92-1.91ZM211.99,360.65c.86,0,1.4.67,1.4,1.75s-.54,1.75-1.4,1.75-1.41-.67-1.41-1.75.54-1.75,1.41-1.75Z"/>
      <path class="cls-1" d="M216.68,361.92c-.47-.14-.88-.25-.88-.7,0-.34.35-.57.84-.57h.03c.56,0,.85.32.85.62,0,.11-.02.19-.06.26l-.03.05.14.08.03-.04c.06-.09.09-.21.09-.34,0-.38-.36-.78-1.02-.78-.69,0-1.16.38-1.16.96,0,.69.57.85,1.08,1,.48.14.94.27.94.8,0,.67-.54.91-1,.91-.64,0-1.08-.4-1.08-.99v-.05h-.16v.05c0,.69.5,1.16,1.24,1.16.65,0,1.3-.41,1.3-1.32,0-.74-.61-.91-1.14-1.07Z"/>
      <polygon class="cls-1" points="218.77 362.08 220.18 362.08 220.18 361.92 218.77 361.92 218.77 360.69 220.42 360.69 220.42 360.52 218.27 360.52 218.27 364.28 220.46 364.28 220.46 364.12 218.77 364.12 218.77 362.08"/>
      <path class="cls-1" d="M222.47,360.49c-1.1,0-1.92.82-1.92,1.91s.81,1.91,1.92,1.91,1.92-.82,1.92-1.92-.82-1.91-1.92-1.91ZM222.47,360.65c.86,0,1.4.67,1.4,1.75s-.54,1.75-1.4,1.75-1.41-.67-1.41-1.75.54-1.75,1.41-1.75Z"/>
      <path class="cls-1" d="M227.61,362.78c0,.85-.43,1.36-1.14,1.36s-1.08-.48-1.08-1.28v-2.34h-.5v2.24c0,1.03.52,1.55,1.53,1.55.83,0,1.35-.59,1.35-1.54v-2.25h-.16v2.26Z"/>
      <polygon class="cls-1" points="228.93 364.12 228.93 360.52 228.42 360.52 228.42 364.28 230.63 364.28 230.63 364.12 228.93 364.12"/>
      <path class="cls-1" d="M198.49,363.91s-.05.03-.06.07c-.07.12-.13.22-.2.3-.06.06-.12.12-.2.16-.09.06-.21.1-.37.1-.29,0-.63-.11-.87-.22h0c1.09,0,1.92-.82,1.92-1.92s-.82-1.91-1.92-1.91-1.92.82-1.92,1.91c0,.63.26,1.18.73,1.53-.2.15-.4.47-.41.48v.02s-.05.06-.05.09c0,.07.06.14.14.14s.13-.05.14-.12c0-.01,0-.03.02-.05h0s0-.02,0-.02c0-.03.02-.05.03-.08v-.03s.05-.09.07-.13l-.05-.02h.06s.02-.03.04-.05c.06-.07.12-.11.16-.12.12.07.24.13.38.17.06.05.11.09.17.13.03.02.07.05.11.08h.02s.09.08.14.11c.04.03.09.05.13.08.02.01.04.02.06.03l.06.03c.26.13.52.2.75.2.82,0,1.14-.81,1.14-.82l.02-.04-.2-.1-.02.02ZM196.79,360.65c.86,0,1.4.67,1.4,1.75s-.54,1.75-1.4,1.75-1.41-.67-1.41-1.75.54-1.75,1.41-1.75Z"/>
    </g>
    <g>
      <path class="cls-1" d="M183.74,368.23h-.38v.51h-.23v-.51h-1.25v-.15l.71-1.66h.25l-.67,1.6h.96v-.75h.23v.75h.38v.21Z"/>
      <path class="cls-1" d="M185.26,367.57c.26.11.39.29.39.56,0,.19-.07.35-.22.48-.15.12-.34.18-.57.18s-.42-.05-.57-.17-.23-.26-.25-.44h.23c.02.12.08.22.18.29s.23.11.4.11.3-.04.4-.13c.1-.08.16-.19.16-.33s-.05-.25-.15-.33c-.1-.08-.23-.12-.4-.12h-.19v-.2h.19c.14,0,.26-.04.35-.12.09-.08.13-.19.13-.32s-.04-.25-.14-.33c-.09-.08-.21-.12-.37-.12-.14,0-.25.04-.34.11-.09.07-.14.17-.16.29h-.23c.02-.18.09-.33.22-.44.13-.11.3-.17.51-.17.22,0,.4.06.54.18.13.12.2.28.2.48,0,.24-.11.42-.32.53Z"/>
      <path class="cls-1" d="M187.3,367.7v.23h-1.12v-.23h1.12Z"/>
      <path class="cls-1" d="M188.74,367.2c.25,0,.45.07.61.22.16.15.24.34.24.57s-.08.42-.24.58c-.16.15-.36.23-.61.23s-.45-.08-.61-.22c-.16-.15-.24-.35-.24-.58,0-.18.06-.36.19-.53l.73-1.03h.29l-.56.79c.07-.02.14-.02.21-.02ZM189.35,368c0-.17-.06-.31-.17-.42-.11-.11-.26-.17-.44-.17s-.34.05-.45.16l-.02.02c-.1.14-.15.27-.15.4,0,.17.06.32.17.43.11.11.26.17.44.17s.33-.06.44-.17c.12-.11.17-.26.17-.43Z"/>
      <path class="cls-1" d="M189.85,369.21l.17-.45c-.07-.02-.11-.06-.11-.13,0-.04.02-.08.05-.11.03-.03.07-.05.11-.05s.08.02.12.05c.03.03.04.07.04.11,0,.02-.02.07-.05.15l-.18.43h-.15Z"/>
      <path class="cls-1" d="M193.28,366.43l-.96,1.49v.83h-.24v-.83l-.96-1.49h.27l.81,1.26.81-1.26h.27Z"/>
      <path class="cls-1" d="M194.69,367.95c0,.05,0,.08,0,.1h-.01s0,0,0,0h-1.33c.02.16.08.29.19.39.11.1.24.15.4.15.22,0,.38-.08.46-.24h.25c-.04.13-.13.24-.26.32-.13.08-.28.12-.45.12-.24,0-.44-.08-.59-.24-.15-.16-.23-.36-.23-.59s.08-.43.23-.59c.15-.16.35-.24.59-.24.22,0,.41.08.55.23.14.15.21.35.22.59ZM193.92,367.33c-.16,0-.29.05-.39.15-.11.1-.16.23-.18.38h1.11c-.01-.16-.07-.29-.17-.39s-.22-.15-.37-.15Z"/>
      <path class="cls-1" d="M196.73,367.96c0,.24-.08.43-.24.6-.16.16-.36.24-.59.24s-.44-.08-.6-.24c-.16-.16-.24-.36-.24-.6s.08-.43.24-.59c.16-.16.36-.24.6-.24s.43.08.59.24c.16.16.24.36.24.59ZM196.49,367.96c0-.17-.06-.31-.17-.43-.12-.12-.26-.18-.43-.18s-.31.06-.43.18c-.12.12-.17.26-.17.43s.06.32.17.45c.12.12.26.18.43.18s.31-.06.43-.18c.12-.12.17-.27.17-.45Z"/>
      <path class="cls-1" d="M198,367.12c.2,0,.36.07.48.2s.19.3.19.52v.91h-.24v-.9c0-.16-.04-.29-.13-.38s-.2-.14-.35-.14c-.22,0-.4.1-.54.29v1.12h-.23v-1.57h.23v.19c.15-.16.35-.24.58-.24Z"/>
      <path class="cls-1" d="M199.99,367.12c.2,0,.36.07.48.2s.19.3.19.52v.91h-.23v-.9c0-.16-.04-.29-.13-.38s-.2-.14-.35-.14c-.22,0-.4.1-.54.29v1.12h-.23v-2.42h.23v1.03c.15-.16.35-.24.58-.24Z"/>
      <path class="cls-1" d="M202.57,367.17v1.57h-.23v-.18c-.16.16-.35.23-.58.23-.2,0-.36-.06-.49-.19-.12-.13-.18-.3-.18-.52v-.91h.23v.89c0,.16.04.29.13.38.09.09.2.14.35.14.22,0,.39-.1.54-.29v-1.12h.23Z"/>
      <path class="cls-1" d="M203.48,366.58c0,.06-.02.11-.08.14s-.11.03-.16,0-.08-.07-.08-.14c0-.04.02-.08.05-.11.03-.03.07-.04.11-.04s.08.02.11.05c.03.03.05.07.05.11ZM203.43,367.17v1.57h-.23v-1.57h.23Z"/>
      <path class="cls-1" d="M205.98,367.12c.19,0,.35.07.46.2.12.13.18.3.18.52v.91h-.23v-.9c0-.16-.04-.29-.12-.38-.08-.09-.19-.13-.33-.13-.21,0-.38.1-.5.3.01.06.02.13.02.2v.91h-.23v-.9c0-.16-.04-.29-.12-.38-.08-.09-.19-.13-.33-.13-.2,0-.36.1-.48.29v1.12h-.23v-1.57h.23v.18c.14-.15.31-.23.52-.23.24,0,.42.1.54.29.16-.19.37-.29.63-.29Z"/>
      <path class="cls-1" d="M208.66,367.17v1.57h-.23v-.17c-.15.15-.34.22-.57.22s-.41-.08-.57-.24c-.16-.16-.24-.36-.24-.59s.08-.43.24-.58c.16-.16.35-.24.57-.24s.42.07.57.22v-.18h.23ZM207.89,368.58c.23,0,.41-.1.54-.29v-.68c-.13-.19-.31-.29-.54-.29-.17,0-.32.06-.44.18-.12.12-.17.27-.17.44s.06.32.17.44c.12.12.27.18.44.18Z"/>
      <path class="cls-1" d="M210.23,368.54l.04.2c-.12.04-.24.05-.34.05-.36,0-.54-.21-.54-.62v-.81h-.42v-.2h.42v-.58h.23v.58h.6v.2h-.6v.81c0,.14.03.24.08.31s.15.1.27.1c.08,0,.16-.01.26-.04Z"/>
      <path class="cls-1" d="M211.68,367.7v.23h-1.12v-.23h1.12Z"/>
      <path class="cls-1" d="M212.6,367.17v.27c.15-.21.36-.31.62-.31v.22c-.26,0-.47.13-.62.36v1.03h-.23v-1.57h.23Z"/>
      <path class="cls-1" d="M215.12,367.96c0,.24-.08.43-.24.6-.16.16-.36.24-.59.24s-.43-.08-.6-.24c-.16-.16-.24-.36-.24-.6s.08-.43.24-.59c.16-.16.36-.24.6-.24s.43.08.59.24c.16.16.24.36.24.59ZM214.88,367.96c0-.17-.06-.31-.17-.43-.12-.12-.26-.18-.43-.18s-.31.06-.43.18c-.12.12-.17.26-.17.43s.06.32.17.45c.12.12.26.18.43.18s.31-.06.43-.18c.12-.12.17-.27.17-.45Z"/>
      <path class="cls-1" d="M215.37,369.21l.17-.45c-.07-.02-.11-.06-.11-.13,0-.04.02-.08.04-.11.03-.03.07-.05.12-.05s.08.02.11.05c.03.03.05.07.05.11,0,.02-.02.07-.05.15l-.18.43h-.15Z"/>
      <path class="cls-1" d="M217.94,366.38c.24,0,.45.06.61.17.16.12.26.28.29.5h-.24c-.06-.31-.27-.47-.65-.47-.18,0-.32.04-.42.12-.11.08-.16.19-.16.32,0,.2.16.33.48.39l.35.07c.43.08.64.28.64.6,0,.21-.08.38-.24.51-.16.13-.37.19-.62.19-.28,0-.5-.07-.67-.21-.17-.14-.27-.33-.29-.58h.24c.03.18.11.32.23.42.13.1.29.15.5.15.18,0,.33-.04.44-.12s.16-.19.16-.33c0-.2-.15-.34-.44-.39l-.4-.08c-.43-.08-.64-.28-.64-.61,0-.2.07-.36.22-.48.15-.12.35-.18.6-.18Z"/>
      <path class="cls-1" d="M220.8,367.95c0,.05,0,.08,0,.1h-.01s0,0,0,0h-1.33c.02.16.08.29.19.39.11.1.24.15.4.15.22,0,.38-.08.46-.24h.25c-.04.13-.13.24-.26.32-.13.08-.28.12-.45.12-.24,0-.44-.08-.59-.24-.15-.16-.23-.36-.23-.59s.08-.43.23-.59c.15-.16.35-.24.59-.24.22,0,.41.08.55.23.14.15.21.35.22.59ZM220.03,367.33c-.16,0-.29.05-.39.15-.11.1-.16.23-.18.38h1.11c-.01-.16-.07-.29-.17-.39s-.22-.15-.37-.15Z"/>
      <path class="cls-1" d="M222.84,367.96c0,.24-.08.43-.24.6-.16.16-.36.24-.59.24s-.44-.08-.6-.24c-.16-.16-.24-.36-.24-.6s.08-.43.24-.59c.16-.16.36-.24.6-.24s.43.08.59.24c.16.16.24.36.24.59ZM222.61,367.96c0-.17-.06-.31-.17-.43-.12-.12-.26-.18-.43-.18s-.31.06-.43.18c-.12.12-.17.26-.17.43s.06.32.17.45c.12.12.26.18.43.18s.31-.06.43-.18c.12-.12.17-.27.17-.45Z"/>
      <path class="cls-1" d="M224.83,366.33v2.42h-.23v-.17c-.15.14-.34.21-.57.21s-.41-.08-.57-.24c-.16-.16-.24-.35-.24-.58s.08-.43.24-.58c.16-.16.35-.24.57-.24s.42.07.57.21v-1.02h.23ZM224.06,368.58c.23,0,.41-.1.54-.29v-.67c-.13-.19-.31-.29-.54-.29-.17,0-.32.06-.44.18-.12.12-.17.27-.17.44s.06.32.17.44c.12.12.27.18.44.18Z"/>
      <path class="cls-1" d="M226.94,367.17v1.57h-.23v-.17c-.15.15-.34.22-.57.22s-.41-.08-.58-.24c-.16-.16-.24-.36-.24-.59s.08-.43.24-.58c.16-.16.35-.24.58-.24s.42.07.57.22v-.18h.23ZM226.16,368.58c.23,0,.41-.1.54-.29v-.68c-.13-.19-.31-.29-.54-.29-.17,0-.32.06-.44.18-.12.12-.17.27-.17.44s.06.32.17.44c.12.12.27.18.44.18Z"/>
      <path class="cls-1" d="M228.99,367.95c0,.05,0,.08,0,.1h-.01s0,0,0,0h-1.33c.02.16.08.29.19.39.11.1.24.15.4.15.22,0,.38-.08.46-.24h.25c-.04.13-.13.24-.26.32-.13.08-.28.12-.45.12-.24,0-.44-.08-.59-.24-.15-.16-.23-.36-.23-.59s.08-.43.23-.59c.15-.16.35-.24.59-.24.22,0,.41.08.55.23.14.15.21.35.22.59ZM228.22,367.33c-.16,0-.29.05-.39.15-.11.1-.16.23-.18.38h1.11c-.01-.16-.07-.29-.17-.39s-.22-.15-.37-.15Z"/>
      <path class="cls-1" d="M231.38,367.12c.19,0,.35.07.46.2.12.13.18.3.18.52v.91h-.23v-.9c0-.16-.04-.29-.12-.38-.08-.09-.19-.13-.33-.13-.21,0-.38.1-.5.3.01.06.02.13.02.2v.91h-.23v-.9c0-.16-.04-.29-.12-.38-.08-.09-.19-.13-.33-.13-.2,0-.36.1-.48.29v1.12h-.23v-1.57h.23v.18c.14-.15.31-.23.52-.23.24,0,.42.1.54.29.16-.19.37-.29.63-.29Z"/>
      <path class="cls-1" d="M233.94,367.17v1.57h-.23v-.18c-.16.16-.35.23-.58.23-.2,0-.36-.06-.49-.19-.12-.13-.18-.3-.18-.52v-.91h.23v.89c0,.16.04.29.13.38.09.09.2.14.35.14.22,0,.39-.1.54-.29v-1.12h.23Z"/>
      <path class="cls-1" d="M235.33,367.12c.2,0,.36.07.48.2s.19.3.19.52v.91h-.24v-.9c0-.16-.04-.29-.13-.38s-.2-.14-.35-.14c-.22,0-.4.1-.54.29v1.12h-.23v-1.57h.23v.19c.15-.16.35-.24.58-.24Z"/>
      <path class="cls-1" d="M237.73,367.7v.23h-1.12v-.23h1.12Z"/>
      <path class="cls-1" d="M239.94,367.17v1.62c0,.24-.07.43-.22.56-.15.14-.33.21-.56.21-.2,0-.38-.05-.52-.16-.14-.11-.23-.25-.26-.42h.24c.02.11.08.2.18.27.1.07.21.1.36.1.16,0,.3-.05.4-.15.1-.1.15-.24.15-.41v-.28c-.16.15-.35.22-.59.22s-.42-.08-.57-.24c-.15-.16-.23-.35-.23-.57,0-.24.08-.43.23-.58.15-.16.34-.24.57-.24s.43.08.59.22v-.17h.23ZM239.14,368.54c.24,0,.43-.1.56-.3v-.63c-.13-.2-.32-.3-.56-.3-.17,0-.31.06-.42.18-.11.12-.17.26-.17.44s.05.31.17.43c.11.12.25.18.42.18Z"/>
      <path class="cls-1" d="M241.91,367.17v1.57h-.23v-.18c-.16.16-.35.23-.58.23-.2,0-.36-.06-.49-.19-.12-.13-.18-.3-.18-.52v-.91h.23v.89c0,.16.04.29.13.38.09.09.21.14.35.14.21,0,.39-.1.54-.29v-1.12h.23Z"/>
      <path class="cls-1" d="M242.34,369.21l.17-.45c-.07-.02-.11-.06-.11-.13,0-.04.02-.08.04-.11.03-.03.07-.05.12-.05s.08.02.11.05c.03.03.05.07.05.11,0,.02-.02.07-.05.15l-.18.43h-.15Z"/>
      <path class="cls-1" d="M194.2,370.46c.24,0,.45.06.61.17.16.12.26.28.29.5h-.24c-.06-.31-.27-.47-.65-.47-.18,0-.32.04-.42.12-.11.08-.16.19-.16.32,0,.2.16.33.48.39l.35.07c.43.08.64.28.64.6,0,.21-.08.38-.24.51-.16.13-.37.19-.62.19-.28,0-.5-.07-.67-.21-.17-.14-.27-.33-.29-.58h.24c.03.18.11.32.23.42.13.1.29.15.5.15.18,0,.33-.04.44-.12s.16-.19.16-.33c0-.2-.15-.34-.44-.39l-.4-.08c-.43-.08-.64-.28-.64-.61,0-.2.07-.36.22-.48.15-.12.35-.18.6-.18Z"/>
      <path class="cls-1" d="M197.06,372.03c0,.05,0,.08,0,.1h-.01s0,0,0,0h-1.33c.02.16.08.29.19.39.11.1.24.15.4.15.22,0,.38-.08.46-.24h.25c-.04.13-.13.24-.26.32-.13.08-.28.12-.45.12-.24,0-.44-.08-.59-.24-.15-.16-.23-.36-.23-.59s.08-.43.23-.59c.15-.16.35-.24.59-.24.22,0,.41.08.55.23.14.15.21.35.22.59ZM196.29,371.41c-.16,0-.29.05-.39.15-.11.1-.16.23-.18.38h1.11c-.01-.16-.07-.29-.17-.39s-.22-.15-.37-.15Z"/>
      <path class="cls-1" d="M199.1,372.04c0,.24-.08.43-.24.6-.16.16-.36.24-.59.24s-.44-.08-.6-.24c-.16-.16-.24-.36-.24-.6s.08-.43.24-.59c.16-.16.36-.24.6-.24s.43.08.59.24c.16.16.24.36.24.59ZM198.87,372.04c0-.17-.06-.31-.17-.43-.12-.12-.26-.18-.43-.18s-.31.06-.43.18c-.12.12-.17.26-.17.43s.06.32.17.45c.12.12.26.18.43.18s.31-.06.43-.18c.12-.12.17-.27.17-.45Z"/>
      <path class="cls-1" d="M201.01,371.25v1.57h-.23v-.18c-.16.16-.35.23-.58.23-.2,0-.36-.06-.49-.19-.12-.13-.18-.3-.18-.52v-.91h.23v.89c0,.16.04.29.13.38.09.09.21.14.35.14.21,0,.39-.1.54-.29v-1.12h.23Z"/>
      <path class="cls-1" d="M201.81,370.41v2.42h-.23v-2.42h.23Z"/>
      <path class="cls-1" d="M202.24,373.3l.17-.45c-.07-.02-.11-.06-.11-.13,0-.04.02-.08.05-.11.03-.03.07-.05.11-.05s.08.02.12.05c.03.03.04.07.04.11,0,.02-.02.07-.05.15l-.18.43h-.15Z"/>
      <path class="cls-1" d="M204.83,371.99h-.57v.84h-.24v-2.31h.86c.26,0,.47.07.64.2.16.13.24.31.24.54,0,.18-.06.34-.17.47s-.27.21-.47.25l.74.86h-.3l-.72-.84ZM204.25,371.76h.61c.19,0,.35-.05.47-.14s.18-.22.18-.37-.06-.28-.18-.38c-.12-.09-.28-.14-.47-.14h-.61v1.03Z"/>
      <path class="cls-1" d="M207.63,372.03c0,.05,0,.08,0,.1h-.01s0,0,0,0h-1.33c.02.16.08.29.19.39.11.1.24.15.4.15.22,0,.38-.08.46-.24h.25c-.05.13-.13.24-.26.32-.13.08-.28.12-.45.12-.24,0-.44-.08-.59-.24-.15-.16-.23-.36-.23-.59s.08-.43.23-.59c.15-.16.35-.24.59-.24.22,0,.4.08.55.23.14.15.21.35.22.59ZM206.85,371.41c-.16,0-.29.05-.39.15-.1.1-.16.23-.18.38h1.11c-.01-.16-.07-.29-.17-.39s-.22-.15-.37-.15Z"/>
      <path class="cls-1" d="M208.92,371.21c.22,0,.41.08.57.24.16.16.24.35.24.58s-.08.43-.24.59c-.16.16-.35.24-.57.24s-.42-.07-.57-.22v1.02h-.23v-2.42h.23v.18c.15-.15.35-.22.57-.22ZM208.89,372.67c.17,0,.31-.06.43-.18.12-.12.18-.27.18-.44s-.06-.32-.18-.44c-.12-.12-.26-.18-.43-.18-.23,0-.41.1-.54.29v.66c.13.2.31.29.54.29Z"/>
      <path class="cls-1" d="M211.64,371.25v1.57h-.23v-.18c-.16.16-.35.23-.58.23-.2,0-.36-.06-.49-.19-.12-.13-.18-.3-.18-.52v-.91h.23v.89c0,.16.04.29.13.38.09.09.2.14.35.14.22,0,.39-.1.54-.29v-1.12h.23Z"/>
      <path class="cls-1" d="M213.01,371.21c.22,0,.41.08.57.24.16.16.24.35.24.58s-.08.43-.24.58c-.16.16-.35.24-.57.24s-.42-.07-.57-.22v.18h-.23v-2.42h.23v1.02c.15-.14.34-.22.57-.22ZM212.98,372.66c.17,0,.31-.06.43-.18.12-.12.18-.27.18-.44s-.06-.32-.18-.44c-.12-.12-.26-.18-.43-.18-.23,0-.41.1-.54.3v.66c.13.2.31.29.54.29Z"/>
      <path class="cls-1" d="M214.53,370.41v2.42h-.23v-2.42h.23Z"/>
      <path class="cls-1" d="M215.43,370.66c0,.06-.02.11-.08.14s-.11.03-.16,0-.08-.07-.08-.14c0-.04.02-.08.05-.11.03-.03.07-.04.11-.04s.08.02.11.05.04.07.05.11ZM215.39,371.25v1.57h-.23v-1.57h.23Z"/>
      <path class="cls-1" d="M216.72,372.66c.13,0,.23-.03.32-.1s.15-.15.17-.26h.24c-.03.17-.12.31-.25.41-.13.1-.3.16-.49.16-.24,0-.43-.08-.59-.24-.15-.16-.23-.36-.23-.59s.08-.43.23-.59c.16-.16.35-.24.59-.24.19,0,.35.05.49.16s.22.24.25.41h-.24c-.03-.11-.08-.19-.17-.26s-.2-.1-.32-.1c-.17,0-.31.06-.42.18-.11.12-.16.27-.16.44s.05.32.16.44c.11.12.25.18.42.18Z"/>
      <path class="cls-1" d="M220.46,372.04c0,.24-.08.43-.24.6-.16.16-.36.24-.59.24s-.43-.08-.6-.24c-.16-.16-.24-.36-.24-.6s.08-.43.24-.59c.16-.16.36-.24.6-.24s.43.08.59.24c.16.16.24.36.24.59ZM220.22,372.04c0-.17-.06-.31-.17-.43-.12-.12-.26-.18-.43-.18s-.31.06-.43.18c-.12.12-.17.26-.17.43s.06.32.17.45c.12.12.26.18.43.18s.31-.06.43-.18c.12-.12.17-.27.17-.45Z"/>
      <path class="cls-1" d="M221.32,371.25h.63v.2h-.63v1.37h-.23v-1.37h-.46v-.2h.46v-.41c0-.18.05-.32.15-.43.1-.11.24-.16.41-.16.1,0,.21.02.32.05l-.03.2c-.09-.02-.18-.03-.25-.03-.11,0-.2.03-.27.1s-.1.16-.1.27v.41Z"/>
      <path class="cls-1" d="M223.91,371.74l-.45.48v.61h-.24v-2.31h.24v1.38l1.33-1.38h.29l-1,1.06,1.12,1.26h-.31l-.98-1.08Z"/>
      <path class="cls-1" d="M227.02,372.04c0,.24-.08.43-.24.6-.16.16-.36.24-.59.24s-.44-.08-.6-.24c-.16-.16-.24-.36-.24-.6s.08-.43.24-.59c.16-.16.36-.24.6-.24s.43.08.59.24c.16.16.24.36.24.59ZM226.79,372.04c0-.17-.06-.31-.17-.43-.12-.12-.26-.18-.43-.18s-.31.06-.43.18c-.12.12-.17.26-.17.43s.06.32.17.45c.12.12.26.18.43.18s.31-.06.43-.18c.12-.12.17-.27.17-.45Z"/>
      <path class="cls-1" d="M227.71,371.25v.27c.15-.21.36-.31.62-.31v.22c-.26,0-.47.13-.62.36v1.03h-.23v-1.57h.23Z"/>
      <path class="cls-1" d="M230.14,372.03c0,.05,0,.08,0,.1h-.01s0,0,0,0h-1.33c.02.16.08.29.19.39.11.1.24.15.4.15.22,0,.38-.08.46-.24h.25c-.04.13-.13.24-.26.32-.13.08-.28.12-.45.12-.24,0-.44-.08-.59-.24-.15-.16-.23-.36-.23-.59s.08-.43.23-.59c.15-.16.35-.24.59-.24.22,0,.41.08.55.23.14.15.21.35.22.59ZM229.37,371.41c-.16,0-.29.05-.39.15-.11.1-.16.23-.18.38h1.11c-.01-.16-.07-.29-.17-.39s-.22-.15-.37-.15Z"/>
      <path class="cls-1" d="M232.13,371.25v1.57h-.23v-.17c-.15.15-.34.22-.57.22s-.41-.08-.58-.24c-.16-.16-.24-.36-.24-.59s.08-.43.24-.58c.16-.16.35-.24.58-.24s.42.07.57.22v-.18h.23ZM231.35,372.67c.23,0,.41-.1.54-.29v-.68c-.13-.19-.31-.29-.54-.29-.17,0-.32.06-.44.18-.12.12-.17.27-.17.44s.06.32.17.44c.12.12.27.18.44.18Z"/>
    </g>
    <line class="cls-3" x1="141.93" y1="382.19" x2="141.93" y2="190.44"/>
    <path class="cls-4" d="M.43.42v191.26h141.37V.42H.43ZM137.04,186.91H5.19V5.19h131.84v181.73Z"/>
    <path class="cls-4" d="M142.06.42v191.26h141.37V.42h-141.37ZM278.67,186.91h-131.84V5.19h131.84v181.73Z"/>
    <path class="cls-4" d="M.43,191.42v191.26h141.37v-191.26H.43ZM137.04,377.91H5.19v-181.73h131.84v181.73Z"/>
    <path class="cls-4" d="M142.06,191.42v191.26h141.37v-191.26h-141.37ZM278.67,377.91h-131.84v-181.73h131.84v181.73Z"/>
  </g>
  <g>
    <path class="cls-1" d="M68.25,415.18h-.56v.77h-.35v-.77h-1.87v-.22l1.06-2.49h.37l-1,2.39h1.44v-1.13h.35v1.13h.56v.31Z"/>
    <path class="cls-1" d="M70.54,414.19c.39.16.58.44.58.84,0,.29-.11.53-.33.71-.22.18-.51.28-.85.28s-.63-.08-.85-.25c-.22-.17-.34-.39-.37-.67h.35c.03.19.12.33.28.44.15.11.35.16.6.16s.45-.06.6-.19.23-.29.23-.49-.08-.37-.22-.49c-.15-.12-.35-.18-.6-.18h-.29v-.3h.29c.21,0,.39-.06.52-.18.13-.12.2-.28.2-.48s-.07-.37-.21-.49c-.14-.12-.32-.18-.55-.18-.21,0-.38.05-.51.16-.14.11-.22.25-.24.43h-.35c.02-.27.14-.49.33-.66.2-.17.45-.25.76-.25.34,0,.61.09.81.27.2.18.3.42.3.71,0,.37-.16.63-.47.79Z"/>
    <path class="cls-1" d="M73.59,414.39v.35h-1.68v-.35h1.68Z"/>
    <path class="cls-1" d="M75.75,413.63c.37,0,.67.11.91.33.24.22.36.5.36.85s-.12.64-.36.87c-.24.23-.54.34-.92.34s-.68-.11-.92-.34c-.24-.23-.36-.52-.36-.86,0-.27.09-.54.28-.8l1.1-1.55h.43l-.84,1.19c.11-.02.21-.04.32-.04ZM76.67,414.83c0-.25-.09-.47-.26-.63-.17-.17-.39-.25-.66-.25s-.5.08-.68.25l-.03.04c-.15.21-.22.41-.22.61,0,.26.09.47.26.64.17.17.39.25.66.25s.49-.08.66-.25c.17-.17.26-.39.26-.65Z"/>
    <path class="cls-1" d="M77.42,416.65l.26-.68c-.11-.03-.16-.09-.16-.19,0-.07.02-.12.07-.17s.1-.07.17-.07.12.02.17.07.07.1.07.17c0,.03-.03.11-.08.23l-.28.64h-.22Z"/>
    <path class="cls-1" d="M82.56,412.48l-1.43,2.23v1.24h-.36v-1.24l-1.44-2.23h.4l1.21,1.89,1.21-1.89h.4Z"/>
    <path class="cls-1" d="M84.67,414.76c0,.08,0,.13,0,.15h-.02s0,0,0,0h-1.99c.03.24.12.43.28.58.16.15.36.22.6.22.34,0,.56-.12.68-.36h.38c-.07.2-.2.36-.39.48-.19.12-.42.18-.68.18-.36,0-.66-.12-.88-.36s-.34-.53-.34-.89.11-.64.34-.88.52-.36.88-.36c.33,0,.61.12.82.35.21.23.32.52.33.88ZM83.51,413.83c-.24,0-.44.08-.59.23-.16.16-.25.35-.27.58h1.67c-.02-.25-.1-.44-.25-.59-.15-.15-.33-.22-.56-.22Z"/>
    <path class="cls-1" d="M87.74,414.77c0,.35-.12.65-.36.89-.24.24-.54.36-.89.36s-.65-.12-.89-.36c-.24-.24-.36-.54-.36-.89s.12-.64.36-.88c.24-.24.54-.36.89-.36s.65.12.89.36.36.54.36.88ZM87.38,414.77c0-.25-.09-.47-.26-.65-.17-.18-.39-.27-.64-.27s-.47.09-.64.27c-.17.18-.26.39-.26.65s.09.48.26.67c.17.18.39.27.64.27s.47-.09.64-.27c.17-.18.26-.41.26-.67Z"/>
    <path class="cls-1" d="M89.64,413.51c.3,0,.54.1.72.3.19.2.28.46.28.78v1.36h-.35v-1.34c0-.24-.07-.43-.19-.57-.13-.14-.3-.2-.52-.2-.33,0-.6.15-.81.44v1.67h-.35v-2.36h.35v.28c.23-.24.52-.36.87-.36Z"/>
    <path class="cls-1" d="M92.62,413.51c.29,0,.54.1.72.3.19.2.28.46.28.78v1.36h-.35v-1.34c0-.24-.06-.43-.19-.57s-.3-.2-.52-.2c-.33,0-.6.15-.81.44v1.67h-.35v-3.62h.35v1.55c.23-.24.52-.36.87-.36Z"/>
    <path class="cls-1" d="M96.49,413.59v2.36h-.35v-.28c-.24.23-.52.35-.87.35-.3,0-.54-.1-.73-.29-.18-.19-.28-.45-.28-.78v-1.36h.35v1.34c0,.24.07.43.2.57s.31.21.52.21c.32,0,.59-.15.81-.44v-1.68h.35Z"/>
    <path class="cls-1" d="M97.85,412.7c0,.09-.04.16-.12.2-.08.04-.16.04-.25,0s-.12-.11-.12-.2c0-.07.03-.12.07-.17.04-.04.1-.07.17-.07s.12.02.17.07c.04.05.07.1.07.17ZM97.79,413.59v2.36h-.35v-2.36h.35Z"/>
    <path class="cls-1" d="M101.6,413.51c.29,0,.52.1.69.29.18.2.27.46.27.78v1.36h-.35v-1.34c0-.25-.06-.43-.18-.57-.12-.13-.28-.2-.49-.2-.32,0-.58.15-.76.45.02.09.03.19.03.3v1.36h-.35v-1.34c0-.25-.06-.43-.18-.57-.12-.13-.29-.2-.5-.2-.29,0-.53.14-.72.43v1.68h-.35v-2.36h.35v.27c.21-.23.47-.34.79-.34.36,0,.63.15.81.44.24-.29.56-.44.94-.44Z"/>
    <path class="cls-1" d="M105.63,413.59v2.36h-.35v-.26c-.23.22-.51.33-.85.33s-.62-.12-.86-.36c-.24-.24-.36-.53-.36-.88s.12-.64.36-.88c.24-.24.53-.36.86-.36s.62.11.85.33v-.27h.35ZM104.47,415.71c.34,0,.61-.14.81-.43v-1.02c-.2-.29-.47-.43-.81-.43-.26,0-.48.09-.65.28-.17.18-.26.4-.26.66s.09.48.26.66c.18.18.4.28.65.28Z"/>
    <path class="cls-1" d="M107.97,415.64l.06.3c-.18.05-.35.08-.51.08-.54,0-.82-.31-.82-.92v-1.21h-.63v-.3h.63v-.87h.35v.87h.89v.3h-.89v1.21c0,.21.04.36.13.46.08.09.22.14.4.14.12,0,.25-.02.39-.06Z"/>
    <path class="cls-1" d="M110.16,414.39v.35h-1.68v-.35h1.68Z"/>
    <path class="cls-1" d="M111.53,413.59v.41c.23-.31.54-.47.92-.47v.33c-.39,0-.7.19-.92.55v1.54h-.35v-2.36h.35Z"/>
    <path class="cls-1" d="M115.31,414.77c0,.35-.12.65-.36.89-.24.24-.54.36-.89.36s-.65-.12-.89-.36c-.24-.24-.36-.54-.36-.89s.12-.64.36-.88.54-.36.89-.36.65.12.89.36c.24.24.36.54.36.88ZM114.96,414.77c0-.25-.09-.47-.26-.65-.17-.18-.39-.27-.64-.27s-.47.09-.64.27c-.17.18-.26.39-.26.65s.09.48.26.67c.17.18.39.27.64.27s.47-.09.64-.27c.17-.18.26-.41.26-.67Z"/>
    <path class="cls-1" d="M115.69,416.65l.26-.68c-.11-.03-.16-.09-.16-.19,0-.07.02-.12.07-.17s.1-.07.17-.07.12.02.17.07.07.1.07.17c0,.03-.03.11-.08.23l-.28.64h-.22Z"/>
    <path class="cls-1" d="M119.54,412.4c.36,0,.67.09.92.26.25.17.39.43.43.75h-.36c-.09-.47-.41-.7-.97-.7-.27,0-.48.06-.64.18s-.24.28-.24.48c0,.3.24.5.71.59l.53.1c.64.12.96.42.96.9,0,.32-.12.57-.36.77-.24.19-.55.29-.93.29-.42,0-.75-.1-1-.31-.25-.21-.4-.5-.44-.87h.36c.04.28.16.49.35.64.19.15.44.22.75.22.28,0,.5-.06.66-.19s.25-.29.25-.5c0-.31-.22-.5-.65-.59l-.6-.12c-.64-.12-.96-.43-.96-.91,0-.3.11-.54.34-.72.23-.18.53-.28.9-.28Z"/>
    <path class="cls-1" d="M123.83,414.76c0,.08,0,.13,0,.15h-.02s0,0,0,0h-2c.03.24.12.43.28.58s.36.22.6.22c.34,0,.56-.12.68-.36h.38c-.07.2-.2.36-.39.48-.19.12-.42.18-.68.18-.36,0-.65-.12-.88-.36s-.34-.53-.34-.89.11-.64.34-.88.52-.36.88-.36c.33,0,.61.12.82.35.21.23.32.52.33.88ZM122.67,413.83c-.24,0-.44.08-.59.23-.16.16-.25.35-.27.58h1.67c-.02-.25-.1-.44-.25-.59-.15-.15-.33-.22-.56-.22Z"/>
    <path class="cls-1" d="M126.89,414.77c0,.35-.12.65-.36.89-.24.24-.54.36-.89.36s-.65-.12-.89-.36c-.24-.24-.36-.54-.36-.89s.12-.64.36-.88.54-.36.89-.36.65.12.89.36c.24.24.36.54.36.88ZM126.54,414.77c0-.25-.09-.47-.26-.65-.17-.18-.39-.27-.64-.27s-.47.09-.64.27c-.17.18-.26.39-.26.65s.09.48.26.67c.17.18.39.27.64.27s.47-.09.64-.27c.17-.18.26-.41.26-.67Z"/>
    <path class="cls-1" d="M129.87,412.33v3.62h-.35v-.26c-.22.21-.51.32-.85.32s-.62-.12-.86-.36-.36-.53-.36-.88.12-.64.36-.88.53-.36.86-.36.63.11.85.32v-1.53h.35ZM128.71,415.7c.34,0,.61-.14.81-.43v-1.01c-.2-.29-.47-.43-.81-.43-.26,0-.48.09-.65.28-.17.18-.26.4-.26.66s.09.47.26.66c.18.18.4.28.65.28Z"/>
    <path class="cls-1" d="M133.03,413.59v2.36h-.35v-.26c-.23.22-.51.33-.85.33s-.62-.12-.86-.36-.36-.53-.36-.88.12-.64.36-.88.53-.36.86-.36.62.11.85.33v-.27h.35ZM131.87,415.71c.34,0,.61-.14.81-.43v-1.02c-.2-.29-.47-.43-.81-.43-.26,0-.48.09-.65.28-.17.18-.26.4-.26.66s.09.48.26.66c.18.18.4.28.65.28Z"/>
    <path class="cls-1" d="M136.12,414.76c0,.08,0,.13,0,.15h-.02s0,0,0,0h-2c.03.24.12.43.28.58.16.15.36.22.6.22.34,0,.56-.12.68-.36h.38c-.07.2-.2.36-.39.48-.19.12-.42.18-.68.18-.36,0-.66-.12-.88-.36-.23-.24-.34-.53-.34-.89s.11-.64.34-.88c.23-.24.52-.36.88-.36.33,0,.61.12.82.35.21.23.32.52.33.88ZM134.96,413.83c-.24,0-.44.08-.59.23-.16.16-.25.35-.27.58h1.67c-.02-.25-.1-.44-.25-.59-.15-.15-.33-.22-.56-.22Z"/>
    <path class="cls-1" d="M139.69,413.51c.29,0,.52.1.69.29.18.2.27.46.27.78v1.36h-.35v-1.34c0-.25-.06-.43-.18-.57-.12-.13-.28-.2-.49-.2-.32,0-.58.15-.76.45.02.09.03.19.03.3v1.36h-.35v-1.34c0-.25-.06-.43-.18-.57-.12-.13-.29-.2-.5-.2-.29,0-.53.14-.72.43v1.68h-.35v-2.36h.35v.27c.21-.23.47-.34.79-.34.36,0,.63.15.81.44.24-.29.56-.44.94-.44Z"/>
    <path class="cls-1" d="M143.53,413.59v2.36h-.35v-.28c-.24.23-.52.35-.87.35-.3,0-.54-.1-.73-.29-.18-.19-.28-.45-.28-.78v-1.36h.35v1.34c0,.24.07.43.2.57s.3.21.52.21c.32,0,.59-.15.81-.44v-1.68h.35Z"/>
    <path class="cls-1" d="M145.61,413.51c.3,0,.54.1.72.3s.28.46.28.78v1.36h-.35v-1.34c0-.24-.07-.43-.19-.57s-.3-.2-.52-.2c-.33,0-.6.15-.81.44v1.67h-.35v-2.36h.35v.28c.23-.24.52-.36.87-.36Z"/>
    <path class="cls-1" d="M149.22,414.39v.35h-1.68v-.35h1.68Z"/>
    <path class="cls-1" d="M152.52,413.59v2.43c0,.36-.11.64-.33.85-.22.21-.5.32-.85.32-.3,0-.56-.08-.78-.25s-.34-.37-.39-.63h.36c.03.17.12.3.27.4.14.1.32.15.53.15.25,0,.45-.08.6-.23.15-.15.23-.36.23-.61v-.41c-.23.22-.53.34-.88.34s-.62-.12-.85-.35c-.23-.24-.34-.52-.34-.86,0-.35.11-.65.34-.88.23-.23.51-.35.85-.35s.65.11.88.34v-.25h.35ZM151.33,415.64c.36,0,.64-.15.84-.44v-.94c-.2-.3-.48-.44-.84-.44-.25,0-.47.09-.63.27-.17.18-.25.4-.25.66,0,.25.08.46.25.64.17.18.38.27.63.27Z"/>
    <path class="cls-1" d="M155.49,413.59v2.36h-.35v-.28c-.23.23-.52.35-.87.35-.3,0-.54-.1-.73-.29-.18-.19-.28-.45-.28-.78v-1.36h.35v1.34c0,.24.06.43.2.57.13.14.31.21.52.21.32,0,.59-.15.81-.44v-1.68h.35Z"/>
    <path class="cls-1" d="M156.13,416.65l.25-.68c-.11-.03-.16-.09-.16-.19,0-.07.02-.12.07-.17.04-.05.1-.07.17-.07s.12.02.17.07c.04.05.07.1.07.17,0,.03-.03.11-.08.23l-.28.64h-.22Z"/>
    <path class="cls-1" d="M161.37,412.4c.36,0,.67.09.92.26.25.17.39.43.43.75h-.36c-.08-.47-.41-.7-.97-.7-.26,0-.48.06-.64.18s-.24.28-.24.48c0,.3.24.5.71.59l.53.1c.64.12.96.42.96.9,0,.32-.12.57-.36.77-.24.19-.55.29-.93.29-.42,0-.75-.1-1-.31-.25-.21-.4-.5-.44-.87h.36c.04.28.16.49.35.64.19.15.44.22.75.22.28,0,.5-.06.66-.19.16-.12.25-.29.25-.5,0-.31-.22-.5-.65-.59l-.6-.12c-.64-.12-.96-.43-.96-.91,0-.3.11-.54.34-.72.23-.18.53-.28.9-.28Z"/>
    <path class="cls-1" d="M165.65,414.76c0,.08,0,.13,0,.15h-.02s0,0,0,0h-2c.03.24.12.43.28.58.16.15.36.22.6.22.34,0,.56-.12.68-.36h.38c-.07.2-.2.36-.39.48-.19.12-.42.18-.68.18-.36,0-.66-.12-.88-.36-.23-.24-.34-.53-.34-.89s.11-.64.34-.88c.23-.24.52-.36.88-.36.33,0,.61.12.82.35.21.23.32.52.33.88ZM164.49,413.83c-.24,0-.44.08-.59.23-.16.16-.25.35-.27.58h1.67c-.02-.25-.1-.44-.25-.59-.15-.15-.33-.22-.56-.22Z"/>
    <path class="cls-1" d="M168.71,414.77c0,.35-.12.65-.36.89-.24.24-.54.36-.89.36s-.65-.12-.89-.36c-.24-.24-.36-.54-.36-.89s.12-.64.36-.88c.24-.24.54-.36.89-.36s.65.12.89.36c.24.24.36.54.36.88ZM168.36,414.77c0-.25-.09-.47-.26-.65-.17-.18-.39-.27-.64-.27s-.47.09-.64.27c-.17.18-.26.39-.26.65s.09.48.26.67c.17.18.39.27.64.27s.47-.09.64-.27c.17-.18.26-.41.26-.67Z"/>
    <path class="cls-1" d="M171.57,413.59v2.36h-.35v-.28c-.24.23-.52.35-.87.35-.3,0-.54-.1-.73-.29-.18-.19-.28-.45-.28-.78v-1.36h.35v1.34c0,.24.07.43.2.57s.31.21.52.21c.32,0,.59-.15.81-.44v-1.68h.35Z"/>
    <path class="cls-1" d="M172.77,412.33v3.62h-.35v-3.62h.35Z"/>
    <path class="cls-1" d="M173.41,416.65l.25-.68c-.11-.03-.16-.09-.16-.19,0-.07.02-.12.07-.17.04-.05.1-.07.17-.07s.12.02.17.07c.04.05.07.1.07.17,0,.03-.03.11-.08.23l-.28.64h-.22Z"/>
    <path class="cls-1" d="M177.3,414.69h-.86v1.26h-.36v-3.47h1.29c.39,0,.71.1.95.3.25.2.37.47.37.81,0,.28-.09.51-.26.7-.17.19-.41.31-.71.37l1.11,1.29h-.45l-1.08-1.26ZM176.43,414.36h.92c.29,0,.52-.07.7-.21s.27-.33.27-.56-.09-.42-.27-.56c-.18-.14-.41-.21-.7-.21h-.92v1.55Z"/>
    <path class="cls-1" d="M181.49,414.76c0,.08,0,.13,0,.15h-.02s0,0,0,0h-2c.03.24.12.43.28.58s.36.22.6.22c.34,0,.56-.12.68-.36h.38c-.07.2-.2.36-.39.48-.19.12-.42.18-.68.18-.36,0-.65-.12-.88-.36-.23-.24-.34-.53-.34-.89s.11-.64.34-.88c.23-.24.52-.36.88-.36.33,0,.61.12.82.35.21.23.32.52.33.88ZM180.34,413.83c-.24,0-.44.08-.59.23-.16.16-.25.35-.27.58h1.67c-.02-.25-.1-.44-.25-.59-.15-.15-.33-.22-.56-.22Z"/>
    <path class="cls-1" d="M183.43,413.53c.33,0,.62.12.86.36s.36.53.36.88-.12.64-.36.88-.53.36-.86.36-.63-.11-.86-.33v1.53h-.35v-3.62h.35v.27c.23-.22.52-.33.86-.33ZM183.39,415.71c.26,0,.47-.09.65-.28.18-.18.27-.4.27-.66s-.09-.48-.27-.66c-.18-.18-.4-.28-.65-.28-.34,0-.61.15-.81.44v1c.2.29.47.44.81.44Z"/>
    <path class="cls-1" d="M187.5,413.59v2.36h-.35v-.28c-.24.23-.52.35-.87.35-.3,0-.54-.1-.73-.29-.18-.19-.28-.45-.28-.78v-1.36h.35v1.34c0,.24.07.43.2.57s.31.21.52.21c.32,0,.59-.15.81-.44v-1.68h.35Z"/>
    <path class="cls-1" d="M189.57,413.53c.33,0,.62.12.86.36.24.24.36.53.36.88s-.12.64-.36.88c-.24.24-.53.36-.86.36s-.63-.11-.86-.33v.27h-.35v-3.62h.35v1.53c.23-.22.51-.33.86-.33ZM189.53,415.7c.25,0,.47-.09.65-.28.18-.18.26-.4.26-.66s-.09-.48-.26-.66c-.18-.18-.4-.28-.65-.28-.34,0-.62.15-.81.44v.99c.2.29.47.44.81.44Z"/>
    <path class="cls-1" d="M191.85,412.33v3.62h-.35v-3.62h.35Z"/>
    <path class="cls-1" d="M193.19,412.7c0,.09-.04.16-.12.2s-.16.04-.25,0-.12-.11-.12-.2c0-.07.03-.12.07-.17s.1-.07.17-.07.12.02.17.07.07.1.07.17ZM193.13,413.59v2.36h-.35v-2.36h.35Z"/>
    <path class="cls-1" d="M195.13,415.69c.19,0,.35-.05.49-.15s.22-.23.26-.39h.36c-.05.25-.17.46-.38.62-.2.16-.44.23-.73.23-.35,0-.65-.12-.88-.36-.23-.24-.35-.54-.35-.89s.12-.64.35-.88c.23-.24.53-.36.88-.36.28,0,.52.08.73.24.21.16.33.36.38.61h-.36c-.04-.16-.12-.29-.26-.38-.13-.1-.3-.15-.49-.15-.26,0-.47.09-.63.26-.16.18-.24.4-.24.65s.08.48.24.66c.16.18.38.27.63.27Z"/>
    <path class="cls-1" d="M200.74,414.77c0,.35-.12.65-.36.89-.24.24-.54.36-.89.36s-.65-.12-.89-.36c-.24-.24-.36-.54-.36-.89s.12-.64.36-.88.54-.36.89-.36.65.12.89.36c.24.24.36.54.36.88ZM200.38,414.77c0-.25-.09-.47-.26-.65-.17-.18-.39-.27-.64-.27s-.47.09-.64.27c-.17.18-.26.39-.26.65s.09.48.26.67c.17.18.39.27.64.27s.47-.09.64-.27c.17-.18.26-.41.26-.67Z"/>
    <path class="cls-1" d="M202.02,413.59h.95v.3h-.95v2.06h-.35v-2.06h-.69v-.3h.69v-.62c0-.27.08-.48.23-.65s.36-.24.61-.24c.15,0,.32.02.49.07l-.05.3c-.13-.03-.26-.05-.38-.05-.17,0-.3.05-.4.16-.1.1-.15.24-.15.41v.62Z"/>
    <path class="cls-1" d="M205.91,414.33l-.68.71v.91h-.36v-3.47h.36v2.06l1.99-2.06h.45l-1.5,1.58,1.68,1.89h-.46l-1.47-1.62Z"/>
    <path class="cls-1" d="M210.58,414.77c0,.35-.12.65-.36.89s-.54.36-.89.36-.65-.12-.89-.36-.36-.54-.36-.89.12-.64.36-.88c.24-.24.54-.36.89-.36s.65.12.89.36c.24.24.36.54.36.88ZM210.23,414.77c0-.25-.09-.47-.26-.65-.17-.18-.39-.27-.64-.27s-.47.09-.64.27c-.17.18-.26.39-.26.65s.09.48.26.67c.17.18.39.27.64.27s.47-.09.64-.27c.17-.18.26-.41.26-.67Z"/>
    <path class="cls-1" d="M211.61,413.59v.41c.23-.31.54-.47.92-.47v.33c-.39,0-.7.19-.92.55v1.54h-.35v-2.36h.35Z"/>
    <path class="cls-1" d="M215.25,414.76c0,.08,0,.13,0,.15h-.02s0,0,0,0h-2c.03.24.12.43.28.58.16.15.36.22.6.22.34,0,.56-.12.68-.36h.38c-.07.2-.2.36-.39.48-.19.12-.42.18-.68.18-.36,0-.66-.12-.88-.36-.23-.24-.34-.53-.34-.89s.11-.64.34-.88c.23-.24.52-.36.88-.36.33,0,.61.12.82.35.21.23.32.52.33.88ZM214.09,413.83c-.24,0-.44.08-.59.23-.16.16-.25.35-.27.58h1.67c-.02-.25-.1-.44-.25-.59-.15-.15-.33-.22-.56-.22Z"/>
    <path class="cls-1" d="M218.23,413.59v2.36h-.35v-.26c-.23.22-.51.33-.85.33s-.62-.12-.86-.36c-.24-.24-.36-.53-.36-.88s.12-.64.36-.88c.24-.24.53-.36.86-.36s.62.11.85.33v-.27h.35ZM217.07,415.71c.34,0,.61-.14.81-.43v-1.02c-.2-.29-.47-.43-.81-.43-.26,0-.48.09-.65.28-.17.18-.26.4-.26.66s.09.48.26.66c.18.18.4.28.65.28Z"/>
  </g>
  <g>
    <g>
      <path class="cls-1" d="M124.22,395.46c0,1.42-.71,2.26-1.9,2.26s-1.8-.79-1.8-2.13v-3.89h-.84v3.73c0,1.71.86,2.58,2.56,2.58,1.38,0,2.25-.99,2.25-2.57v-3.74h-.27v3.76Z"/>
      <path class="cls-1" d="M127.07,391.7h-1.49v6.26h.84l.02-2.91h.39c.83,0,1.45-.2,1.84-.59.3-.3.45-.71.45-1.21,0-.97-.77-1.55-2.04-1.55ZM127.92,394.39c-.25.26-.63.39-1.08.39h-.41l-.02-2.81h.68c.77,0,1.2.46,1.21,1.28,0,.48-.13.87-.39,1.14Z"/>
      <rect class="cls-1" x="129.86" y="391.7" width=".84" height="6.26"/>
      <path class="cls-1" d="M133.79,391.7h-2.08v6.26h2.05c1.92,0,3.37-1.36,3.37-3.15s-1.34-3.11-3.34-3.11ZM136.26,394.81c0,1.75-.99,2.88-2.52,2.88h-1.2v-5.72h1.26c1.56,0,2.45,1.03,2.45,2.84Z"/>
      <path class="cls-1" d="M140.78,391.65c-1.83,0-3.2,1.37-3.2,3.19s1.35,3.19,3.2,3.19,3.19-1.37,3.19-3.19-1.37-3.18-3.19-3.18ZM140.78,391.92c1.44,0,2.33,1.12,2.33,2.92s-.89,2.92-2.33,2.92-2.35-1.12-2.35-2.92.9-2.92,2.35-2.92Z"/>
      <path class="cls-1" d="M148.59,394.04c-.79-.23-1.47-.42-1.47-1.16,0-.56.58-.96,1.4-.96h.05c.93.02,1.42.53,1.42,1.04,0,.18-.03.32-.11.43l-.05.08.23.14.05-.07c.09-.15.15-.36.15-.57,0-.63-.59-1.31-1.7-1.31-1.16,0-1.94.64-1.94,1.59,0,1.14.95,1.42,1.79,1.66.8.23,1.56.45,1.56,1.34,0,1.12-.9,1.51-1.66,1.51-1.07,0-1.79-.67-1.79-1.66v-.09h-.27v.09c0,1.15.83,1.93,2.07,1.93,1.08,0,2.17-.68,2.17-2.21,0-1.23-1.01-1.52-1.91-1.78Z"/>
      <polygon class="cls-1" points="152.06 394.3 154.41 394.3 154.41 394.03 152.06 394.03 152.06 391.97 154.81 391.97 154.81 391.7 151.23 391.7 151.23 397.96 154.89 397.96 154.89 397.69 152.06 397.69 152.06 394.3"/>
      <path class="cls-1" d="M158.24,391.65c-1.82,0-3.2,1.37-3.2,3.19s1.35,3.19,3.2,3.19,3.19-1.37,3.19-3.19-1.37-3.18-3.19-3.18ZM158.24,391.92c1.44,0,2.33,1.12,2.33,2.92s-.89,2.92-2.33,2.92-2.35-1.12-2.35-2.92.9-2.92,2.35-2.92Z"/>
      <path class="cls-1" d="M166.8,395.46c0,1.42-.71,2.26-1.9,2.26s-1.8-.79-1.8-2.13v-3.89h-.84v3.73c0,1.71.86,2.58,2.56,2.58,1.39,0,2.25-.99,2.25-2.57v-3.74h-.27v3.76Z"/>
      <polygon class="cls-1" points="168.99 397.69 168.99 391.7 168.16 391.7 168.16 397.96 171.83 397.96 171.83 397.69 168.99 397.69"/>
      <path class="cls-1" d="M118.28,397.35s-.08.05-.1.11c-.11.21-.22.37-.34.5-.1.11-.21.2-.33.26-.15.1-.36.16-.62.16-.48,0-1.04-.19-1.45-.36h0c1.82,0,3.19-1.37,3.19-3.19s-1.37-3.18-3.19-3.18-3.2,1.37-3.2,3.19c0,1.04.44,1.97,1.21,2.55-.33.24-.67.78-.69.8l-.02.03s-.06.1-.06.15c0,.12.1.23.23.23s.22-.09.23-.2c0-.02.02-.05.03-.09h0s0-.03,0-.03c.01-.05.03-.09.04-.13l.02-.05c.03-.07.06-.14.1-.21l-.08-.04h.09s.04-.05.07-.09c.1-.12.2-.18.26-.21.19.12.4.21.63.29.09.08.19.15.28.22.05.04.11.08.18.13l.04.02c.07.05.15.1.23.15.07.04.15.09.22.13.03.02.07.04.1.05l.1.05c.44.22.86.33,1.25.33,1.36,0,1.9-1.35,1.91-1.36l.03-.07-.33-.17-.04.03ZM115.44,391.92c1.44,0,2.33,1.12,2.33,2.92s-.89,2.92-2.33,2.92-2.35-1.12-2.35-2.92.9-2.92,2.35-2.92Z"/>
    </g>
    <g>
      <path class="cls-1" d="M145.66,399.62h1.77c1.03,0,1.87.42,1.88,1.39,0,1.1-.76,1.63-2.73,1.63h-.2l-.02,3.47h-.71v-6.49ZM146.6,402.54c1.56,0,2.07-.58,2.06-1.53,0-.84-.43-1.29-1.38-1.29h-.9l.02,2.82h.21ZM148.54,403.82c-.39-.77-.49-1.17-1.35-1.17h-.61v-.1h.67c1.47,0,1.63.49,1.99,1.2l1.22,2.37h-.75l-1.17-2.29Z"/>
      <path class="cls-1" d="M150.36,402.87c0-1.89,1.43-3.31,3.32-3.31s3.31,1.46,3.31,3.3-1.39,3.31-3.31,3.31-3.32-1.42-3.32-3.31ZM156.26,402.87c0-1.93-.96-3.2-2.58-3.2s-2.6,1.27-2.6,3.2.97,3.2,2.6,3.2,2.58-1.27,2.58-3.2Z"/>
      <path class="cls-1" d="M157.65,402.87c0-1.89,1.43-3.31,3.32-3.31s3.31,1.46,3.31,3.3-1.39,3.31-3.31,3.31-3.32-1.42-3.32-3.31ZM163.56,402.87c0-1.93-.96-3.2-2.58-3.2s-2.6,1.27-2.6,3.2.97,3.2,2.6,3.2,2.58-1.27,2.58-3.2Z"/>
      <path class="cls-1" d="M165.07,399.62h.23v.36l-.23-.36ZM165.28,399.62h.59l2.47,4.33h-.04l2.65-4.33h.49v6.49h-.71v-6.12l.19-.14-2.86,4.67h-.21l-2.57-4.54.08-.03v6.15h-.1v-6.49Z"/>
    </g>
    <path class="cls-1" d="M118.07,405.64s-.08.05-.1.11c-.11.21-.22.37-.34.5-.1.11-.21.2-.33.26-.15.1-.36.16-.62.16-.48,0-1.04-.19-1.45-.36h0c1.82,0,3.19-1.37,3.19-3.19s-1.37-3.18-3.19-3.18-3.2,1.37-3.2,3.19c0,1.04.44,1.97,1.21,2.55-.33.24-.67.78-.69.8l-.02.03s-.06.1-.06.15c0,.12.1.23.23.23s.22-.09.23-.2c0-.02.02-.05.03-.09h0s0-.03,0-.03c.01-.05.03-.09.04-.13l.02-.05c.03-.07.06-.14.1-.21l-.08-.04h.09s.04-.05.07-.09c.1-.12.2-.18.26-.21.19.12.4.21.63.29.09.08.19.15.28.22.05.04.11.08.18.13l.04.02c.07.05.15.1.23.15.07.04.15.09.22.13.03.02.07.04.1.05l.1.05c.44.22.86.33,1.25.33,1.36,0,1.9-1.35,1.91-1.36l.03-.07-.33-.17-.04.03ZM115.23,400.2c1.44,0,2.33,1.12,2.33,2.92s-.89,2.92-2.33,2.92-2.35-1.12-2.35-2.92.9-2.92,2.35-2.92Z"/>
    <line class="cls-5 logo_line" x1="121.91" y1="403.57" x2="141.91" y2="403.57"/>
  </g>
</svg>