<?xml version="1.0" encoding="utf-8"?>
<!-- Generator: Adobe Illustrator 28.5.0, SVG Export Plug-In . SVG Version: 9.03 Build 54727)  -->
<svg version="1.0" xmlns="http://www.w3.org/2000/svg" xmlns:xlink="http://www.w3.org/1999/xlink" x="0px" y="0px"
	 viewBox="0 0 283.46 425.2" style="enable-background:new 0 0 283.46 425.2;" xml:space="preserve">
<style type="text/css">
	.st0{fill:#FFFFFF;stroke:#000000;stroke-width:0.1;stroke-miterlimit:10;}
	.st1{fill:none;stroke:#C9CACA;stroke-width:0.2;stroke-miterlimit:10;}
	.st2{clip-path:url(#SVGID_00000147911258059064652420000004509184770818824840_);}
</style>
<g id="logo">
	<rect x="5.59" y="212.22" class="st0" width="68.03" height="206.93"/>
	<rect x="209.84" y="5.41" class="st0" width="68.03" height="206.93"/>
	<g>
		<path d="M248.32,91.38c-1.42,0-2.26-0.71-2.26-1.9c0-1.13,0.79-1.8,2.13-1.8h3.89v-0.84h-3.73c-1.71,0-2.58,0.86-2.58,2.56
			c0,1.38,0.99,2.25,2.57,2.25h3.74v-0.27H248.32z"/>
		<path d="M252.08,94.22v-1.49h-6.26v0.84l2.91,0.02v0.39c0,0.83,0.2,1.45,0.59,1.84c0.3,0.3,0.71,0.45,1.21,0.45
			C251.5,96.25,252.08,95.49,252.08,94.22z M249.39,95.07c-0.26-0.25-0.39-0.63-0.39-1.08v-0.41l2.81-0.02v0.68
			c0,0.77-0.46,1.2-1.28,1.21C250.05,95.47,249.65,95.33,249.39,95.07z"/>
		<rect x="245.82" y="97.01" width="6.26" height="0.84"/>
		<path d="M252.08,100.94v-2.08h-6.26v2.05c0,1.92,1.36,3.37,3.15,3.37C250.83,104.28,252.08,102.94,252.08,100.94z M248.97,103.41
			c-1.75,0-2.88-0.99-2.88-2.52v-1.2h5.72v1.26C251.81,102.52,250.78,103.41,248.97,103.41z"/>
		<path d="M252.14,107.93c0-1.83-1.37-3.2-3.19-3.2c-1.85,0-3.19,1.35-3.19,3.2c0,1.82,1.37,3.19,3.19,3.19
			C250.77,111.12,252.14,109.75,252.14,107.93z M251.87,107.93c0,1.44-1.12,2.33-2.92,2.33c-1.8,0-2.92-0.89-2.92-2.33
			c0-1.45,1.12-2.35,2.92-2.35C250.75,105.58,251.87,106.48,251.87,107.93z"/>
		<path d="M249.75,115.74c0.23-0.79,0.42-1.47,1.16-1.47c0.56,0,0.96,0.58,0.96,1.4l0,0.05c-0.01,0.93-0.53,1.42-1.04,1.42
			c-0.18,0-0.32-0.03-0.43-0.11l-0.08-0.05l-0.14,0.23l0.07,0.05c0.15,0.09,0.36,0.15,0.57,0.15c0.63,0,1.31-0.59,1.31-1.7
			c0-1.16-0.64-1.94-1.59-1.94c-1.14,0-1.42,0.95-1.66,1.79c-0.23,0.8-0.45,1.56-1.34,1.56c-1.12,0-1.51-0.9-1.51-1.66
			c0.01-1.07,0.67-1.79,1.66-1.79h0.09v-0.27h-0.09c-1.15,0-1.93,0.83-1.93,2.07c0,1.08,0.68,2.17,2.21,2.17
			C249.2,117.65,249.49,116.63,249.75,115.74z"/>
		<polygon points="249.48,119.22 249.48,121.57 249.75,121.57 249.75,119.22 251.81,119.22 251.81,121.96 252.08,121.96 
			252.08,118.38 245.82,118.38 245.82,122.04 246.09,122.04 246.09,119.22 		"/>
		<path d="M252.14,125.39c0-1.82-1.37-3.2-3.19-3.2c-1.85,0-3.19,1.35-3.19,3.2c0,1.82,1.37,3.19,3.19,3.19
			C250.77,128.58,252.14,127.21,252.14,125.39z M251.87,125.39c0,1.44-1.12,2.33-2.92,2.33c-1.8,0-2.92-0.89-2.92-2.33
			c0-1.45,1.12-2.35,2.92-2.35C250.75,123.04,251.87,123.94,251.87,125.39z"/>
		<path d="M248.32,133.95c-1.42,0-2.26-0.71-2.26-1.9c0-1.13,0.79-1.8,2.13-1.8h3.89v-0.84h-3.73c-1.71,0-2.58,0.86-2.58,2.56
			c0,1.39,0.99,2.25,2.57,2.25h3.74v-0.27H248.32z"/>
		<polygon points="246.09,136.14 252.08,136.14 252.08,135.31 245.82,135.31 245.82,138.99 246.09,138.99 		"/>
		<path d="M246.43,85.43c-0.02-0.03-0.05-0.08-0.11-0.1c-0.21-0.11-0.37-0.22-0.5-0.34c-0.11-0.1-0.2-0.21-0.26-0.33
			c-0.1-0.15-0.16-0.36-0.16-0.62c0-0.48,0.19-1.04,0.36-1.45c0,0,0,0,0,0c0,1.82,1.37,3.19,3.19,3.19c1.81,0,3.18-1.37,3.18-3.19
			c0-1.83-1.37-3.2-3.19-3.2c-1.04,0-1.97,0.44-2.55,1.21c-0.24-0.33-0.78-0.67-0.8-0.69l-0.03-0.02c-0.04-0.04-0.1-0.06-0.15-0.06
			c-0.12,0-0.23,0.1-0.23,0.23c0,0.12,0.09,0.22,0.2,0.23c0.02,0.01,0.05,0.02,0.09,0.03l0,0l0.03,0.01
			c0.05,0.01,0.09,0.03,0.13,0.04l0.05,0.02c0.07,0.03,0.14,0.06,0.21,0.1l0.04-0.08l-0.01,0.09c0.03,0.02,0.06,0.04,0.11,0.07
			c0.12,0.1,0.18,0.2,0.21,0.26c-0.12,0.19-0.21,0.4-0.29,0.63c-0.08,0.09-0.15,0.19-0.22,0.28c-0.04,0.05-0.08,0.11-0.13,0.18
			l-0.02,0.04c-0.05,0.07-0.1,0.15-0.15,0.23c-0.04,0.07-0.09,0.15-0.13,0.22c-0.02,0.03-0.04,0.07-0.05,0.1l-0.05,0.1
			c-0.22,0.44-0.33,0.86-0.33,1.25c0,1.36,1.35,1.9,1.36,1.91l0.07,0.03l0.17-0.33L246.43,85.43z M251.87,82.59
			c0,1.44-1.12,2.33-2.92,2.33c-1.8,0-2.92-0.89-2.92-2.33c0-1.45,1.12-2.35,2.92-2.35C250.75,80.24,251.87,81.14,251.87,82.59z"/>
	</g>
	<g>
		<path d="M239.69,65.32v-0.63h-0.86V64.3h0.86v-2.1h0.25l2.8,1.19v0.42l-2.7-1.13v1.63h1.27v0.39h-1.27v0.63H239.69z"/>
		<path d="M240.81,67.9c-0.18,0.44-0.49,0.65-0.94,0.65c-0.33,0-0.59-0.12-0.8-0.37c-0.21-0.25-0.31-0.57-0.31-0.96
			c0-0.39,0.09-0.71,0.28-0.96s0.44-0.38,0.75-0.42v0.4c-0.21,0.03-0.38,0.14-0.5,0.31c-0.12,0.17-0.18,0.4-0.18,0.67
			c0,0.28,0.07,0.51,0.21,0.68c0.14,0.17,0.32,0.26,0.55,0.26c0.23,0,0.41-0.08,0.55-0.25c0.14-0.17,0.21-0.39,0.21-0.67v-0.32h0.33
			v0.32c0,0.24,0.07,0.44,0.2,0.58c0.14,0.15,0.32,0.22,0.54,0.22c0.23,0,0.41-0.08,0.55-0.23c0.14-0.15,0.21-0.36,0.21-0.62
			c0-0.23-0.06-0.43-0.18-0.58c-0.12-0.15-0.28-0.24-0.49-0.27v-0.4c0.31,0.03,0.55,0.15,0.74,0.38c0.19,0.22,0.28,0.51,0.28,0.86
			c0,0.38-0.1,0.68-0.3,0.91s-0.47,0.34-0.8,0.34C241.29,68.44,240.99,68.26,240.81,67.9z"/>
		<path d="M240.59,71.33h-0.4v-1.89h0.4V71.33z"/>
		<path d="M241.44,73.77c0,0.41-0.12,0.76-0.37,1.03c-0.25,0.27-0.57,0.41-0.96,0.41s-0.72-0.14-0.98-0.41
			c-0.26-0.27-0.38-0.61-0.38-1.03c0-0.42,0.12-0.76,0.38-1.03c0.26-0.27,0.58-0.41,0.97-0.41c0.3,0,0.6,0.1,0.9,0.32l1.74,1.23
			v0.48l-1.34-0.94C241.43,73.54,241.44,73.65,241.44,73.77z M240.09,74.81c0.29,0,0.52-0.1,0.71-0.29
			c0.19-0.19,0.28-0.44,0.28-0.75c0-0.31-0.09-0.57-0.28-0.76l-0.04-0.03c-0.23-0.16-0.46-0.25-0.68-0.25
			c-0.29,0-0.53,0.1-0.72,0.29c-0.19,0.19-0.28,0.44-0.28,0.75c0,0.31,0.09,0.56,0.28,0.75C239.55,74.71,239.8,74.81,240.09,74.81z"
			/>
		<path d="M238.04,75.65l0.76,0.29c0.04-0.12,0.11-0.18,0.22-0.18c0.07,0,0.13,0.03,0.19,0.08c0.05,0.05,0.08,0.12,0.08,0.19
			s-0.03,0.14-0.08,0.19c-0.05,0.05-0.11,0.08-0.19,0.08c-0.04,0-0.12-0.03-0.26-0.09l-0.72-0.31V75.65z"/>
		<path d="M242.74,81.43l-2.51-1.61h-1.39v-0.41h1.39l2.51-1.62v0.45l-2.13,1.37l2.13,1.37V81.43z"/>
		<path d="M240.17,83.81c-0.09,0-0.14,0-0.17-0.01l0.01-0.02H240v-2.25c-0.27,0.03-0.49,0.14-0.66,0.32
			c-0.17,0.18-0.25,0.41-0.25,0.68c0,0.38,0.14,0.64,0.41,0.77v0.43c-0.23-0.08-0.41-0.22-0.54-0.44c-0.14-0.22-0.2-0.47-0.2-0.76
			c0-0.41,0.13-0.74,0.4-0.99c0.27-0.26,0.6-0.38,1-0.38c0.39,0,0.73,0.13,0.99,0.38s0.4,0.59,0.4,0.99c0,0.38-0.13,0.68-0.39,0.92
			C240.91,83.68,240.58,83.81,240.17,83.81z M241.22,82.51c0-0.27-0.09-0.49-0.26-0.67c-0.18-0.18-0.39-0.28-0.65-0.3v1.88
			c0.28-0.02,0.5-0.12,0.66-0.28S241.22,82.76,241.22,82.51z"/>
		<path d="M240.16,87.26c-0.4,0-0.73-0.14-1.01-0.41c-0.27-0.27-0.41-0.6-0.41-1c0-0.4,0.13-0.73,0.41-1.01
			c0.27-0.27,0.61-0.41,1.01-0.41c0.39,0,0.72,0.14,0.99,0.41c0.27,0.27,0.4,0.6,0.4,1.01c0,0.4-0.13,0.73-0.4,1
			C240.88,87.12,240.55,87.26,240.16,87.26z M240.16,86.86c0.29,0,0.53-0.1,0.73-0.29c0.2-0.2,0.3-0.43,0.3-0.72
			c0-0.29-0.1-0.53-0.3-0.72c-0.2-0.2-0.44-0.29-0.73-0.29c-0.29,0-0.54,0.1-0.75,0.29c-0.2,0.2-0.3,0.44-0.3,0.72
			s0.1,0.53,0.3,0.72C239.61,86.77,239.86,86.86,240.16,86.86z"/>
		<path d="M241.57,89.4c0,0.33-0.11,0.6-0.33,0.82c-0.22,0.21-0.52,0.32-0.88,0.32h-1.53v-0.4h1.51c0.27,0,0.48-0.07,0.64-0.22
			c0.15-0.15,0.23-0.34,0.23-0.59c0-0.37-0.16-0.67-0.49-0.91h-1.88v-0.39h2.65v0.39h-0.32C241.44,88.68,241.57,89,241.57,89.4z"/>
		<path d="M241.57,92.76c0,0.33-0.11,0.6-0.33,0.82c-0.22,0.21-0.52,0.32-0.88,0.32h-1.53v-0.4h1.51c0.27,0,0.48-0.07,0.64-0.22
			c0.15-0.15,0.23-0.34,0.23-0.59c0-0.37-0.16-0.67-0.49-0.91h-1.88v-0.39h4.08v0.39h-1.74C241.44,92.03,241.57,92.36,241.57,92.76z
			"/>
		<path d="M241.49,97.12h-2.65v-0.39h0.31c-0.27-0.26-0.4-0.59-0.4-0.98c0-0.34,0.11-0.61,0.33-0.82c0.22-0.21,0.51-0.31,0.88-0.31
			h1.54v0.39h-1.51c-0.27,0-0.48,0.07-0.64,0.22c-0.15,0.15-0.23,0.34-0.23,0.59c0,0.36,0.16,0.67,0.49,0.91h1.89V97.12z"/>
		<path d="M241.49,98.58h-2.65v-0.4h2.65V98.58z M242.49,98.65c-0.11,0-0.18-0.04-0.23-0.13c-0.05-0.09-0.05-0.18,0-0.28
			c0.04-0.09,0.12-0.14,0.23-0.13c0.08,0,0.14,0.03,0.19,0.08c0.05,0.05,0.08,0.11,0.08,0.19c0,0.08-0.03,0.14-0.08,0.19
			C242.63,98.61,242.56,98.64,242.49,98.65z"/>
		<path d="M241.57,102.87c0,0.32-0.11,0.58-0.33,0.78c-0.22,0.2-0.52,0.3-0.88,0.3h-1.53v-0.39h1.51c0.28,0,0.49-0.07,0.64-0.2
			c0.15-0.13,0.23-0.32,0.23-0.56c0-0.36-0.17-0.65-0.51-0.85c-0.1,0.02-0.22,0.03-0.34,0.03h-1.53v-0.4h1.51
			c0.28,0,0.49-0.07,0.64-0.2c0.15-0.13,0.23-0.32,0.23-0.56c0-0.33-0.16-0.6-0.48-0.82h-1.89v-0.39h2.65v0.39h-0.3
			c0.26,0.23,0.38,0.53,0.38,0.88c0,0.41-0.17,0.71-0.49,0.91C241.41,102.08,241.57,102.44,241.57,102.87z"/>
		<path d="M241.49,107.41h-2.65v-0.4h0.29c-0.25-0.26-0.37-0.58-0.37-0.96c0-0.38,0.13-0.7,0.41-0.97c0.27-0.27,0.6-0.4,0.99-0.4
			c0.39,0,0.72,0.13,0.99,0.4c0.27,0.27,0.41,0.6,0.41,0.97c0,0.38-0.12,0.7-0.37,0.96h0.3V107.41z M239.1,106.1
			c0,0.38,0.16,0.69,0.48,0.91h1.14c0.32-0.22,0.48-0.52,0.48-0.91c0-0.29-0.1-0.54-0.31-0.73c-0.21-0.2-0.46-0.29-0.74-0.29
			c-0.29,0-0.54,0.1-0.75,0.29C239.21,105.57,239.1,105.81,239.1,106.1z"/>
		<path d="M239.18,110.04l-0.34,0.06c-0.06-0.21-0.09-0.4-0.09-0.57c0-0.61,0.35-0.92,1.04-0.92h1.36v-0.71h0.34v0.71h0.98V109
			h-0.98v1.01h-0.34V109h-1.36c-0.24,0-0.41,0.05-0.52,0.14s-0.16,0.25-0.16,0.45C239.11,109.73,239.13,109.88,239.18,110.04z"/>
		<path d="M240.59,112.51h-0.4v-1.89h0.4V112.51z"/>
		<path d="M241.49,114.05h-0.46c0.35,0.26,0.53,0.61,0.53,1.04h-0.37c-0.01-0.44-0.22-0.79-0.62-1.04h-1.73v-0.39h2.65V114.05z"/>
		<path d="M240.16,118.3c-0.4,0-0.73-0.14-1.01-0.41c-0.27-0.27-0.41-0.6-0.41-1c0-0.4,0.13-0.73,0.41-1.01
			c0.27-0.27,0.61-0.41,1.01-0.41c0.39,0,0.72,0.14,0.99,0.41c0.27,0.27,0.4,0.6,0.4,1.01c0,0.4-0.13,0.73-0.4,1
			C240.88,118.17,240.55,118.3,240.16,118.3z M240.16,117.91c0.29,0,0.53-0.1,0.73-0.29c0.2-0.2,0.3-0.43,0.3-0.72
			c0-0.29-0.1-0.53-0.3-0.72c-0.2-0.2-0.44-0.29-0.73-0.29c-0.29,0-0.54,0.1-0.75,0.29c-0.2,0.2-0.3,0.44-0.3,0.72
			s0.1,0.53,0.3,0.72C239.61,117.81,239.86,117.91,240.16,117.91z"/>
		<path d="M238.04,118.73l0.76,0.29c0.04-0.12,0.11-0.18,0.22-0.18c0.07,0,0.13,0.03,0.19,0.08c0.05,0.05,0.08,0.12,0.08,0.19
			s-0.03,0.14-0.08,0.19c-0.05,0.05-0.11,0.08-0.19,0.08c-0.04,0-0.12-0.03-0.26-0.09l-0.72-0.31V118.73z"/>
		<path d="M242.82,123.07c0,0.41-0.1,0.75-0.29,1.03c-0.2,0.28-0.48,0.44-0.85,0.49v-0.4c0.52-0.1,0.79-0.46,0.79-1.1
			c0-0.3-0.07-0.54-0.2-0.71c-0.13-0.18-0.31-0.27-0.54-0.27c-0.34,0-0.56,0.27-0.67,0.8l-0.12,0.59c-0.14,0.72-0.48,1.09-1.02,1.09
			c-0.36,0-0.64-0.13-0.86-0.4c-0.21-0.27-0.32-0.62-0.32-1.05c0-0.47,0.12-0.84,0.35-1.13c0.23-0.29,0.56-0.45,0.98-0.5v0.4
			c-0.31,0.05-0.55,0.18-0.71,0.39c-0.17,0.21-0.25,0.5-0.25,0.85c0,0.31,0.07,0.56,0.21,0.74c0.14,0.18,0.33,0.28,0.56,0.28
			c0.34,0,0.57-0.25,0.67-0.74l0.13-0.68c0.14-0.72,0.48-1.08,1.02-1.08c0.34,0,0.61,0.13,0.81,0.38
			C242.72,122.32,242.82,122.66,242.82,123.07z"/>
		<path d="M240.17,127.89c-0.09,0-0.14,0-0.17-0.01l0.01-0.02H240v-2.25c-0.27,0.03-0.49,0.14-0.66,0.32
			c-0.17,0.18-0.25,0.41-0.25,0.68c0,0.38,0.14,0.64,0.41,0.77v0.43c-0.23-0.08-0.41-0.22-0.54-0.44c-0.14-0.22-0.2-0.47-0.2-0.76
			c0-0.41,0.13-0.74,0.4-0.99c0.27-0.26,0.6-0.38,1-0.38c0.39,0,0.73,0.13,0.99,0.38s0.4,0.59,0.4,0.99c0,0.38-0.13,0.68-0.39,0.92
			C240.91,127.76,240.58,127.89,240.17,127.89z M241.22,126.59c0-0.27-0.09-0.49-0.26-0.67c-0.18-0.18-0.39-0.28-0.65-0.3v1.88
			c0.28-0.02,0.5-0.12,0.66-0.28S241.22,126.84,241.22,126.59z"/>
		<path d="M240.16,131.34c-0.4,0-0.73-0.14-1.01-0.41c-0.27-0.27-0.41-0.6-0.41-1c0-0.4,0.13-0.73,0.41-1.01
			c0.27-0.27,0.61-0.41,1.01-0.41c0.39,0,0.72,0.14,0.99,0.41c0.27,0.27,0.4,0.6,0.4,1.01c0,0.4-0.13,0.73-0.4,1
			C240.88,131.21,240.55,131.34,240.16,131.34z M240.16,130.95c0.29,0,0.53-0.1,0.73-0.29c0.2-0.2,0.3-0.43,0.3-0.72
			c0-0.29-0.1-0.53-0.3-0.72c-0.2-0.2-0.44-0.29-0.73-0.29c-0.29,0-0.54,0.1-0.75,0.29c-0.2,0.2-0.3,0.44-0.3,0.72
			s0.1,0.53,0.3,0.72C239.61,130.85,239.86,130.95,240.16,130.95z"/>
		<path d="M242.91,134.7h-4.08v-0.4h0.29c-0.24-0.25-0.36-0.57-0.36-0.96c0-0.38,0.14-0.7,0.41-0.97c0.27-0.27,0.6-0.4,0.99-0.4
			s0.72,0.13,0.99,0.4c0.27,0.27,0.41,0.6,0.41,0.97c0,0.39-0.12,0.71-0.36,0.96h1.72V134.7z M239.11,133.39
			c0,0.38,0.16,0.69,0.48,0.91h1.14c0.33-0.22,0.49-0.52,0.49-0.91c0-0.29-0.1-0.54-0.31-0.73c-0.21-0.2-0.46-0.29-0.75-0.29
			c-0.29,0-0.53,0.1-0.74,0.29C239.21,132.86,239.11,133.1,239.11,133.39z"/>
		<path d="M241.49,138.25h-2.65v-0.4h0.29c-0.25-0.26-0.37-0.58-0.37-0.96c0-0.38,0.13-0.7,0.41-0.97c0.27-0.27,0.6-0.4,0.99-0.4
			c0.39,0,0.72,0.13,0.99,0.4c0.27,0.27,0.41,0.6,0.41,0.97c0,0.38-0.12,0.7-0.37,0.96h0.3V138.25z M239.1,136.95
			c0,0.38,0.16,0.69,0.48,0.91h1.14c0.32-0.22,0.48-0.52,0.48-0.91c0-0.29-0.1-0.54-0.31-0.73c-0.21-0.2-0.46-0.29-0.74-0.29
			c-0.29,0-0.54,0.1-0.75,0.29C239.21,136.42,239.1,136.66,239.1,136.95z"/>
		<path d="M240.17,141.73c-0.09,0-0.14,0-0.17-0.01l0.01-0.02H240v-2.25c-0.27,0.03-0.49,0.14-0.66,0.32
			c-0.17,0.18-0.25,0.41-0.25,0.68c0,0.38,0.14,0.64,0.41,0.77v0.43c-0.23-0.08-0.41-0.22-0.54-0.44c-0.14-0.22-0.2-0.47-0.2-0.76
			c0-0.41,0.13-0.74,0.4-0.99c0.27-0.26,0.6-0.38,1-0.38c0.39,0,0.73,0.13,0.99,0.38s0.4,0.59,0.4,0.99c0,0.38-0.13,0.68-0.39,0.92
			C240.91,141.6,240.58,141.72,240.17,141.73z M241.22,140.42c0-0.27-0.09-0.49-0.26-0.67c-0.18-0.18-0.39-0.28-0.65-0.3v1.88
			c0.28-0.02,0.5-0.12,0.66-0.28S241.22,140.68,241.22,140.42z"/>
		<path d="M241.57,145.75c0,0.32-0.11,0.58-0.33,0.78c-0.22,0.2-0.52,0.3-0.88,0.3h-1.53v-0.39h1.51c0.28,0,0.49-0.07,0.64-0.2
			c0.15-0.13,0.23-0.32,0.23-0.56c0-0.36-0.17-0.65-0.51-0.85c-0.1,0.02-0.22,0.03-0.34,0.03h-1.53v-0.4h1.51
			c0.28,0,0.49-0.07,0.64-0.2c0.15-0.13,0.23-0.32,0.23-0.56c0-0.33-0.16-0.6-0.48-0.82h-1.89v-0.39h2.65v0.39h-0.3
			c0.26,0.23,0.38,0.53,0.38,0.88c0,0.41-0.17,0.71-0.49,0.91C241.41,144.96,241.57,145.31,241.57,145.75z"/>
		<path d="M241.49,150.07h-2.65v-0.39h0.31c-0.27-0.26-0.4-0.59-0.4-0.98c0-0.34,0.11-0.61,0.33-0.82c0.22-0.21,0.51-0.31,0.88-0.31
			h1.54v0.39h-1.51c-0.27,0-0.48,0.07-0.64,0.22c-0.15,0.15-0.23,0.34-0.23,0.59c0,0.36,0.16,0.67,0.49,0.91h1.89V150.07z"/>
		<path d="M241.57,152.42c0,0.33-0.11,0.6-0.33,0.82c-0.22,0.21-0.52,0.32-0.88,0.32h-1.53v-0.4h1.51c0.27,0,0.48-0.07,0.64-0.22
			c0.15-0.15,0.23-0.34,0.23-0.59c0-0.37-0.16-0.67-0.49-0.91h-1.88v-0.39h2.65v0.39h-0.32
			C241.44,151.69,241.57,152.02,241.57,152.42z"/>
		<path d="M240.59,156.48h-0.4v-1.89h0.4V156.48z"/>
		<path d="M241.49,160.2h-2.74c-0.4,0-0.72-0.12-0.96-0.37c-0.24-0.25-0.36-0.56-0.36-0.95c0-0.34,0.09-0.63,0.28-0.87
			s0.42-0.39,0.71-0.44v0.41c-0.19,0.04-0.34,0.14-0.45,0.3c-0.12,0.16-0.17,0.36-0.17,0.6c0,0.28,0.09,0.5,0.26,0.67
			c0.17,0.17,0.4,0.26,0.69,0.26h0.46c-0.25-0.26-0.38-0.6-0.38-0.99c0-0.38,0.13-0.7,0.4-0.96c0.27-0.26,0.59-0.38,0.96-0.38
			c0.4,0,0.73,0.13,0.99,0.38c0.26,0.26,0.4,0.58,0.4,0.96c0,0.4-0.13,0.73-0.38,0.99h0.29V160.2z M239.18,158.86
			c0,0.41,0.17,0.72,0.5,0.95h1.06c0.33-0.23,0.5-0.54,0.5-0.95c0-0.29-0.1-0.52-0.3-0.71s-0.45-0.28-0.74-0.28
			c-0.28,0-0.52,0.09-0.72,0.28S239.18,158.57,239.18,158.86z"/>
		<path d="M241.49,163.54h-2.65v-0.39h0.31c-0.27-0.26-0.4-0.59-0.4-0.98c0-0.34,0.11-0.61,0.33-0.82c0.22-0.21,0.51-0.31,0.88-0.31
			h1.54v0.39h-1.51c-0.27,0-0.48,0.07-0.64,0.22c-0.15,0.15-0.23,0.34-0.23,0.59c0,0.36,0.16,0.67,0.49,0.91h1.89V163.54z"/>
		<path d="M238.04,164.26l0.76,0.29c0.04-0.12,0.11-0.18,0.22-0.18c0.07,0,0.13,0.03,0.19,0.08c0.05,0.05,0.08,0.12,0.08,0.19
			s-0.03,0.14-0.08,0.19c-0.05,0.05-0.11,0.08-0.19,0.08c-0.04,0-0.12-0.03-0.26-0.09l-0.72-0.31V164.26z"/>
		<path d="M235.93,83c0,0.41-0.1,0.75-0.29,1.03c-0.2,0.28-0.48,0.44-0.85,0.49v-0.4c0.53-0.1,0.79-0.46,0.79-1.1
			c0-0.3-0.07-0.54-0.2-0.71c-0.13-0.18-0.31-0.27-0.54-0.27c-0.34,0-0.56,0.27-0.67,0.8l-0.11,0.59c-0.14,0.72-0.48,1.09-1.02,1.09
			c-0.36,0-0.64-0.13-0.86-0.4c-0.21-0.27-0.32-0.62-0.32-1.05c0-0.47,0.12-0.84,0.35-1.13c0.23-0.29,0.56-0.45,0.98-0.5v0.4
			c-0.31,0.05-0.55,0.18-0.71,0.39c-0.17,0.21-0.25,0.5-0.25,0.85c0,0.31,0.07,0.56,0.21,0.74c0.14,0.18,0.33,0.28,0.56,0.28
			c0.35,0,0.57-0.25,0.67-0.74l0.13-0.68c0.14-0.72,0.48-1.08,1.02-1.08c0.34,0,0.61,0.13,0.81,0.38
			C235.83,82.24,235.93,82.58,235.93,83z"/>
		<path d="M233.28,87.82c-0.09,0-0.14,0-0.17-0.01l0.01-0.02h-0.01v-2.25c-0.27,0.03-0.49,0.14-0.65,0.32
			c-0.17,0.18-0.25,0.41-0.25,0.68c0,0.38,0.13,0.64,0.41,0.77v0.43c-0.22-0.08-0.41-0.22-0.54-0.44c-0.13-0.22-0.2-0.47-0.2-0.76
			c0-0.41,0.13-0.74,0.4-0.99s0.6-0.38,1-0.38c0.39,0,0.72,0.13,0.99,0.38c0.27,0.26,0.4,0.59,0.4,0.99c0,0.38-0.13,0.68-0.39,0.92
			C234.01,87.69,233.68,87.81,233.28,87.82z M234.32,86.52c0-0.27-0.09-0.49-0.26-0.67c-0.18-0.18-0.39-0.28-0.65-0.3v1.88
			c0.28-0.02,0.5-0.12,0.66-0.28C234.24,86.98,234.32,86.77,234.32,86.52z"/>
		<path d="M233.27,91.27c-0.4,0-0.73-0.14-1.01-0.41s-0.41-0.6-0.41-1c0-0.4,0.14-0.73,0.41-1.01s0.61-0.41,1.01-0.41
			c0.39,0,0.72,0.14,0.99,0.41c0.27,0.27,0.4,0.6,0.4,1.01c0,0.4-0.13,0.73-0.4,1C233.99,91.13,233.66,91.27,233.27,91.27z
			 M233.27,90.87c0.29,0,0.53-0.1,0.73-0.29c0.2-0.2,0.3-0.43,0.3-0.72c0-0.29-0.1-0.53-0.3-0.72c-0.2-0.2-0.44-0.29-0.73-0.29
			c-0.29,0-0.55,0.1-0.75,0.29c-0.2,0.2-0.3,0.44-0.3,0.72s0.1,0.53,0.3,0.72C232.72,90.77,232.97,90.87,233.27,90.87z"/>
		<path d="M234.59,94.48h-2.65v-0.39h0.31c-0.26-0.26-0.4-0.59-0.4-0.98c0-0.34,0.11-0.61,0.33-0.82c0.22-0.21,0.51-0.31,0.88-0.31
			h1.53v0.39h-1.51c-0.27,0-0.49,0.07-0.64,0.22c-0.16,0.15-0.23,0.34-0.23,0.59c0,0.36,0.17,0.67,0.49,0.91h1.89V94.48z"/>
		<path d="M236.02,95.84h-4.08v-0.39h4.08V95.84z"/>
		<path d="M231.15,96.56l0.77,0.29c0.03-0.12,0.11-0.18,0.22-0.18c0.07,0,0.13,0.03,0.19,0.08c0.05,0.05,0.08,0.12,0.08,0.19
			s-0.03,0.14-0.08,0.19c-0.05,0.05-0.11,0.08-0.19,0.08c-0.04,0-0.12-0.03-0.26-0.09l-0.72-0.31V96.56z"/>
		<path d="M233.36,100.93v-0.97h-1.42v-0.41h3.91V101c0,0.44-0.11,0.79-0.34,1.07c-0.23,0.28-0.53,0.41-0.91,0.41
			c-0.31,0-0.57-0.1-0.79-0.29c-0.21-0.19-0.35-0.46-0.42-0.8l-1.45,1.25v-0.51L233.36,100.93z M233.73,99.96v1.03
			c0,0.33,0.08,0.59,0.23,0.79c0.16,0.2,0.37,0.3,0.63,0.3s0.48-0.1,0.63-0.3s0.24-0.46,0.24-0.79v-1.03H233.73z"/>
		<path d="M233.28,105.66c-0.09,0-0.14,0-0.17-0.01l0.01-0.02h-0.01v-2.25c-0.27,0.03-0.49,0.14-0.65,0.32
			c-0.17,0.18-0.25,0.41-0.25,0.68c0,0.38,0.13,0.64,0.41,0.77v0.43c-0.22-0.08-0.41-0.22-0.54-0.44c-0.13-0.22-0.2-0.47-0.2-0.76
			c0-0.41,0.13-0.74,0.4-0.99s0.6-0.38,1-0.38c0.39,0,0.72,0.13,0.99,0.38c0.27,0.26,0.4,0.59,0.4,0.99c0,0.38-0.13,0.68-0.39,0.92
			C234.01,105.53,233.68,105.65,233.28,105.66z M234.32,104.35c0-0.27-0.09-0.49-0.26-0.67c-0.18-0.18-0.39-0.28-0.65-0.3v1.88
			c0.28-0.02,0.5-0.12,0.66-0.28C234.24,104.81,234.32,104.61,234.32,104.35z"/>
		<path d="M234.66,107.84c0,0.38-0.13,0.7-0.41,0.97c-0.27,0.27-0.6,0.4-0.99,0.4c-0.39,0-0.73-0.13-0.99-0.4
			c-0.27-0.27-0.41-0.6-0.41-0.97c0-0.38,0.12-0.71,0.37-0.97h-1.72v-0.39h4.08v0.39h-0.3
			C234.54,107.13,234.66,107.46,234.66,107.84z M232.21,107.79c0,0.29,0.1,0.53,0.31,0.73c0.2,0.2,0.45,0.3,0.75,0.3
			c0.29,0,0.54-0.1,0.74-0.3c0.21-0.2,0.31-0.45,0.31-0.73c0-0.38-0.16-0.69-0.49-0.91h-1.12
			C232.37,107.1,232.21,107.4,232.21,107.79z"/>
		<path d="M234.59,112.42h-2.65v-0.39h0.31c-0.26-0.26-0.4-0.59-0.4-0.98c0-0.34,0.11-0.61,0.33-0.82c0.22-0.21,0.51-0.31,0.88-0.31
			h1.53v0.39h-1.51c-0.27,0-0.49,0.07-0.64,0.22c-0.16,0.15-0.23,0.34-0.23,0.59c0,0.36,0.17,0.67,0.49,0.91h1.89V112.42z"/>
		<path d="M234.66,114.75c0,0.38-0.13,0.7-0.41,0.97c-0.27,0.27-0.6,0.4-0.99,0.4s-0.72-0.13-0.99-0.4
			c-0.27-0.27-0.41-0.6-0.41-0.97c0-0.39,0.12-0.71,0.37-0.97h-0.3v-0.39h4.08v0.39h-1.72
			C234.54,114.04,234.66,114.36,234.66,114.75z M232.21,114.7c0,0.29,0.1,0.53,0.31,0.73c0.2,0.2,0.45,0.3,0.74,0.3
			c0.29,0,0.54-0.1,0.75-0.3c0.21-0.2,0.31-0.45,0.31-0.73c0-0.39-0.17-0.69-0.5-0.91h-1.12
			C232.38,114.01,232.21,114.31,232.21,114.7z"/>
		<path d="M236.02,117.31h-4.08v-0.39h4.08V117.31z"/>
		<path d="M234.59,118.76h-2.65v-0.4h2.65V118.76z M235.6,118.83c-0.11,0-0.18-0.04-0.23-0.13c-0.04-0.09-0.04-0.18,0-0.28
			c0.05-0.09,0.12-0.14,0.23-0.13c0.08,0,0.14,0.03,0.19,0.08c0.05,0.05,0.07,0.11,0.07,0.19c0,0.08-0.03,0.14-0.08,0.19
			C235.73,118.8,235.67,118.82,235.6,118.83z"/>
		<path d="M232.23,121.01c0,0.21,0.05,0.4,0.16,0.55c0.11,0.15,0.25,0.25,0.43,0.29v0.41c-0.28-0.05-0.52-0.2-0.7-0.43
			c-0.18-0.23-0.26-0.5-0.26-0.82c0-0.4,0.13-0.73,0.4-0.99c0.27-0.26,0.61-0.39,1-0.39c0.39,0,0.72,0.13,0.99,0.39
			c0.27,0.26,0.4,0.6,0.4,0.99c0,0.31-0.09,0.59-0.27,0.82c-0.18,0.23-0.41,0.38-0.69,0.43v-0.41c0.18-0.04,0.32-0.14,0.43-0.29
			c0.11-0.15,0.16-0.33,0.16-0.55c0-0.29-0.1-0.53-0.3-0.71c-0.2-0.18-0.45-0.28-0.73-0.28c-0.29,0-0.54,0.09-0.74,0.28
			C232.32,120.48,232.23,120.71,232.23,121.01z"/>
		<path d="M233.27,127.32c-0.4,0-0.73-0.14-1.01-0.41s-0.41-0.6-0.41-1c0-0.4,0.14-0.73,0.41-1.01s0.61-0.41,1.01-0.41
			c0.39,0,0.72,0.14,0.99,0.41c0.27,0.27,0.4,0.6,0.4,1.01c0,0.4-0.13,0.73-0.4,1C233.99,127.18,233.66,127.32,233.27,127.32z
			 M233.27,126.92c0.29,0,0.53-0.1,0.73-0.29c0.2-0.2,0.3-0.43,0.3-0.72c0-0.29-0.1-0.53-0.3-0.72c-0.2-0.2-0.44-0.29-0.73-0.29
			c-0.29,0-0.55,0.1-0.75,0.29c-0.2,0.2-0.3,0.44-0.3,0.72s0.1,0.53,0.3,0.72C232.72,126.82,232.97,126.92,233.27,126.92z"/>
		<path d="M234.59,128.77v1.07h-0.34v-1.07h-2.32v-0.39h2.32v-0.78h0.34v0.78h0.7c0.3,0,0.54,0.09,0.73,0.26s0.27,0.4,0.27,0.68
			c0,0.17-0.03,0.35-0.08,0.55l-0.34-0.06c0.04-0.15,0.06-0.29,0.06-0.43c0-0.19-0.06-0.34-0.17-0.45
			c-0.12-0.11-0.27-0.17-0.46-0.17H234.59z"/>
		<path d="M233.77,133.14l-0.8-0.76h-1.02v-0.41h3.91v0.41h-2.32l2.32,2.24v0.5l-1.78-1.69l-2.12,1.9v-0.52L233.77,133.14z"/>
		<path d="M233.27,138.4c-0.4,0-0.73-0.14-1.01-0.41s-0.41-0.6-0.41-1c0-0.4,0.14-0.73,0.41-1.01s0.61-0.41,1.01-0.41
			c0.39,0,0.72,0.14,0.99,0.41c0.27,0.27,0.4,0.6,0.4,1.01c0,0.4-0.13,0.73-0.4,1C233.99,138.26,233.66,138.4,233.27,138.4z
			 M233.27,138c0.29,0,0.53-0.1,0.73-0.29c0.2-0.2,0.3-0.43,0.3-0.72c0-0.29-0.1-0.53-0.3-0.72c-0.2-0.2-0.44-0.29-0.73-0.29
			c-0.29,0-0.55,0.1-0.75,0.29c-0.2,0.2-0.3,0.44-0.3,0.72s0.1,0.53,0.3,0.72C232.72,137.9,232.97,138,233.27,138z"/>
		<path d="M234.59,139.56h-0.46c0.35,0.26,0.53,0.61,0.53,1.04h-0.37c-0.01-0.44-0.22-0.79-0.62-1.04h-1.73v-0.39h2.65V139.56z"/>
		<path d="M233.28,143.66c-0.09,0-0.14,0-0.17-0.01l0.01-0.02h-0.01v-2.25c-0.27,0.03-0.49,0.14-0.65,0.32
			c-0.17,0.18-0.25,0.41-0.25,0.68c0,0.38,0.13,0.64,0.41,0.77v0.43c-0.22-0.08-0.41-0.22-0.54-0.44c-0.13-0.22-0.2-0.47-0.2-0.76
			c0-0.41,0.13-0.74,0.4-0.99s0.6-0.38,1-0.38c0.39,0,0.72,0.13,0.99,0.38c0.27,0.26,0.4,0.59,0.4,0.99c0,0.38-0.13,0.68-0.39,0.92
			C234.01,143.53,233.68,143.65,233.28,143.66z M234.32,142.36c0-0.27-0.09-0.49-0.26-0.67c-0.18-0.18-0.39-0.28-0.65-0.3v1.88
			c0.28-0.02,0.5-0.12,0.66-0.28C234.24,142.82,234.32,142.61,234.32,142.36z"/>
		<path d="M234.59,147.01h-2.65v-0.4h0.29c-0.24-0.26-0.37-0.58-0.37-0.96c0-0.38,0.14-0.7,0.41-0.97c0.27-0.27,0.6-0.4,0.99-0.4
			c0.39,0,0.72,0.13,0.99,0.4c0.27,0.27,0.41,0.6,0.41,0.97c0,0.38-0.12,0.7-0.37,0.96h0.3V147.01z M232.21,145.71
			c0,0.38,0.16,0.69,0.48,0.91h1.14c0.32-0.22,0.48-0.52,0.48-0.91c0-0.29-0.1-0.54-0.31-0.73c-0.21-0.2-0.45-0.29-0.74-0.29
			c-0.29,0-0.54,0.1-0.75,0.29C232.31,145.18,232.21,145.42,232.21,145.71z"/>
	</g>
	<g>
		<path d="M44.45,300.86c-1.42,0-2.26-0.71-2.26-1.9c0-1.13,0.79-1.8,2.13-1.8h3.89v-0.84h-3.73c-1.71,0-2.58,0.86-2.58,2.56
			c0,1.38,0.99,2.25,2.57,2.25h3.74v-0.27H44.45z"/>
		<path d="M48.21,303.71v-1.49h-6.26v0.84l2.91,0.02v0.39c0,0.83,0.2,1.45,0.59,1.84c0.3,0.3,0.71,0.45,1.21,0.45
			C47.63,305.74,48.21,304.98,48.21,303.71z M45.52,304.56c-0.26-0.25-0.39-0.63-0.39-1.08v-0.41l2.81-0.02v0.68
			c0,0.77-0.46,1.2-1.28,1.21C46.18,304.95,45.78,304.82,45.52,304.56z"/>
		<rect x="41.95" y="306.5" width="6.26" height="0.84"/>
		<path d="M48.21,310.43v-2.08h-6.26v2.05c0,1.92,1.36,3.37,3.15,3.37C46.96,313.77,48.21,312.43,48.21,310.43z M45.1,312.9
			c-1.75,0-2.88-0.99-2.88-2.52v-1.2h5.72v1.26C47.94,312.01,46.91,312.9,45.1,312.9z"/>
		<path d="M48.27,317.42c0-1.83-1.37-3.2-3.19-3.2c-1.85,0-3.19,1.35-3.19,3.2c0,1.82,1.37,3.19,3.19,3.19
			C46.9,320.61,48.27,319.24,48.27,317.42z M48,317.42c0,1.44-1.12,2.33-2.92,2.33c-1.8,0-2.92-0.89-2.92-2.33
			c0-1.45,1.12-2.35,2.92-2.35C46.88,315.07,48,315.97,48,317.42z"/>
		<path d="M45.88,325.23c0.23-0.79,0.42-1.47,1.16-1.47c0.56,0,0.96,0.58,0.96,1.4l0,0.05c-0.01,0.93-0.53,1.42-1.04,1.42
			c-0.18,0-0.32-0.03-0.43-0.11l-0.08-0.05l-0.14,0.23l0.07,0.05c0.15,0.09,0.36,0.15,0.57,0.15c0.63,0,1.31-0.59,1.31-1.7
			c0-1.16-0.64-1.94-1.59-1.94c-1.14,0-1.42,0.95-1.66,1.79c-0.23,0.8-0.45,1.56-1.34,1.56c-1.12,0-1.51-0.9-1.51-1.66
			c0.01-1.07,0.67-1.79,1.66-1.79h0.09v-0.27h-0.09c-1.15,0-1.93,0.83-1.93,2.07c0,1.08,0.68,2.17,2.21,2.17
			C45.33,327.13,45.62,326.12,45.88,325.23z"/>
		<polygon points="45.61,328.7 45.61,331.05 45.88,331.05 45.88,328.7 47.94,328.7 47.94,331.45 48.21,331.45 48.21,327.87 
			41.95,327.87 41.95,331.53 42.22,331.53 42.22,328.7 		"/>
		<path d="M48.27,334.88c0-1.82-1.37-3.2-3.19-3.2c-1.85,0-3.19,1.35-3.19,3.2c0,1.82,1.37,3.19,3.19,3.19
			C46.9,338.07,48.27,336.7,48.27,334.88z M48,334.88c0,1.44-1.12,2.33-2.92,2.33c-1.8,0-2.92-0.89-2.92-2.33
			c0-1.45,1.12-2.35,2.92-2.35C46.88,332.53,48,333.43,48,334.88z"/>
		<path d="M44.45,343.44c-1.42,0-2.26-0.71-2.26-1.9c0-1.13,0.79-1.8,2.13-1.8h3.89v-0.84h-3.73c-1.71,0-2.58,0.86-2.58,2.56
			c0,1.39,0.99,2.25,2.57,2.25h3.74v-0.27H44.45z"/>
		<polygon points="42.22,345.63 48.21,345.63 48.21,344.79 41.95,344.79 41.95,348.47 42.22,348.47 		"/>
		<path d="M42.56,294.92c-0.02-0.03-0.05-0.08-0.11-0.1c-0.21-0.11-0.37-0.22-0.5-0.34c-0.11-0.1-0.2-0.21-0.26-0.33
			c-0.1-0.15-0.16-0.36-0.16-0.62c0-0.48,0.19-1.04,0.36-1.45c0,0,0,0,0,0c0,1.82,1.37,3.19,3.19,3.19c1.81,0,3.18-1.37,3.18-3.19
			c0-1.83-1.37-3.2-3.19-3.2c-1.04,0-1.97,0.44-2.55,1.21c-0.24-0.33-0.78-0.67-0.8-0.69l-0.03-0.02c-0.04-0.04-0.1-0.06-0.15-0.06
			c-0.12,0-0.23,0.1-0.23,0.23c0,0.12,0.09,0.22,0.2,0.23c0.02,0.01,0.05,0.02,0.09,0.03l0,0l0.03,0.01
			c0.05,0.01,0.09,0.03,0.13,0.04l0.05,0.02c0.07,0.03,0.14,0.06,0.21,0.1l0.04-0.08L42.05,290c0.03,0.02,0.06,0.04,0.11,0.07
			c0.12,0.1,0.18,0.2,0.21,0.26c-0.12,0.19-0.21,0.4-0.29,0.63c-0.08,0.09-0.15,0.19-0.22,0.28c-0.04,0.05-0.08,0.11-0.13,0.18
			l-0.02,0.04c-0.05,0.07-0.1,0.15-0.15,0.23c-0.04,0.07-0.09,0.15-0.13,0.22c-0.02,0.03-0.04,0.07-0.05,0.1l-0.05,0.1
			c-0.22,0.44-0.33,0.86-0.33,1.25c0,1.36,1.35,1.9,1.36,1.91l0.07,0.03l0.17-0.33L42.56,294.92z M48,292.08
			c0,1.44-1.12,2.33-2.92,2.33c-1.8,0-2.92-0.89-2.92-2.33c0-1.45,1.12-2.35,2.92-2.35C46.88,289.73,48,290.63,48,292.08z"/>
	</g>
	<g>
		<path d="M35.82,274.81v-0.63h-0.86v-0.39h0.86v-2.1h0.25l2.8,1.19v0.42l-2.69-1.13v1.62h1.27v0.39h-1.27v0.63H35.82z"/>
		<path d="M36.94,277.39c-0.18,0.44-0.49,0.66-0.94,0.66c-0.33,0-0.59-0.12-0.8-0.37c-0.21-0.25-0.31-0.57-0.31-0.96
			c0-0.39,0.09-0.71,0.28-0.96s0.44-0.38,0.75-0.42v0.4c-0.21,0.03-0.38,0.14-0.5,0.31c-0.12,0.17-0.18,0.4-0.18,0.67
			c0,0.28,0.07,0.51,0.21,0.68s0.33,0.26,0.55,0.26c0.23,0,0.41-0.08,0.55-0.25c0.14-0.17,0.21-0.39,0.21-0.67v-0.32h0.33v0.32
			c0,0.24,0.07,0.44,0.2,0.58s0.32,0.22,0.54,0.22c0.23,0,0.41-0.08,0.55-0.23s0.21-0.36,0.21-0.62c0-0.23-0.06-0.43-0.18-0.58
			c-0.12-0.15-0.28-0.24-0.49-0.27v-0.4c0.31,0.03,0.55,0.15,0.74,0.38c0.19,0.22,0.28,0.51,0.28,0.86c0,0.38-0.1,0.68-0.3,0.91
			c-0.2,0.23-0.47,0.34-0.8,0.34C37.42,277.92,37.12,277.75,36.94,277.39z"/>
		<path d="M36.72,280.82h-0.4v-1.89h0.4V280.82z"/>
		<path d="M37.57,283.26c0,0.41-0.12,0.76-0.37,1.03c-0.25,0.27-0.57,0.41-0.96,0.41s-0.72-0.14-0.98-0.41
			c-0.26-0.27-0.38-0.61-0.38-1.03c0-0.42,0.13-0.76,0.38-1.03c0.26-0.27,0.58-0.41,0.97-0.41c0.3,0,0.6,0.1,0.9,0.32l1.74,1.24
			v0.48l-1.34-0.94C37.56,283.02,37.57,283.14,37.57,283.26z M36.22,284.3c0.29,0,0.52-0.1,0.71-0.29c0.19-0.19,0.28-0.44,0.28-0.75
			c0-0.31-0.09-0.57-0.28-0.76l-0.04-0.03c-0.23-0.16-0.46-0.25-0.68-0.25c-0.29,0-0.53,0.1-0.72,0.29
			c-0.19,0.19-0.28,0.44-0.28,0.75s0.09,0.56,0.28,0.75C35.68,284.2,35.93,284.3,36.22,284.3z"/>
		<path d="M34.17,285.14l0.76,0.29c0.03-0.12,0.11-0.18,0.22-0.18c0.07,0,0.13,0.03,0.19,0.08s0.08,0.12,0.08,0.19
			c0,0.08-0.03,0.14-0.08,0.19s-0.11,0.08-0.19,0.08c-0.04,0-0.12-0.03-0.26-0.09l-0.72-0.31V285.14z"/>
		<path d="M38.87,290.92l-2.51-1.61h-1.4v-0.41h1.4l2.51-1.62v0.45l-2.13,1.37l2.13,1.37V290.92z"/>
		<path d="M36.3,293.3c-0.09,0-0.14,0-0.17-0.01l0.01-0.02h-0.01v-2.25c-0.27,0.03-0.49,0.14-0.66,0.32
			c-0.17,0.18-0.25,0.41-0.25,0.68c0,0.38,0.14,0.64,0.41,0.77v0.43c-0.23-0.08-0.41-0.22-0.54-0.44c-0.14-0.22-0.2-0.47-0.2-0.76
			c0-0.41,0.13-0.74,0.4-0.99c0.27-0.26,0.6-0.38,1-0.38c0.39,0,0.73,0.13,0.99,0.38c0.27,0.26,0.4,0.59,0.4,0.99
			c0,0.38-0.13,0.68-0.39,0.92C37.04,293.17,36.71,293.29,36.3,293.3z M37.35,292c0-0.27-0.09-0.49-0.26-0.67
			c-0.18-0.18-0.39-0.28-0.65-0.3v1.88c0.28-0.02,0.5-0.12,0.66-0.28C37.26,292.46,37.35,292.25,37.35,292z"/>
		<path d="M36.29,296.75c-0.4,0-0.73-0.14-1.01-0.41c-0.27-0.27-0.41-0.6-0.41-1c0-0.4,0.14-0.73,0.41-1.01
			c0.27-0.27,0.61-0.41,1.01-0.41c0.39,0,0.72,0.14,0.99,0.41c0.27,0.27,0.4,0.6,0.4,1.01c0,0.4-0.13,0.73-0.4,1
			C37.01,296.61,36.68,296.75,36.29,296.75z M36.29,296.35c0.29,0,0.53-0.1,0.73-0.29c0.2-0.2,0.3-0.43,0.3-0.72
			c0-0.29-0.1-0.53-0.3-0.72c-0.2-0.2-0.44-0.29-0.73-0.29c-0.29,0-0.55,0.1-0.75,0.29c-0.2,0.2-0.3,0.44-0.3,0.72
			s0.1,0.53,0.3,0.72C35.74,296.25,35.99,296.35,36.29,296.35z"/>
		<path d="M37.7,298.89c0,0.33-0.11,0.61-0.33,0.82c-0.22,0.21-0.52,0.32-0.88,0.32h-1.53v-0.4h1.51c0.27,0,0.48-0.07,0.64-0.22
			c0.15-0.15,0.23-0.34,0.23-0.59c0-0.37-0.16-0.67-0.49-0.91h-1.88v-0.39h2.65v0.39H37.3C37.57,298.17,37.7,298.49,37.7,298.89z"/>
		<path d="M37.7,302.25c0,0.33-0.11,0.61-0.33,0.82c-0.22,0.21-0.52,0.32-0.88,0.32h-1.53v-0.4h1.51c0.27,0,0.48-0.07,0.64-0.22
			c0.15-0.15,0.23-0.34,0.23-0.59c0-0.37-0.16-0.67-0.49-0.91h-1.88v-0.39h4.08v0.39H37.3C37.57,301.52,37.7,301.85,37.7,302.25z"/>
		<path d="M37.62,306.61h-2.65v-0.39h0.31c-0.26-0.26-0.4-0.59-0.4-0.98c0-0.34,0.11-0.61,0.33-0.82c0.22-0.21,0.51-0.31,0.88-0.31
			h1.53v0.39h-1.51c-0.27,0-0.49,0.07-0.64,0.22s-0.23,0.34-0.23,0.59c0,0.36,0.17,0.67,0.49,0.91h1.89V306.61z"/>
		<path d="M37.62,308.06h-2.65v-0.4h2.65V308.06z M38.62,308.13c-0.11,0-0.18-0.04-0.23-0.13s-0.05-0.18,0-0.28s0.12-0.14,0.23-0.13
			c0.08,0,0.14,0.03,0.19,0.08s0.08,0.11,0.08,0.19s-0.03,0.14-0.08,0.19S38.69,308.13,38.62,308.13z"/>
		<path d="M37.7,312.36c0,0.32-0.11,0.58-0.33,0.78c-0.22,0.2-0.51,0.3-0.88,0.3h-1.53v-0.39h1.51c0.28,0,0.49-0.07,0.64-0.2
			c0.15-0.13,0.23-0.32,0.23-0.56c0-0.36-0.17-0.65-0.51-0.85c-0.1,0.02-0.22,0.04-0.34,0.04h-1.53v-0.4h1.51
			c0.28,0,0.49-0.07,0.64-0.2s0.23-0.32,0.23-0.56c0-0.33-0.16-0.6-0.48-0.82h-1.9v-0.39h2.65v0.39h-0.3
			c0.26,0.23,0.38,0.53,0.38,0.88c0,0.41-0.17,0.71-0.49,0.91C37.54,311.57,37.7,311.92,37.7,312.36z"/>
		<path d="M37.62,316.89h-2.65v-0.4h0.29c-0.25-0.26-0.37-0.58-0.37-0.96c0-0.38,0.14-0.7,0.41-0.97c0.27-0.27,0.6-0.4,0.99-0.4
			c0.39,0,0.72,0.13,0.99,0.4c0.27,0.27,0.41,0.6,0.41,0.97c0,0.38-0.12,0.7-0.37,0.96h0.3V316.89z M35.23,315.59
			c0,0.38,0.16,0.69,0.48,0.91h1.14c0.32-0.22,0.48-0.52,0.48-0.91c0-0.29-0.1-0.54-0.31-0.73c-0.21-0.2-0.45-0.29-0.74-0.29
			c-0.29,0-0.54,0.1-0.75,0.29C35.34,315.06,35.23,315.3,35.23,315.59z"/>
		<path d="M35.31,319.53l-0.34,0.06c-0.06-0.21-0.09-0.4-0.09-0.57c0-0.61,0.35-0.92,1.04-0.92h1.36v-0.71h0.34v0.71h0.98v0.39
			h-0.98v1h-0.34v-1h-1.36c-0.24,0-0.41,0.05-0.52,0.14s-0.16,0.25-0.16,0.45C35.24,319.22,35.26,319.37,35.31,319.53z"/>
		<path d="M36.72,321.99h-0.4v-1.89h0.4V321.99z"/>
		<path d="M37.62,323.54h-0.46c0.35,0.26,0.53,0.61,0.53,1.04h-0.37c-0.01-0.44-0.22-0.79-0.62-1.04h-1.73v-0.39h2.65V323.54z"/>
		<path d="M36.29,327.79c-0.4,0-0.73-0.14-1.01-0.41c-0.27-0.27-0.41-0.6-0.41-1c0-0.4,0.14-0.73,0.41-1.01
			c0.27-0.27,0.61-0.41,1.01-0.41c0.39,0,0.72,0.14,0.99,0.41c0.27,0.27,0.4,0.6,0.4,1.01c0,0.4-0.13,0.73-0.4,1
			C37.01,327.65,36.68,327.79,36.29,327.79z M36.29,327.39c0.29,0,0.53-0.1,0.73-0.29c0.2-0.2,0.3-0.43,0.3-0.72
			c0-0.29-0.1-0.53-0.3-0.72c-0.2-0.2-0.44-0.29-0.73-0.29c-0.29,0-0.55,0.1-0.75,0.29c-0.2,0.2-0.3,0.44-0.3,0.72
			s0.1,0.53,0.3,0.72C35.74,327.3,35.99,327.39,36.29,327.39z"/>
		<path d="M34.17,328.22l0.76,0.29c0.03-0.12,0.11-0.18,0.22-0.18c0.07,0,0.13,0.03,0.19,0.08s0.08,0.12,0.08,0.19
			c0,0.08-0.03,0.14-0.08,0.19s-0.11,0.08-0.19,0.08c-0.04,0-0.12-0.03-0.26-0.09l-0.72-0.31V328.22z"/>
		<path d="M38.95,332.56c0,0.41-0.1,0.75-0.29,1.03c-0.2,0.28-0.48,0.44-0.85,0.49v-0.4c0.52-0.1,0.79-0.46,0.79-1.1
			c0-0.3-0.07-0.54-0.2-0.71c-0.13-0.18-0.31-0.27-0.54-0.27c-0.34,0-0.56,0.27-0.67,0.8l-0.11,0.59c-0.14,0.72-0.48,1.09-1.02,1.09
			c-0.36,0-0.64-0.13-0.86-0.4c-0.21-0.27-0.32-0.62-0.32-1.05c0-0.47,0.12-0.84,0.35-1.13c0.23-0.29,0.56-0.45,0.98-0.5v0.4
			c-0.31,0.05-0.55,0.18-0.71,0.39c-0.17,0.21-0.25,0.5-0.25,0.85c0,0.31,0.07,0.56,0.21,0.74s0.33,0.28,0.56,0.28
			c0.34,0,0.57-0.25,0.67-0.74l0.13-0.68c0.14-0.72,0.48-1.08,1.02-1.08c0.34,0,0.61,0.13,0.81,0.38
			C38.85,331.81,38.95,332.14,38.95,332.56z"/>
		<path d="M36.3,337.38c-0.09,0-0.14,0-0.17-0.01l0.01-0.02h-0.01v-2.25c-0.27,0.03-0.49,0.14-0.66,0.32
			c-0.17,0.18-0.25,0.41-0.25,0.68c0,0.38,0.14,0.64,0.41,0.77v0.43c-0.23-0.08-0.41-0.22-0.54-0.44c-0.14-0.22-0.2-0.47-0.2-0.76
			c0-0.41,0.13-0.74,0.4-0.99c0.27-0.26,0.6-0.38,1-0.38c0.39,0,0.73,0.13,0.99,0.38c0.27,0.26,0.4,0.59,0.4,0.99
			c0,0.38-0.13,0.68-0.39,0.92C37.04,337.25,36.71,337.38,36.3,337.38z M37.35,336.08c0-0.27-0.09-0.49-0.26-0.67
			c-0.18-0.18-0.39-0.28-0.65-0.3v1.88c0.28-0.02,0.5-0.12,0.66-0.28C37.26,336.54,37.35,336.33,37.35,336.08z"/>
		<path d="M36.29,340.83c-0.4,0-0.73-0.14-1.01-0.41c-0.27-0.27-0.41-0.61-0.41-1c0-0.4,0.14-0.73,0.41-1
			c0.27-0.27,0.61-0.41,1.01-0.41c0.39,0,0.72,0.14,0.99,0.41c0.27,0.27,0.4,0.6,0.4,1c0,0.4-0.13,0.73-0.4,1
			C37.01,340.69,36.68,340.83,36.29,340.83z M36.29,340.43c0.29,0,0.53-0.1,0.73-0.29c0.2-0.2,0.3-0.43,0.3-0.72
			c0-0.29-0.1-0.53-0.3-0.72c-0.2-0.2-0.44-0.29-0.73-0.29c-0.29,0-0.55,0.1-0.75,0.29c-0.2,0.2-0.3,0.44-0.3,0.72
			s0.1,0.53,0.3,0.72C35.74,340.34,35.99,340.43,36.29,340.43z"/>
		<path d="M39.04,344.18h-4.08v-0.4h0.29c-0.24-0.25-0.36-0.57-0.36-0.96c0-0.38,0.14-0.7,0.41-0.97c0.27-0.27,0.6-0.4,0.99-0.4
			s0.72,0.13,0.99,0.4c0.27,0.27,0.41,0.6,0.41,0.97c0,0.39-0.12,0.71-0.36,0.96h1.72V344.18z M35.24,342.88
			c0,0.38,0.16,0.69,0.48,0.91h1.14c0.33-0.22,0.49-0.52,0.49-0.91c0-0.29-0.1-0.54-0.31-0.74c-0.21-0.2-0.46-0.29-0.75-0.29
			c-0.29,0-0.53,0.1-0.74,0.29C35.34,342.35,35.24,342.59,35.24,342.88z"/>
		<path d="M37.62,347.74h-2.65v-0.4h0.29c-0.25-0.26-0.37-0.58-0.37-0.96c0-0.38,0.14-0.7,0.41-0.97c0.27-0.27,0.6-0.4,0.99-0.4
			c0.39,0,0.72,0.13,0.99,0.4c0.27,0.27,0.41,0.6,0.41,0.97c0,0.38-0.12,0.7-0.37,0.96h0.3V347.74z M35.23,346.44
			c0,0.38,0.16,0.69,0.48,0.91h1.14c0.32-0.22,0.48-0.52,0.48-0.91c0-0.29-0.1-0.54-0.31-0.74c-0.21-0.2-0.45-0.29-0.74-0.29
			c-0.29,0-0.54,0.1-0.75,0.29C35.34,345.9,35.23,346.15,35.23,346.44z"/>
		<path d="M36.3,351.22c-0.09,0-0.14,0-0.17-0.01l0.01-0.02h-0.01v-2.25c-0.27,0.03-0.49,0.14-0.66,0.32
			c-0.17,0.18-0.25,0.41-0.25,0.68c0,0.38,0.14,0.64,0.41,0.77v0.43c-0.23-0.08-0.41-0.22-0.54-0.44c-0.14-0.22-0.2-0.47-0.2-0.76
			c0-0.41,0.13-0.74,0.4-0.99c0.27-0.26,0.6-0.38,1-0.38c0.39,0,0.73,0.13,0.99,0.38c0.27,0.26,0.4,0.59,0.4,0.99
			c0,0.38-0.13,0.68-0.39,0.92C37.04,351.09,36.71,351.21,36.3,351.22z M37.35,349.91c0-0.27-0.09-0.49-0.26-0.67
			c-0.18-0.18-0.39-0.28-0.65-0.3v1.88c0.28-0.02,0.5-0.12,0.66-0.28C37.26,350.37,37.35,350.16,37.35,349.91z"/>
		<path d="M37.7,355.24c0,0.32-0.11,0.58-0.33,0.78c-0.22,0.2-0.51,0.3-0.88,0.3h-1.53v-0.39h1.51c0.28,0,0.49-0.07,0.64-0.2
			c0.15-0.13,0.23-0.32,0.23-0.56c0-0.36-0.17-0.65-0.51-0.85c-0.1,0.02-0.22,0.04-0.34,0.04h-1.53v-0.4h1.51
			c0.28,0,0.49-0.07,0.64-0.2s0.23-0.32,0.23-0.56c0-0.33-0.16-0.6-0.48-0.82h-1.9v-0.39h2.65v0.39h-0.3
			c0.26,0.23,0.38,0.53,0.38,0.88c0,0.41-0.17,0.71-0.49,0.91C37.54,354.45,37.7,354.8,37.7,355.24z"/>
		<path d="M37.62,359.56h-2.65v-0.39h0.31c-0.26-0.26-0.4-0.59-0.4-0.98c0-0.34,0.11-0.61,0.33-0.82c0.22-0.21,0.51-0.31,0.88-0.31
			h1.53v0.39h-1.51c-0.27,0-0.49,0.07-0.64,0.22s-0.23,0.34-0.23,0.59c0,0.36,0.17,0.67,0.49,0.91h1.89V359.56z"/>
		<path d="M37.7,361.91c0,0.33-0.11,0.6-0.33,0.82c-0.22,0.21-0.52,0.32-0.88,0.32h-1.53v-0.4h1.51c0.27,0,0.48-0.07,0.64-0.22
			s0.23-0.34,0.23-0.59c0-0.37-0.16-0.67-0.49-0.91h-1.88v-0.39h2.65v0.39H37.3C37.57,361.18,37.7,361.51,37.7,361.91z"/>
		<path d="M36.72,365.97h-0.4v-1.89h0.4V365.97z"/>
		<path d="M37.62,369.69h-2.74c-0.4,0-0.72-0.12-0.95-0.37c-0.24-0.25-0.36-0.56-0.36-0.95c0-0.34,0.09-0.63,0.28-0.87
			s0.42-0.39,0.71-0.44v0.41c-0.19,0.04-0.34,0.14-0.45,0.3c-0.12,0.16-0.17,0.36-0.17,0.6c0,0.28,0.09,0.5,0.26,0.67
			c0.17,0.17,0.4,0.26,0.69,0.26h0.46c-0.25-0.26-0.38-0.6-0.38-0.99c0-0.38,0.13-0.7,0.4-0.96c0.27-0.26,0.59-0.38,0.96-0.38
			c0.4,0,0.73,0.13,0.99,0.38c0.26,0.26,0.4,0.58,0.4,0.96c0,0.4-0.13,0.73-0.38,0.99h0.29V369.69z M35.31,368.35
			c0,0.41,0.17,0.72,0.5,0.95h1.06c0.33-0.23,0.5-0.54,0.5-0.95c0-0.29-0.1-0.52-0.3-0.71s-0.45-0.28-0.74-0.28
			c-0.28,0-0.52,0.09-0.72,0.28S35.31,368.06,35.31,368.35z"/>
		<path d="M37.62,373.03h-2.65v-0.39h0.31c-0.26-0.26-0.4-0.59-0.4-0.98c0-0.34,0.11-0.61,0.33-0.82c0.22-0.21,0.51-0.31,0.88-0.31
			h1.53v0.39h-1.51c-0.27,0-0.49,0.07-0.64,0.22s-0.23,0.34-0.23,0.59c0,0.36,0.17,0.67,0.49,0.91h1.89V373.03z"/>
		<path d="M34.17,373.75l0.76,0.29c0.03-0.12,0.11-0.18,0.22-0.18c0.07,0,0.13,0.03,0.19,0.08s0.08,0.12,0.08,0.19
			c0,0.08-0.03,0.14-0.08,0.19s-0.11,0.08-0.19,0.08c-0.04,0-0.12-0.03-0.26-0.09L34.17,374V373.75z"/>
		<path d="M32.06,292.48c0,0.41-0.1,0.75-0.29,1.03c-0.2,0.28-0.48,0.44-0.85,0.49v-0.4c0.52-0.1,0.79-0.46,0.79-1.1
			c0-0.3-0.07-0.54-0.2-0.71c-0.13-0.18-0.31-0.27-0.54-0.27c-0.34,0-0.56,0.27-0.67,0.8l-0.11,0.59c-0.14,0.72-0.48,1.09-1.02,1.09
			c-0.36,0-0.64-0.13-0.86-0.4c-0.21-0.27-0.32-0.62-0.32-1.05c0-0.47,0.12-0.84,0.35-1.13c0.23-0.29,0.56-0.45,0.98-0.5v0.4
			c-0.31,0.05-0.55,0.18-0.71,0.39c-0.17,0.21-0.25,0.5-0.25,0.85c0,0.31,0.07,0.56,0.21,0.74s0.33,0.28,0.56,0.28
			c0.34,0,0.57-0.25,0.67-0.74l0.13-0.68c0.14-0.72,0.48-1.08,1.02-1.08c0.34,0,0.61,0.13,0.81,0.38
			C31.96,291.73,32.06,292.07,32.06,292.48z"/>
		<path d="M29.41,297.31c-0.09,0-0.14,0-0.17-0.01l0.01-0.02h-0.01v-2.25c-0.27,0.03-0.49,0.14-0.66,0.32
			c-0.17,0.18-0.25,0.41-0.25,0.68c0,0.38,0.14,0.64,0.41,0.77v0.43c-0.23-0.08-0.41-0.22-0.54-0.44c-0.14-0.22-0.2-0.47-0.2-0.76
			c0-0.41,0.13-0.74,0.4-0.99c0.27-0.26,0.6-0.38,1-0.38c0.39,0,0.73,0.13,0.99,0.38c0.27,0.26,0.4,0.59,0.4,0.99
			c0,0.38-0.13,0.68-0.39,0.92C30.14,297.18,29.81,297.3,29.41,297.31z M30.45,296.01c0-0.27-0.09-0.49-0.26-0.67
			c-0.18-0.18-0.39-0.28-0.65-0.3v1.88c0.28-0.02,0.5-0.12,0.66-0.28C30.37,296.47,30.45,296.26,30.45,296.01z"/>
		<path d="M29.4,300.76c-0.4,0-0.73-0.14-1.01-0.41c-0.27-0.27-0.41-0.61-0.41-1c0-0.4,0.14-0.73,0.41-1
			c0.27-0.27,0.61-0.41,1.01-0.41c0.39,0,0.72,0.14,0.99,0.41c0.27,0.27,0.4,0.6,0.4,1c0,0.4-0.13,0.73-0.4,1
			C30.12,300.62,29.79,300.76,29.4,300.76z M29.4,300.36c0.29,0,0.53-0.1,0.73-0.29c0.2-0.2,0.3-0.43,0.3-0.72
			c0-0.29-0.1-0.53-0.3-0.72c-0.2-0.2-0.44-0.29-0.73-0.29c-0.29,0-0.55,0.1-0.75,0.29c-0.2,0.2-0.3,0.44-0.3,0.72
			s0.1,0.53,0.3,0.72C28.85,300.26,29.1,300.36,29.4,300.36z"/>
		<path d="M30.72,303.97h-2.65v-0.39h0.31c-0.26-0.26-0.4-0.59-0.4-0.98c0-0.34,0.11-0.61,0.33-0.82c0.22-0.21,0.51-0.31,0.88-0.31
			h1.53v0.39h-1.51c-0.27,0-0.49,0.07-0.64,0.22s-0.23,0.34-0.23,0.59c0,0.36,0.17,0.67,0.49,0.91h1.89V303.97z"/>
		<path d="M32.15,305.33h-4.08v-0.39h4.08V305.33z"/>
		<path d="M27.28,306.05l0.76,0.29c0.03-0.12,0.11-0.18,0.22-0.18c0.07,0,0.13,0.03,0.19,0.08s0.08,0.12,0.08,0.19
			c0,0.08-0.03,0.14-0.08,0.19s-0.11,0.08-0.19,0.08c-0.04,0-0.12-0.03-0.26-0.09l-0.72-0.31V306.05z"/>
		<path d="M29.49,310.42v-0.97h-1.42v-0.41h3.91v1.45c0,0.44-0.11,0.79-0.34,1.07c-0.23,0.28-0.53,0.41-0.91,0.41
			c-0.31,0-0.57-0.1-0.79-0.29c-0.21-0.19-0.35-0.46-0.42-0.8l-1.45,1.25v-0.51L29.49,310.42z M29.86,309.45v1.03
			c0,0.33,0.08,0.59,0.24,0.79c0.16,0.2,0.37,0.3,0.63,0.3c0.26,0,0.48-0.1,0.63-0.3c0.16-0.2,0.24-0.46,0.24-0.79v-1.03H29.86z"/>
		<path d="M29.41,315.14c-0.09,0-0.14,0-0.17-0.01l0.01-0.02h-0.01v-2.25c-0.27,0.03-0.49,0.14-0.66,0.32
			c-0.17,0.18-0.25,0.41-0.25,0.68c0,0.38,0.14,0.64,0.41,0.77v0.43c-0.23-0.08-0.41-0.22-0.54-0.44c-0.14-0.22-0.2-0.47-0.2-0.76
			c0-0.41,0.13-0.74,0.4-0.99c0.27-0.26,0.6-0.38,1-0.38c0.39,0,0.73,0.13,0.99,0.38c0.27,0.26,0.4,0.59,0.4,0.99
			c0,0.38-0.13,0.68-0.39,0.92C30.14,315.01,29.81,315.14,29.41,315.14z M30.45,313.84c0-0.27-0.09-0.49-0.26-0.67
			c-0.18-0.18-0.39-0.28-0.65-0.3v1.88c0.28-0.02,0.5-0.12,0.66-0.28C30.37,314.3,30.45,314.09,30.45,313.84z"/>
		<path d="M30.79,317.33c0,0.38-0.14,0.7-0.41,0.97c-0.27,0.27-0.6,0.4-0.99,0.4c-0.39,0-0.73-0.13-0.99-0.4
			c-0.27-0.27-0.41-0.6-0.41-0.97c0-0.38,0.12-0.71,0.37-0.96h-1.72v-0.39h4.08v0.39h-0.3C30.67,316.62,30.79,316.94,30.79,317.33z
			 M28.34,317.28c0,0.29,0.1,0.53,0.31,0.73c0.2,0.2,0.45,0.3,0.75,0.3c0.29,0,0.54-0.1,0.74-0.3c0.21-0.2,0.31-0.45,0.31-0.73
			c0-0.38-0.16-0.69-0.49-0.91h-1.12C28.5,316.59,28.34,316.89,28.34,317.28z"/>
		<path d="M30.72,321.91h-2.65v-0.39h0.31c-0.26-0.26-0.4-0.59-0.4-0.98c0-0.34,0.11-0.61,0.33-0.82c0.22-0.21,0.51-0.31,0.88-0.31
			h1.53v0.39h-1.51c-0.27,0-0.49,0.07-0.64,0.22s-0.23,0.34-0.23,0.59c0,0.36,0.17,0.67,0.49,0.91h1.89V321.91z"/>
		<path d="M30.79,324.24c0,0.38-0.14,0.7-0.41,0.97c-0.27,0.27-0.6,0.4-0.99,0.4s-0.72-0.13-0.99-0.4c-0.27-0.27-0.41-0.6-0.41-0.97
			c0-0.39,0.12-0.71,0.37-0.96h-0.3v-0.39h4.08v0.39h-1.72C30.67,323.53,30.79,323.85,30.79,324.24z M28.34,324.19
			c0,0.29,0.1,0.53,0.31,0.73c0.2,0.2,0.45,0.3,0.74,0.3c0.29,0,0.54-0.1,0.75-0.3c0.21-0.2,0.31-0.45,0.31-0.73
			c0-0.39-0.17-0.69-0.5-0.91h-1.11C28.51,323.5,28.34,323.8,28.34,324.19z"/>
		<path d="M32.15,326.8h-4.08v-0.39h4.08V326.8z"/>
		<path d="M30.72,328.25h-2.65v-0.4h2.65V328.25z M31.73,328.32c-0.11,0-0.18-0.04-0.23-0.13s-0.05-0.18,0-0.28
			c0.05-0.09,0.12-0.14,0.23-0.13c0.08,0,0.14,0.03,0.19,0.08s0.08,0.11,0.08,0.19c0,0.08-0.03,0.14-0.08,0.19
			S31.8,328.31,31.73,328.32z"/>
		<path d="M28.36,330.49c0,0.21,0.05,0.4,0.16,0.55c0.11,0.15,0.25,0.25,0.43,0.29v0.41c-0.28-0.05-0.52-0.2-0.7-0.42
			c-0.18-0.23-0.26-0.5-0.26-0.82c0-0.4,0.13-0.73,0.4-0.99c0.27-0.26,0.61-0.39,1-0.39c0.39,0,0.72,0.13,0.99,0.39
			c0.27,0.26,0.4,0.6,0.4,0.99c0,0.31-0.09,0.59-0.27,0.82c-0.18,0.23-0.41,0.38-0.69,0.42v-0.41c0.18-0.04,0.32-0.14,0.43-0.29
			c0.11-0.15,0.16-0.33,0.16-0.55c0-0.29-0.1-0.53-0.3-0.71c-0.2-0.18-0.45-0.28-0.74-0.28c-0.29,0-0.54,0.09-0.74,0.28
			C28.46,329.97,28.36,330.2,28.36,330.49z"/>
		<path d="M29.4,336.81c-0.4,0-0.73-0.14-1.01-0.41c-0.27-0.27-0.41-0.6-0.41-1c0-0.4,0.14-0.73,0.41-1.01
			c0.27-0.27,0.61-0.41,1.01-0.41c0.39,0,0.72,0.14,0.99,0.41c0.27,0.27,0.4,0.6,0.4,1.01c0,0.4-0.13,0.73-0.4,1
			C30.12,336.67,29.79,336.81,29.4,336.81z M29.4,336.41c0.29,0,0.53-0.1,0.73-0.29c0.2-0.2,0.3-0.43,0.3-0.72
			c0-0.29-0.1-0.53-0.3-0.72c-0.2-0.2-0.44-0.29-0.73-0.29c-0.29,0-0.55,0.1-0.75,0.29c-0.2,0.2-0.3,0.44-0.3,0.72
			s0.1,0.53,0.3,0.72C28.85,336.31,29.1,336.41,29.4,336.41z"/>
		<path d="M30.72,338.25v1.07h-0.34v-1.07h-2.32v-0.39h2.32v-0.78h0.34v0.78h0.69c0.3,0,0.54,0.09,0.73,0.26
			c0.18,0.17,0.27,0.4,0.27,0.68c0,0.17-0.03,0.35-0.08,0.55L32,339.29c0.04-0.15,0.06-0.29,0.06-0.42c0-0.19-0.06-0.34-0.17-0.45
			c-0.12-0.11-0.27-0.17-0.46-0.17H30.72z"/>
		<path d="M29.9,342.63l-0.8-0.76h-1.02v-0.41h3.91v0.41h-2.32l2.32,2.24v0.5l-1.78-1.69l-2.12,1.9v-0.52L29.9,342.63z"/>
		<path d="M29.4,347.89c-0.4,0-0.73-0.14-1.01-0.41c-0.27-0.27-0.41-0.61-0.41-1c0-0.4,0.14-0.73,0.41-1
			c0.27-0.27,0.61-0.41,1.01-0.41c0.39,0,0.72,0.14,0.99,0.41c0.27,0.27,0.4,0.6,0.4,1c0,0.4-0.13,0.73-0.4,1
			C30.12,347.75,29.79,347.89,29.4,347.89z M29.4,347.49c0.29,0,0.53-0.1,0.73-0.29c0.2-0.2,0.3-0.43,0.3-0.72
			c0-0.29-0.1-0.53-0.3-0.72c-0.2-0.2-0.44-0.29-0.73-0.29c-0.29,0-0.55,0.1-0.75,0.29c-0.2,0.2-0.3,0.44-0.3,0.72
			s0.1,0.53,0.3,0.72C28.85,347.39,29.1,347.49,29.4,347.49z"/>
		<path d="M30.72,349.05h-0.46c0.35,0.26,0.53,0.61,0.53,1.04h-0.37c-0.01-0.44-0.22-0.79-0.62-1.04h-1.73v-0.39h2.65V349.05z"/>
		<path d="M29.41,353.15c-0.09,0-0.14,0-0.17-0.01l0.01-0.02h-0.01v-2.25c-0.27,0.03-0.49,0.14-0.66,0.32
			c-0.17,0.18-0.25,0.41-0.25,0.68c0,0.38,0.14,0.64,0.41,0.77v0.42c-0.23-0.08-0.41-0.22-0.54-0.44c-0.14-0.22-0.2-0.47-0.2-0.76
			c0-0.41,0.13-0.74,0.4-0.99c0.27-0.26,0.6-0.38,1-0.38c0.39,0,0.73,0.13,0.99,0.38c0.27,0.26,0.4,0.59,0.4,0.99
			c0,0.38-0.13,0.68-0.39,0.92C30.14,353.02,29.81,353.14,29.41,353.15z M30.45,351.84c0-0.27-0.09-0.49-0.26-0.67
			c-0.18-0.18-0.39-0.28-0.65-0.3v1.88c0.28-0.02,0.5-0.12,0.66-0.28C30.37,352.31,30.45,352.1,30.45,351.84z"/>
		<path d="M30.72,356.5h-2.65v-0.4h0.29c-0.25-0.26-0.37-0.58-0.37-0.96c0-0.38,0.14-0.7,0.41-0.97c0.27-0.27,0.6-0.4,0.99-0.4
			c0.39,0,0.72,0.13,0.99,0.4c0.27,0.27,0.41,0.6,0.41,0.97c0,0.38-0.12,0.7-0.37,0.96h0.3V356.5z M28.34,355.2
			c0,0.38,0.16,0.69,0.48,0.91h1.14c0.32-0.22,0.48-0.52,0.48-0.91c0-0.29-0.1-0.54-0.31-0.73c-0.21-0.2-0.45-0.29-0.74-0.29
			c-0.29,0-0.54,0.1-0.75,0.29C28.44,354.67,28.34,354.91,28.34,355.2z"/>
	</g>
</g>
<g id="guide">
	<g>
		<g>
			<g>
				<line class="st1" x1="276.37" y1="0" x2="290.56" y2="0"/>
				<line class="st1" x1="283.46" y1="7.1" x2="283.46" y2="-7.1"/>
			</g>
			<g>
				<line class="st1" x1="276.37" y1="425.18" x2="290.56" y2="425.18"/>
				<line class="st1" x1="283.46" y1="432.28" x2="283.46" y2="418.08"/>
			</g>
		</g>
		<g>
			<g>
				<line class="st1" x1="-7.1" y1="0" x2="7.1" y2="0"/>
				<line class="st1" x1="0" y1="7.1" x2="0" y2="-7.1"/>
			</g>
			<g>
				<line class="st1" x1="-7.1" y1="425.19" x2="7.1" y2="425.19"/>
				<line class="st1" x1="0" y1="432.29" x2="0" y2="418.09"/>
			</g>
		</g>
	</g>
</g>
<g id="image_box">
	<g>
		<defs>
			<rect id="SVGID_1_" x="5.59" y="5.52" width="68.03" height="206.93"/>
		</defs>
		<clipPath id="SVGID_00000159469266400994612500000002716227924680138397_">
			<use xlink:href="#SVGID_1_"  style="overflow:visible;"/>
		</clipPath>
		<use xlink:href="#SVGID_1_"  style="overflow:visible;fill:none;stroke:#000000;stroke-width:0.1;stroke-miterlimit:10;"/>
	</g>
	<g>
		<defs>
			<rect id="SVGID_00000034788256205853606040000001135375110126815368_" x="141.66" y="5.38" width="68.03" height="206.93"/>
		</defs>
		<clipPath id="SVGID_00000034794431482435793560000010649041362565225113_">
			<use xlink:href="#SVGID_00000034788256205853606040000001135375110126815368_"  style="overflow:visible;"/>
		</clipPath>
		<g style="clip-path:url(#SVGID_00000034794431482435793560000010649041362565225113_);">
			<defs>
				
					<rect id="SVGID_00000010306194378195505360000012353074654624957834_" x="-15.23" y="-50.93" transform="matrix(-1.836970e-16 1 -1 -1.836970e-16 198.899 19.0384)" width="210.32" height="319.8"/>
			</defs>
			<clipPath id="SVGID_00000176737540162239430810000006768714558776129962_">
				<use xlink:href="#SVGID_00000010306194378195505360000012353074654624957834_"  style="overflow:visible;"/>
			</clipPath>
		</g>
		
			<use xlink:href="#SVGID_00000034788256205853606040000001135375110126815368_"  style="overflow:visible;fill:none;stroke:#000000;stroke-width:0.1;stroke-miterlimit:10;"/>
	</g>
	<g>
		<defs>
			<rect id="SVGID_00000158000796409821906030000014869070690272555711_" x="209.83" y="212.25" width="68.03" height="206.93"/>
		</defs>
		<clipPath id="SVGID_00000032612332494061404190000012973548687746443425_">
			<use xlink:href="#SVGID_00000158000796409821906030000014869070690272555711_"  style="overflow:visible;"/>
		</clipPath>
		
			<use xlink:href="#SVGID_00000158000796409821906030000014869070690272555711_"  style="overflow:visible;fill:none;stroke:#000000;stroke-width:0.1;stroke-miterlimit:10;"/>
	</g>
	<g>
		<defs>
			<rect id="SVGID_00000181809178291926067230000001311326455762998965_" x="73.62" y="212.45" width="68.03" height="206.93"/>
		</defs>
		<clipPath id="SVGID_00000178887236914533268790000011611445178267547293_">
			<use xlink:href="#SVGID_00000181809178291926067230000001311326455762998965_"  style="overflow:visible;"/>
		</clipPath>
		
			<use xlink:href="#SVGID_00000181809178291926067230000001311326455762998965_"  style="overflow:visible;fill:none;stroke:#000000;stroke-width:0.1;stroke-miterlimit:10;"/>
	</g>
	<g>
		<defs>
			<rect id="SVGID_00000057107360878556953460000013462323252575357870_" x="73.62" y="5.41" width="68.03" height="206.93"/>
		</defs>
		<clipPath id="SVGID_00000132779033179034231520000006190549952172679048_">
			<use xlink:href="#SVGID_00000057107360878556953460000013462323252575357870_"  style="overflow:visible;"/>
		</clipPath>
		
			<use xlink:href="#SVGID_00000057107360878556953460000013462323252575357870_"  style="overflow:visible;fill:none;stroke:#000000;stroke-width:0.1;stroke-miterlimit:10;"/>
	</g>
	<g>
		<defs>
			<rect id="SVGID_00000129909839140471430660000009185798066393173663_" x="141.65" y="212.22" width="68.03" height="206.93"/>
		</defs>
		<clipPath id="SVGID_00000114074572891029687390000001526122115326821267_">
			<use xlink:href="#SVGID_00000129909839140471430660000009185798066393173663_"  style="overflow:visible;"/>
		</clipPath>
		
			<use xlink:href="#SVGID_00000129909839140471430660000009185798066393173663_"  style="overflow:visible;fill:none;stroke:#000000;stroke-width:0.1;stroke-miterlimit:10;"/>
	</g>
</g>
<g id="배경">
</g>
</svg>
