<?xml version="1.0" encoding="UTF-8"?>
<svg id="_레이어_1" data-name=" 레이어 1" xmlns="http://www.w3.org/2000/svg" version="1.1" viewBox="0 0 504.6 360">
  <defs>
    <style>
      .cls-1 {
        fill: #fff;
        stroke-width: 0px;
      }

      .cls-2 {
        stroke: #c9caca;
        stroke-width: .2px;
      }

      .cls-2, .cls-3 {
        fill: none;
        stroke-miterlimit: 10;
      }

      .cls-3 {
        stroke: #000;
        stroke-width: .1px;
      }
    </style>
  </defs>
  <g id="guide">
    <g>
      <g>
        <line class="cls-2" y1="8.5" y2="-8.3"/>
        <line class="cls-2" x1="8.3" y1="0" x2="-8.5" y2="0"/>
      </g>
      <g>
        <line class="cls-2" x1="504.1" y1="8.5" x2="504.1" y2="-8.3"/>
        <line class="cls-2" x1="512.5" y1="0" x2="495.7" y2="0"/>
      </g>
    </g>
    <g>
      <g>
        <line class="cls-2" y1="368.4" y2="351.6"/>
        <line class="cls-2" x1="8.3" y1="360" x2="-8.5" y2="360"/>
      </g>
      <g>
        <line class="cls-2" x1="504.1" y1="368.4" x2="504.1" y2="351.6"/>
        <line class="cls-2" x1="512.5" y1="360" x2="495.7" y2="360"/>
      </g>
    </g>
  </g>
  <rect class="cls-3" x="410.7" y="9.9" width="85" height="113.4"/>
  <rect class="cls-3" x="410.7" y="123.3" width="85" height="113.4"/>
  <rect class="cls-3" x="410.7" y="236.7" width="85" height="113.4"/>
  <rect class="cls-3" x="325.6" y="9.9" width="85" height="113.4"/>
  <rect class="cls-3" x="325.6" y="123.3" width="85" height="113.4"/>
  <rect class="cls-3" x="325.6" y="236.7" width="85" height="113.4"/>
  <g>
    <path class="cls-1" d="M289.9,124.1h-127.6V24.9h127.6v99.2ZM165.2,121.3h121.9V27.7h-121.9v93.5h0Z"/>
    <rect class="cls-3" x="162.4" y="24.9" width="127.6" height="99.2"/>
  </g>
  <g>
    <path class="cls-1" d="M289.9,223.3h-127.6v-99.2h127.6v99.2ZM165.2,220.5h121.9v-93.5h-121.9v93.5h0Z"/>
    <rect class="cls-3" x="162.4" y="124.1" width="127.6" height="99.2"/>
  </g>
  <g>
    <path class="cls-1" d="M289.9,322.5h-127.6v-99.2h127.6v99.2ZM165.2,319.7h121.9v-93.5h-121.9v93.5h0Z"/>
    <rect class="cls-3" x="162.4" y="223.3" width="127.6" height="99.2"/>
  </g>
  <g>
    <path class="cls-1" d="M162.4,124.1H34.8V24.9h127.6v99.2ZM37.6,121.3h121.9V27.7H37.6v93.5h0Z"/>
    <rect class="cls-3" x="34.8" y="24.9" width="127.6" height="99.2"/>
  </g>
  <g>
    <path class="cls-1" d="M162.4,223.3H34.8v-99.2h127.6v99.2ZM37.6,220.5h121.9v-93.5H37.6v93.5Z"/>
    <rect class="cls-3" x="34.8" y="124.1" width="127.6" height="99.2"/>
  </g>
  <g>
    <path class="cls-1" d="M162.4,322.5H34.8v-99.2h127.6v99.2ZM37.6,319.7h121.9v-93.5H37.6v93.5Z"/>
    <rect class="cls-3" x="34.8" y="223.3" width="127.6" height="99.2"/>
  </g>
</svg>