<?xml version="1.0" encoding="UTF-8"?>
<svg id="_레이어_1" data-name="레이어 1" xmlns="http://www.w3.org/2000/svg" version="1.1" viewBox="0 0 283.5 425.2">
  <defs>
    <style>
      .cls-1 {
    //    fill: #000;
        stroke-width: 0px;
      }

      .cls-2 {
        stroke: #c9caca;
        stroke-width: .2px;
      }

      .cls-2, .cls-3 {
        fill: none;
        stroke-miterlimit: 10;
      }

      .cls-3 {
        stroke: #000;
        stroke-width: .1px;
      }
    </style>
  </defs>
  <g id="logo">
    <g>
      <g>
        <path class="cls-1" d="M169.2,384.8c0,3.1-1.5,4.9-4.1,4.9s-3.9-1.7-3.9-4.6v-8.5h-1.8v8.1c0,3.7,1.9,5.6,5.6,5.6s4.9-2.1,4.9-5.6v-8.1h-.6v8.1Z"/>
        <path class="cls-1" d="M175.4,376.6h-3.2v13.6h1.8v-6.3h.9c1.8,0,3.2-.4,4-1.3.7-.6,1-1.5,1-2.6,0-2.1-1.7-3.4-4.4-3.4ZM177.3,382.4c-.6.6-1.4.9-2.3.9h-.9v-6.1s1.5,0,1.5,0c1.7,0,2.6,1,2.6,2.8,0,1-.3,1.9-.9,2.5Z"/>
        <rect class="cls-1" x="181.5" y="376.6" width="1.8" height="13.6"/>
        <path class="cls-1" d="M190,376.6h-4.5v13.6h4.4c4.2,0,7.3-3,7.3-6.9,0-4-2.9-6.8-7.3-6.8ZM195.4,383.3c0,3.8-2.2,6.3-5.5,6.3h-2.6v-12.4h2.7c3.4,0,5.3,2.2,5.3,6.2Z"/>
        <path class="cls-1" d="M205.2,376.5c-4,0-7,3-7,6.9s2.9,6.9,7,6.9,6.9-3,6.9-6.9-3-6.9-6.9-6.9ZM205.2,377.1c3.1,0,5.1,2.4,5.1,6.3s-1.9,6.3-5.1,6.3-5.1-2.4-5.1-6.3c0-3.9,2-6.3,5.1-6.3Z"/>
        <path class="cls-1" d="M222.2,381.7c-1.7-.5-3.2-.9-3.2-2.5s1.2-2.1,3.1-2.1h.1c2,0,3.1,1.2,3.1,2.2s0,.7-.2.9v.2c-.1,0,.4.3.4.3h.1c.2-.5.3-.9.3-1.4,0-1.4-1.3-2.8-3.7-2.8s-4.2,1.4-4.2,3.5,2.1,3.1,3.9,3.6c1.7.5,3.4,1,3.4,2.9s-1.9,3.3-3.6,3.3c-2.3,0-3.9-1.5-3.9-3.6v-.2h-.6v.2c0,2.5,1.8,4.2,4.5,4.2s4.7-1.5,4.7-4.8c0-2.7-2.2-3.3-4.1-3.9Z"/>
        <polygon class="cls-1" points="229.7 382.2 234.8 382.2 234.8 381.7 229.7 381.7 229.7 377.2 235.7 377.2 235.7 376.6 227.9 376.6 227.9 390.2 235.9 390.2 235.9 389.6 229.7 389.6 229.7 382.2"/>
        <path class="cls-1" d="M243.2,376.5c-4,0-7,3-7,6.9s2.9,6.9,7,6.9,6.9-3,6.9-6.9-3-6.9-6.9-6.9ZM243.2,377.1c3.1,0,5.1,2.4,5.1,6.3s-1.9,6.3-5.1,6.3-5.1-2.4-5.1-6.3,2-6.3,5.1-6.3Z"/>
        <path class="cls-1" d="M261.8,384.8c0,3.1-1.5,4.9-4.1,4.9s-3.9-1.7-3.9-4.6v-8.5h-1.8v8.1c0,3.7,1.9,5.6,5.6,5.6s4.9-2.1,4.9-5.6v-8.1h-.6v8.1h0Z"/>
        <polygon class="cls-1" points="266.5 389.6 266.5 376.6 264.7 376.6 264.7 390.2 272.7 390.2 272.7 389.6 266.5 389.6"/>
        <path class="cls-1" d="M156.3,388.9c0,0-.2.1-.2.2-.2.5-.5.8-.7,1.1-.2.2-.4.4-.7.6-.3.2-.8.3-1.4.4-1.1,0-2.3-.4-3.2-.8h0c4,0,6.9-3,6.9-6.9s-3-6.9-6.9-6.9-7,3-7,6.9,1,4.3,2.6,5.5c-.7.5-1.5,1.7-1.5,1.8h0c0,.1-.1.3-.1.4,0,.3.2.5.5.5s.5-.2.5-.4c0,0,0-.1,0-.2h0s0,0,0,0c0-.1,0-.2,0-.3h0c0-.3.1-.4.2-.6h-.2c0,0,.2,0,.2,0,0,0,0-.1.2-.2.2-.3.4-.4.6-.5.4.3.9.5,1.4.6.2.2.4.3.6.5.1,0,.2.2.4.3h0c.2.2.3.3.5.4.2.1.3.2.5.3,0,0,.1,0,.2.1h.2c1,.6,1.9.8,2.7.8,3,0,4.1-2.9,4.1-3v-.2c0,0-.7-.4-.7-.4h0ZM150.1,377.1c3.1,0,5.1,2.4,5.1,6.3s-1.9,6.3-5.1,6.3-5.1-2.4-5.1-6.3,2-6.3,5.1-6.3Z"/>
      </g>
      <g>
        <path class="cls-1" d="M215.8,393.8h3.8c2.2,0,4.1.9,4.1,3,0,2.4-1.7,3.5-5.9,3.5h-.4v7.5h-1.6v-14.1h0ZM217.9,400.2c3.4,0,4.5-1.3,4.5-3.3,0-1.8-.9-2.8-3-2.8h-2v6.1h.5ZM222.1,402.9c-.9-1.7-1.1-2.5-2.9-2.5h-1.3v-.2h1.5c3.2,0,3.6,1.1,4.3,2.6l2.6,5.1h-1.6l-2.5-5Z"/>
        <path class="cls-1" d="M226,400.9c0-4.1,3.1-7.2,7.2-7.2s7.2,3.2,7.2,7.2-3,7.2-7.2,7.2c-4.2,0-7.2-3.1-7.2-7.2ZM238.9,400.9c0-4.2-2.1-7-5.6-7s-5.6,2.8-5.6,7,2.1,7,5.6,7c3.5,0,5.6-2.7,5.6-7Z"/>
        <path class="cls-1" d="M241.9,400.9c0-4.1,3.1-7.2,7.2-7.2s7.2,3.2,7.2,7.2-3,7.2-7.2,7.2c-4.2,0-7.2-3.1-7.2-7.2ZM254.7,400.9c0-4.2-2.1-7-5.6-7s-5.6,2.8-5.6,7,2.1,7,5.6,7c3.5,0,5.6-2.7,5.6-7Z"/>
        <path class="cls-1" d="M258,393.8h.5v.8l-.5-.8ZM258.5,393.8h1.3l5.4,9.4h0l5.8-9.4h1.1v14.1h-1.5v-13.3l.4-.3-6.2,10.2h-.5l-5.6-9.9h.2c0,0,0,13.3,0,13.3h-.2v-14.1h0Z"/>
      </g>
      <path class="cls-1" d="M155.9,406.9c0,0-.2.1-.2.2-.2.5-.5.8-.7,1.1-.2.2-.4.4-.7.6-.3.2-.8.3-1.4.4-1.1,0-2.3-.4-3.2-.8h0c4,0,6.9-3,6.9-6.9s-3-6.9-6.9-6.9-7,3-7,6.9,1,4.3,2.6,5.5c-.7.5-1.5,1.7-1.5,1.8h0c0,.1-.1.3-.1.4,0,.3.2.5.5.5s.5-.2.5-.4c0,0,0-.1,0-.2h0s0,0,0,0c0-.1,0-.2,0-.3h0c0-.3.1-.4.2-.6h-.2c0,0,.2,0,.2,0,0,0,0-.1.2-.2.2-.3.4-.4.6-.5.4.3.9.5,1.4.6.2.2.4.3.6.5.1,0,.2.2.4.3h0c.2.2.3.3.5.4.2.1.3.2.5.3,0,0,.1,0,.2.1h.2c1,.6,1.9.8,2.7.8,3,0,4.1-2.9,4.1-3v-.2c0,0-.7-.4-.7-.4h0ZM149.7,395.1c3.1,0,5.1,2.4,5.1,6.3s-1.9,6.3-5.1,6.3-5.1-2.4-5.1-6.3c0-3.9,2-6.3,5.1-6.3Z"/>
      <rect class="cls-1" x="164.2" y="402.3" width="43.5" height=".3"/>
    </g>
  </g>
  <g id="guide">
    <g>
      <g>
        <g>
          <line class="cls-2" x1="276.4" x2="290.6"/>
          <line class="cls-2" x1="283.5" y1="7.1" x2="283.5" y2="-7.1"/>
        </g>
        <g>
          <line class="cls-2" x1="276.4" y1="425.2" x2="290.6" y2="425.2"/>
          <line class="cls-2" x1="283.5" y1="432.3" x2="283.5" y2="418.1"/>
        </g>
      </g>
      <g>
        <g>
          <line class="cls-2" x1="-7.1" x2="7.1"/>
          <line class="cls-2" y1="7.1" y2="-7.1"/>
        </g>
        <g>
          <line class="cls-2" x1="-7.1" y1="425.2" x2="7.1" y2="425.2"/>
          <line class="cls-2" y1="432.3" y2="418.1"/>
        </g>
      </g>
    </g>
  </g>
  <g id="image_box" data-name="image box">
    <rect class="cls-3" x="0" width="283.5" height="425.2"/>
  </g>
</svg>
