<?xml version="1.0" encoding="UTF-8"?>
<svg id="_레이어_1" data-name="레이어 1" xmlns="http://www.w3.org/2000/svg" xmlns:xlink="http://www.w3.org/1999/xlink" viewBox="0 0 283.46 425.2">
  <defs>
    <style>
      .cls-1 {
        fill: #231815;
      }

      .cls-1, .cls-2 {
        stroke-width: 0px;
      }

      .cls-2 {
        fill: #000;
      }

      .cls-3 {
        stroke-width: .28px;
      }

      .cls-3, .cls-4 {
        fill: none;
        stroke: #231815;
        stroke-miterlimit: 10;
      }

      .cls-4 {
        stroke-width: .14px;
      }
    </style>
    <clipPath id="clippath-1">
      <rect class="cls-4" x="142" y="5.74" width="68.03" height="206.93"/>
    </clipPath>
    <clipPath id="clippath-3">
      <rect class="cls-4" x="210.18" y="212.62" width="68.03" height="206.93"/>
    </clipPath>
  </defs>
  <g>
    <rect class="cls-4" x="5.94" y="5.88" width="68.03" height="206.93"/>
    <g>
      <path class="cls-1" d="M248.67,95.02c-1.42,0-2.26-.71-2.26-1.9s.79-1.8,2.13-1.8h3.89v-.84h-3.73c-1.71,0-2.58.86-2.58,2.56,0,1.38.99,2.25,2.57,2.25h3.74v-.27h-3.76Z"/>
      <path class="cls-1" d="M252.43,97.87v-1.49h-6.26v.84l2.91.02v.39c0,.83.2,1.45.59,1.84.3.3.71.45,1.21.45.97,0,1.55-.77,1.55-2.04ZM249.74,98.72c-.26-.25-.39-.63-.39-1.08v-.41l2.81-.02v.68c0,.77-.46,1.2-1.28,1.21-.48,0-.87-.13-1.14-.39Z"/>
      <rect class="cls-1" x="246.17" y="100.66" width="6.26" height=".84"/>
      <path class="cls-1" d="M252.43,104.59v-2.08h-6.26v2.05c0,1.92,1.36,3.37,3.15,3.37s3.11-1.34,3.11-3.34ZM249.32,107.06c-1.75,0-2.88-.99-2.88-2.52v-1.2h5.72v1.26c0,1.56-1.03,2.45-2.84,2.45Z"/>
      <path class="cls-1" d="M252.48,111.58c0-1.83-1.37-3.2-3.19-3.2s-3.19,1.35-3.19,3.2,1.37,3.19,3.19,3.19,3.18-1.37,3.18-3.19ZM252.21,111.58c0,1.44-1.12,2.33-2.92,2.33s-2.92-.89-2.92-2.33,1.12-2.35,2.92-2.35,2.92.9,2.92,2.35Z"/>
      <path class="cls-1" d="M250.09,119.39c.23-.79.42-1.47,1.16-1.47.56,0,.96.58.96,1.4v.05c-.02.93-.53,1.42-1.04,1.42-.18,0-.32-.03-.43-.11l-.08-.05-.14.23.07.05c.15.09.36.15.57.15.63,0,1.31-.59,1.31-1.7,0-1.16-.64-1.94-1.59-1.94-1.14,0-1.42.95-1.66,1.79-.23.8-.45,1.56-1.34,1.56-1.12,0-1.51-.9-1.51-1.66,0-1.07.67-1.79,1.66-1.79h.09v-.27h-.09c-1.15,0-1.93.83-1.93,2.07,0,1.08.68,2.17,2.21,2.17,1.23,0,1.52-1.01,1.78-1.91Z"/>
      <polygon class="cls-1" points="249.83 122.86 249.83 125.21 250.1 125.21 250.1 122.86 252.16 122.86 252.16 125.61 252.43 125.61 252.43 122.03 246.17 122.03 246.17 125.69 246.44 125.69 246.44 122.86 249.83 122.86"/>
      <path class="cls-1" d="M252.48,129.04c0-1.82-1.37-3.2-3.19-3.2s-3.19,1.35-3.19,3.2,1.37,3.19,3.19,3.19,3.18-1.37,3.18-3.19ZM252.21,129.04c0,1.44-1.12,2.33-2.92,2.33s-2.92-.89-2.92-2.33,1.12-2.35,2.92-2.35,2.92.9,2.92,2.35Z"/>
      <path class="cls-1" d="M248.67,137.6c-1.42,0-2.26-.71-2.26-1.9s.79-1.8,2.13-1.8h3.89v-.84h-3.73c-1.71,0-2.58.86-2.58,2.56,0,1.39.99,2.25,2.57,2.25h3.74v-.27h-3.76Z"/>
      <polygon class="cls-1" points="246.44 139.79 252.43 139.79 252.43 138.95 246.17 138.95 246.17 142.63 246.44 142.63 246.44 139.79"/>
      <path class="cls-1" d="M246.78,89.08s-.05-.08-.11-.1c-.21-.11-.37-.22-.5-.34-.11-.1-.2-.21-.26-.33-.1-.15-.16-.36-.16-.62,0-.48.19-1.04.36-1.45h0c0,1.82,1.37,3.2,3.19,3.2s3.18-1.37,3.18-3.19-1.37-3.2-3.19-3.2c-1.04,0-1.97.44-2.55,1.21-.24-.33-.78-.67-.8-.69l-.03-.02s-.1-.06-.15-.06c-.12,0-.23.1-.23.23s.09.22.2.23c.02,0,.05.02.09.03h0s.03.01.03.01c.05.01.09.03.13.04l.05.02c.07.03.14.06.21.1l.04-.08v.09s.05.04.09.07c.12.1.18.2.21.26-.12.19-.21.4-.29.63-.08.09-.15.19-.22.28-.04.05-.08.11-.13.18l-.02.04c-.05.07-.1.15-.15.23-.04.07-.09.15-.13.22-.02.03-.04.07-.05.1l-.05.1c-.22.44-.33.86-.33,1.25,0,1.36,1.35,1.9,1.36,1.91l.07.03.17-.33-.03-.04ZM252.21,86.24c0,1.44-1.12,2.33-2.92,2.33s-2.92-.89-2.92-2.33,1.12-2.35,2.92-2.35,2.92.9,2.92,2.35Z"/>
    </g>
    <g>
      <path class="cls-1" d="M240.04,63.86v-.63h-.86v-.39h.86v-2.1h.25l2.8,1.19v.42l-2.7-1.13v1.63h1.27v.39h-1.27v.63h-.35Z"/>
      <path class="cls-1" d="M241.16,66.44c-.18.44-.49.65-.94.65-.33,0-.59-.12-.8-.37-.21-.25-.31-.57-.31-.96s.09-.71.28-.96.44-.38.75-.42v.4c-.21.03-.38.14-.5.31-.12.17-.18.4-.18.67s.07.51.21.68c.14.17.32.26.55.26s.41-.08.55-.25c.14-.17.21-.39.21-.67v-.32h.33v.32c0,.24.07.44.2.58.14.15.32.22.54.22s.41-.08.55-.23c.14-.15.21-.36.21-.62,0-.23-.06-.43-.18-.58-.12-.15-.28-.24-.49-.27v-.4c.31.03.55.15.74.38.19.22.28.51.28.86,0,.38-.1.68-.3.91s-.47.34-.8.34c-.41,0-.71-.18-.89-.53Z"/>
      <path class="cls-1" d="M240.94,69.87h-.4v-1.89h.4v1.89Z"/>
      <path class="cls-1" d="M241.79,72.31c0,.41-.12.76-.37,1.03-.25.27-.57.41-.96.41s-.72-.14-.98-.41c-.26-.27-.38-.61-.38-1.03s.12-.76.38-1.03c.26-.27.58-.41.97-.41.3,0,.6.1.9.32l1.74,1.23v.48l-1.34-.94c.03.12.04.24.04.36ZM240.44,73.34c.29,0,.52-.1.71-.29.19-.19.28-.44.28-.75s-.09-.57-.28-.76l-.04-.03c-.23-.16-.46-.25-.68-.25-.29,0-.53.1-.72.29-.19.19-.28.44-.28.75s.09.56.28.75c.19.2.44.29.73.29Z"/>
      <path class="cls-1" d="M238.39,74.19l.76.29c.04-.12.11-.18.22-.18.07,0,.13.03.19.08.05.05.08.12.08.19s-.03.14-.08.19c-.05.05-.11.08-.19.08-.04,0-.12-.03-.26-.09l-.72-.31v-.25Z"/>
      <path class="cls-1" d="M243.08,79.97l-2.51-1.61h-1.39v-.41h1.39l2.51-1.62v.45l-2.13,1.37,2.13,1.37v.45Z"/>
      <path class="cls-1" d="M240.52,82.35c-.09,0-.14,0-.17,0v-.02s0,0,0,0v-2.25c-.27.03-.49.14-.66.32-.17.18-.25.41-.25.68,0,.38.14.64.41.77v.43c-.23-.08-.41-.22-.54-.44-.14-.22-.2-.47-.2-.76,0-.41.13-.74.4-.99.27-.26.6-.38,1-.38s.73.13.99.38.4.59.4.99c0,.38-.13.68-.39.92-.26.24-.59.36-.99.37ZM241.56,81.05c0-.27-.09-.49-.26-.67-.18-.18-.39-.28-.65-.3v1.88c.28-.02.5-.12.66-.28s.25-.37.25-.63Z"/>
      <path class="cls-1" d="M240.5,85.8c-.4,0-.73-.14-1.01-.41-.27-.27-.41-.6-.41-1s.13-.73.41-1.01c.27-.27.61-.41,1.01-.41s.72.14.99.41c.27.27.4.6.4,1.01s-.13.73-.4,1c-.27.27-.6.41-.99.41ZM240.5,85.4c.29,0,.53-.1.73-.29.2-.2.3-.43.3-.72s-.1-.53-.3-.72c-.2-.2-.44-.29-.73-.29s-.54.1-.75.29c-.2.2-.3.44-.3.72s.1.53.3.72c.21.2.46.29.75.29Z"/>
      <path class="cls-1" d="M241.92,87.94c0,.33-.11.6-.33.82-.22.21-.52.32-.88.32h-1.53v-.4h1.51c.27,0,.48-.07.64-.22.15-.15.23-.34.23-.59,0-.37-.16-.67-.49-.91h-1.88v-.39h2.65v.39h-.32c.27.26.4.58.4.98Z"/>
      <path class="cls-1" d="M241.92,91.29c0,.33-.11.6-.33.82-.22.21-.52.32-.88.32h-1.53v-.4h1.51c.27,0,.48-.07.64-.22.15-.15.23-.34.23-.59,0-.37-.16-.67-.49-.91h-1.88v-.39h4.08v.39h-1.74c.27.26.4.58.4.98Z"/>
      <path class="cls-1" d="M241.83,95.66h-2.65v-.39h.31c-.27-.26-.4-.59-.4-.98,0-.34.11-.61.33-.82.22-.21.51-.31.88-.31h1.54v.39h-1.51c-.27,0-.48.07-.64.22-.15.15-.23.34-.23.59,0,.36.16.67.49.91h1.89v.39Z"/>
      <path class="cls-1" d="M241.83,97.11h-2.65v-.4h2.65v.4ZM242.84,97.18c-.11,0-.18-.04-.23-.13-.05-.09-.05-.18,0-.28.04-.09.12-.14.23-.13.08,0,.14.03.19.08.05.05.08.11.08.19s-.03.14-.08.19c-.05.05-.12.08-.19.08Z"/>
      <path class="cls-1" d="M241.92,101.41c0,.32-.11.58-.33.78-.22.2-.52.3-.88.3h-1.53v-.39h1.51c.28,0,.49-.07.64-.2.15-.13.23-.32.23-.56,0-.36-.17-.65-.51-.85-.1.02-.22.03-.34.03h-1.53v-.4h1.51c.28,0,.49-.07.64-.2.15-.13.23-.32.23-.56,0-.33-.16-.6-.48-.82h-1.89v-.39h2.65v.39h-.3c.26.23.38.53.38.88,0,.41-.17.71-.49.91.33.27.49.63.49,1.06Z"/>
      <path class="cls-1" d="M241.83,105.94h-2.65v-.4h.29c-.25-.26-.37-.58-.37-.96s.13-.7.41-.97c.27-.27.6-.4.99-.4s.72.13.99.4c.27.27.41.6.41.97s-.12.7-.37.96h.3v.4ZM239.45,104.64c0,.38.16.69.48.91h1.14c.32-.22.48-.52.48-.91,0-.29-.1-.54-.31-.73-.21-.2-.46-.29-.74-.29s-.54.1-.75.29c-.21.2-.31.45-.31.73Z"/>
      <path class="cls-1" d="M239.52,108.58l-.34.06c-.06-.21-.09-.4-.09-.57,0-.61.35-.92,1.04-.92h1.36v-.71h.34v.71h.98v.39h-.98v1.01h-.34v-1.01h-1.36c-.24,0-.41.05-.52.14s-.16.25-.16.45c0,.13.02.28.07.44Z"/>
      <path class="cls-1" d="M240.94,111.04h-.4v-1.89h.4v1.89Z"/>
      <path class="cls-1" d="M241.83,112.59h-.46c.35.26.53.61.53,1.04h-.37c-.01-.44-.22-.79-.62-1.04h-1.73v-.39h2.65v.39Z"/>
      <path class="cls-1" d="M240.5,116.84c-.4,0-.73-.14-1.01-.41-.27-.27-.41-.6-.41-1s.13-.73.41-1.01c.27-.27.61-.41,1.01-.41s.72.14.99.41c.27.27.4.6.4,1.01s-.13.73-.4,1c-.27.27-.6.41-.99.41ZM240.5,116.44c.29,0,.53-.1.73-.29.2-.2.3-.43.3-.72s-.1-.53-.3-.72c-.2-.2-.44-.29-.73-.29s-.54.1-.75.29c-.2.2-.3.44-.3.72s.1.53.3.72c.21.2.46.29.75.29Z"/>
      <path class="cls-1" d="M238.39,117.27l.76.29c.04-.12.11-.18.22-.18.07,0,.13.03.19.08.05.05.08.12.08.19s-.03.14-.08.19c-.05.05-.11.08-.19.08-.04,0-.12-.03-.26-.09l-.72-.31v-.25Z"/>
      <path class="cls-1" d="M243.17,121.61c0,.41-.1.75-.29,1.03-.2.28-.48.44-.85.49v-.4c.52-.1.79-.46.79-1.1,0-.3-.07-.54-.2-.71-.13-.18-.31-.27-.54-.27-.34,0-.56.27-.67.8l-.12.59c-.14.72-.48,1.09-1.02,1.09-.36,0-.64-.13-.86-.4-.21-.27-.32-.62-.32-1.05,0-.47.12-.84.35-1.13.23-.29.56-.45.98-.5v.4c-.31.05-.55.18-.71.39-.17.21-.25.5-.25.85,0,.31.07.56.21.74.14.18.33.28.56.28.34,0,.57-.25.67-.74l.13-.68c.14-.72.48-1.08,1.02-1.08.34,0,.61.13.81.38.21.26.31.6.31,1.01Z"/>
      <path class="cls-1" d="M240.52,126.43c-.09,0-.14,0-.17,0v-.02s0,0,0,0v-2.25c-.27.03-.49.14-.66.32-.17.18-.25.41-.25.68,0,.38.14.64.41.77v.43c-.23-.08-.41-.22-.54-.44-.14-.22-.2-.47-.2-.76,0-.41.13-.74.4-.99.27-.26.6-.38,1-.38s.73.13.99.38.4.59.4.99c0,.38-.13.68-.39.92-.26.24-.59.36-.99.37ZM241.56,125.13c0-.27-.09-.49-.26-.67-.18-.18-.39-.28-.65-.3v1.88c.28-.02.5-.12.66-.28s.25-.37.25-.63Z"/>
      <path class="cls-1" d="M240.5,129.88c-.4,0-.73-.14-1.01-.41-.27-.27-.41-.6-.41-1s.13-.73.41-1.01c.27-.27.61-.41,1.01-.41s.72.14.99.41c.27.27.4.6.4,1.01s-.13.73-.4,1c-.27.27-.6.41-.99.41ZM240.5,129.48c.29,0,.53-.1.73-.29.2-.2.3-.43.3-.72s-.1-.53-.3-.72c-.2-.2-.44-.29-.73-.29s-.54.1-.75.29c-.2.2-.3.44-.3.72s.1.53.3.72c.21.2.46.29.75.29Z"/>
      <path class="cls-1" d="M243.26,133.23h-4.08v-.4h.29c-.24-.25-.36-.57-.36-.96s.14-.7.41-.97c.27-.27.6-.4.99-.4s.72.13.99.4c.27.27.41.6.41.97s-.12.71-.36.96h1.72v.4ZM239.45,131.93c0,.38.16.69.48.91h1.14c.33-.22.49-.52.49-.91,0-.29-.1-.54-.31-.73-.21-.2-.46-.29-.75-.29s-.53.1-.74.29c-.21.2-.31.45-.31.73Z"/>
      <path class="cls-1" d="M241.83,136.79h-2.65v-.4h.29c-.25-.26-.37-.58-.37-.96s.13-.7.41-.97c.27-.27.6-.4.99-.4s.72.13.99.4c.27.27.41.6.41.97s-.12.7-.37.96h.3v.4ZM239.45,135.48c0,.38.16.69.48.91h1.14c.32-.22.48-.52.48-.91,0-.29-.1-.54-.31-.73-.21-.2-.46-.29-.74-.29s-.54.1-.75.29c-.21.2-.31.45-.31.73Z"/>
      <path class="cls-1" d="M240.52,140.26c-.09,0-.14,0-.17,0v-.02s0,0,0,0v-2.25c-.27.03-.49.14-.66.32-.17.18-.25.41-.25.68,0,.38.14.64.41.77v.43c-.23-.08-.41-.22-.54-.44-.14-.22-.2-.47-.2-.76,0-.41.13-.74.4-.99.27-.26.6-.38,1-.38s.73.13.99.38.4.59.4.99c0,.38-.13.68-.39.92-.26.24-.59.36-.99.37ZM241.56,138.96c0-.27-.09-.49-.26-.67-.18-.18-.39-.28-.65-.3v1.88c.28-.02.5-.12.66-.28s.25-.37.25-.63Z"/>
      <path class="cls-1" d="M241.92,144.28c0,.32-.11.58-.33.78-.22.2-.52.3-.88.3h-1.53v-.39h1.51c.28,0,.49-.07.64-.2.15-.13.23-.32.23-.56,0-.36-.17-.65-.51-.85-.1.02-.22.03-.34.03h-1.53v-.4h1.51c.28,0,.49-.07.64-.2.15-.13.23-.32.23-.56,0-.33-.16-.6-.48-.82h-1.89v-.39h2.65v.39h-.3c.26.23.38.53.38.88,0,.41-.17.71-.49.91.33.27.49.63.49,1.06Z"/>
      <path class="cls-1" d="M241.83,148.61h-2.65v-.39h.31c-.27-.26-.4-.59-.4-.98,0-.34.11-.61.33-.82.22-.21.51-.31.88-.31h1.54v.39h-1.51c-.27,0-.48.07-.64.22-.15.15-.23.34-.23.59,0,.36.16.67.49.91h1.89v.39Z"/>
      <path class="cls-1" d="M241.92,150.95c0,.33-.11.6-.33.82-.22.21-.52.32-.88.32h-1.53v-.4h1.51c.27,0,.48-.07.64-.22.15-.15.23-.34.23-.59,0-.37-.16-.67-.49-.91h-1.88v-.39h2.65v.39h-.32c.27.26.4.58.4.98Z"/>
      <path class="cls-1" d="M240.94,155.01h-.4v-1.89h.4v1.89Z"/>
      <path class="cls-1" d="M241.83,158.74h-2.74c-.4,0-.72-.12-.96-.37-.24-.25-.36-.56-.36-.95,0-.34.09-.63.28-.87s.42-.39.71-.44v.41c-.19.04-.34.14-.45.3-.12.16-.17.36-.17.6,0,.28.09.5.26.67.17.17.4.26.69.26h.46c-.25-.26-.38-.6-.38-.99s.13-.7.4-.96c.27-.26.59-.38.96-.38.4,0,.73.13.99.38.26.26.4.58.4.96s-.13.73-.38.99h.29v.39ZM239.52,157.4c0,.41.17.72.5.95h1.06c.33-.23.5-.54.5-.95,0-.29-.1-.52-.3-.71s-.45-.28-.74-.28c-.28,0-.52.09-.72.28s-.3.43-.3.71Z"/>
      <path class="cls-1" d="M241.83,162.07h-2.65v-.39h.31c-.27-.26-.4-.59-.4-.98,0-.34.11-.61.33-.82.22-.21.51-.31.88-.31h1.54v.39h-1.51c-.27,0-.48.07-.64.22-.15.15-.23.34-.23.59,0,.36.16.67.49.91h1.89v.39Z"/>
      <path class="cls-1" d="M238.39,162.8l.76.29c.04-.12.11-.18.22-.18.07,0,.13.03.19.08.05.05.08.12.08.19s-.03.14-.08.19c-.05.05-.11.08-.19.08-.04,0-.12-.03-.26-.09l-.72-.31v-.25Z"/>
      <path class="cls-1" d="M236.28,81.53c0,.41-.1.75-.29,1.03-.2.28-.48.44-.85.49v-.4c.53-.1.79-.46.79-1.1,0-.3-.07-.54-.2-.71-.13-.18-.31-.27-.54-.27-.34,0-.56.27-.67.8l-.11.59c-.14.72-.48,1.09-1.02,1.09-.36,0-.64-.13-.86-.4-.21-.27-.32-.62-.32-1.05,0-.47.12-.84.35-1.13.23-.29.56-.45.98-.5v.4c-.31.05-.55.18-.71.39-.17.21-.25.5-.25.85,0,.31.07.56.21.74.14.18.33.28.56.28.35,0,.57-.25.67-.74l.13-.68c.14-.72.48-1.08,1.02-1.08.34,0,.61.13.81.38.21.26.31.6.31,1.01Z"/>
      <path class="cls-1" d="M233.62,86.36c-.09,0-.14,0-.17,0v-.02s0,0,0,0v-2.25c-.27.03-.49.14-.65.32-.17.18-.25.41-.25.68,0,.38.13.64.41.77v.43c-.22-.08-.41-.22-.54-.44-.13-.22-.2-.47-.2-.76,0-.41.13-.74.4-.99s.6-.38,1-.38.72.13.99.38c.27.26.4.59.4.99,0,.38-.13.68-.39.92-.26.24-.59.36-.99.37ZM234.67,85.05c0-.27-.09-.49-.26-.67-.18-.18-.39-.28-.65-.3v1.88c.28-.02.5-.12.66-.28.17-.16.25-.37.25-.63Z"/>
      <path class="cls-1" d="M233.61,89.8c-.4,0-.73-.14-1.01-.41s-.41-.6-.41-1,.14-.73.41-1.01.61-.41,1.01-.41.72.14.99.41c.27.27.4.6.4,1.01s-.13.73-.4,1c-.27.27-.6.41-.99.41ZM233.61,89.41c.29,0,.53-.1.73-.29.2-.2.3-.43.3-.72s-.1-.53-.3-.72c-.2-.2-.44-.29-.73-.29s-.55.1-.75.29c-.2.2-.3.44-.3.72s.1.53.3.72c.21.2.46.29.75.29Z"/>
      <path class="cls-1" d="M234.94,93.01h-2.65v-.39h.31c-.26-.26-.4-.59-.4-.98,0-.34.11-.61.33-.82.22-.21.51-.31.88-.31h1.53v.39h-1.51c-.27,0-.49.07-.64.22-.16.15-.23.34-.23.59,0,.36.17.67.49.91h1.89v.39Z"/>
      <path class="cls-1" d="M236.36,94.38h-4.08v-.39h4.08v.39Z"/>
      <path class="cls-1" d="M231.49,95.09l.77.29c.03-.12.11-.18.22-.18.07,0,.13.03.19.08.05.05.08.12.08.19s-.03.14-.08.19c-.05.05-.11.08-.19.08-.04,0-.12-.03-.26-.09l-.72-.31v-.25Z"/>
      <path class="cls-1" d="M233.7,99.46v-.97h-1.42v-.41h3.91v1.45c0,.44-.11.79-.34,1.07-.23.28-.53.41-.91.41-.31,0-.57-.1-.79-.29-.21-.19-.35-.46-.42-.8l-1.45,1.25v-.51l1.42-1.22ZM234.08,98.49v1.03c0,.33.08.59.23.79.16.2.37.3.63.3s.48-.1.63-.3.24-.46.24-.79v-1.03h-1.74Z"/>
      <path class="cls-1" d="M233.62,104.19c-.09,0-.14,0-.17,0v-.02s0,0,0,0v-2.25c-.27.03-.49.14-.65.32-.17.18-.25.41-.25.68,0,.38.13.64.41.77v.43c-.22-.08-.41-.22-.54-.44-.13-.22-.2-.47-.2-.76,0-.41.13-.74.4-.99s.6-.38,1-.38.72.13.99.38c.27.26.4.59.4.99,0,.38-.13.68-.39.92-.26.24-.59.36-.99.37ZM234.67,102.89c0-.27-.09-.49-.26-.67-.18-.18-.39-.28-.65-.3v1.88c.28-.02.5-.12.66-.28.17-.16.25-.37.25-.63Z"/>
      <path class="cls-1" d="M235.01,106.38c0,.38-.13.7-.41.97-.27.27-.6.4-.99.4s-.73-.13-.99-.4c-.27-.27-.41-.6-.41-.97s.12-.71.37-.97h-1.72v-.39h4.08v.39h-.3c.25.26.37.58.37.97ZM232.55,106.32c0,.29.1.53.31.73.2.2.45.3.75.3s.54-.1.74-.3c.21-.2.31-.45.31-.73,0-.38-.16-.69-.49-.91h-1.12c-.33.23-.49.53-.49.91Z"/>
      <path class="cls-1" d="M234.94,110.96h-2.65v-.39h.31c-.26-.26-.4-.59-.4-.98,0-.34.11-.61.33-.82.22-.21.51-.31.88-.31h1.53v.39h-1.51c-.27,0-.49.07-.64.22-.16.15-.23.34-.23.59,0,.36.17.67.49.91h1.89v.39Z"/>
      <path class="cls-1" d="M235.01,113.29c0,.38-.13.7-.41.97-.27.27-.6.4-.99.4s-.72-.13-.99-.4c-.27-.27-.41-.6-.41-.97s.12-.71.37-.97h-.3v-.39h4.08v.39h-1.72c.25.26.37.58.37.97ZM232.56,113.23c0,.29.1.53.31.73.2.2.45.3.74.3s.54-.1.75-.3c.21-.2.31-.45.31-.73,0-.39-.17-.69-.5-.91h-1.12c-.33.23-.49.53-.49.91Z"/>
      <path class="cls-1" d="M236.36,115.85h-4.08v-.39h4.08v.39Z"/>
      <path class="cls-1" d="M234.94,117.29h-2.65v-.4h2.65v.4ZM235.94,117.36c-.11,0-.18-.04-.23-.13-.04-.09-.04-.18,0-.28.05-.09.12-.14.23-.13.08,0,.14.03.19.08.05.05.07.11.07.19s-.03.14-.08.19c-.05.05-.11.08-.19.08Z"/>
      <path class="cls-1" d="M232.57,119.54c0,.21.05.4.16.55.11.15.25.25.43.29v.41c-.28-.05-.52-.2-.7-.43-.18-.23-.26-.5-.26-.82,0-.4.13-.73.4-.99.27-.26.61-.39,1-.39s.72.13.99.39c.27.26.4.6.4.99,0,.31-.09.59-.27.82-.18.23-.41.38-.69.43v-.41c.18-.04.32-.14.43-.29.11-.15.16-.33.16-.55,0-.29-.1-.53-.3-.71-.2-.18-.45-.28-.73-.28s-.54.09-.74.28c-.2.18-.3.42-.3.71Z"/>
      <path class="cls-1" d="M233.61,125.85c-.4,0-.73-.14-1.01-.41s-.41-.6-.41-1,.14-.73.41-1.01.61-.41,1.01-.41.72.14.99.41c.27.27.4.6.4,1.01s-.13.73-.4,1c-.27.27-.6.41-.99.41ZM233.61,125.46c.29,0,.53-.1.73-.29.2-.2.3-.43.3-.72s-.1-.53-.3-.72c-.2-.2-.44-.29-.73-.29s-.55.1-.75.29c-.2.2-.3.44-.3.72s.1.53.3.72c.21.2.46.29.75.29Z"/>
      <path class="cls-1" d="M234.94,127.3v1.07h-.34v-1.07h-2.32v-.39h2.32v-.78h.34v.78h.7c.3,0,.54.09.73.26s.27.4.27.68c0,.17-.03.35-.08.55l-.34-.06c.04-.15.06-.29.06-.43,0-.19-.06-.34-.17-.45-.12-.11-.27-.17-.46-.17h-.7Z"/>
      <path class="cls-1" d="M234.11,131.68l-.8-.76h-1.02v-.41h3.91v.41h-2.32l2.32,2.24v.5l-1.78-1.69-2.12,1.9v-.52l1.83-1.66Z"/>
      <path class="cls-1" d="M233.61,136.93c-.4,0-.73-.14-1.01-.41s-.41-.6-.41-1,.14-.73.41-1.01.61-.41,1.01-.41.72.14.99.41c.27.27.4.6.4,1.01s-.13.73-.4,1c-.27.27-.6.41-.99.41ZM233.61,136.54c.29,0,.53-.1.73-.29.2-.2.3-.43.3-.72s-.1-.53-.3-.72c-.2-.2-.44-.29-.73-.29s-.55.1-.75.29c-.2.2-.3.44-.3.72s.1.53.3.72c.21.2.46.29.75.29Z"/>
      <path class="cls-1" d="M234.94,138.09h-.46c.35.26.53.61.53,1.04h-.37c-.01-.44-.22-.79-.62-1.04h-1.73v-.39h2.65v.39Z"/>
      <path class="cls-1" d="M233.62,142.2c-.09,0-.14,0-.17,0v-.02s0,0,0,0v-2.25c-.27.03-.49.14-.65.32-.17.18-.25.41-.25.68,0,.38.13.64.41.77v.43c-.22-.08-.41-.22-.54-.44-.13-.22-.2-.47-.2-.76,0-.41.13-.74.4-.99s.6-.38,1-.38.72.13.99.38c.27.26.4.59.4.99,0,.38-.13.68-.39.92-.26.24-.59.36-.99.37ZM234.67,140.89c0-.27-.09-.49-.26-.67-.18-.18-.39-.28-.65-.3v1.88c.28-.02.5-.12.66-.28.17-.16.25-.37.25-.63Z"/>
      <path class="cls-1" d="M234.94,145.55h-2.65v-.4h.29c-.24-.26-.37-.58-.37-.96s.14-.7.41-.97c.27-.27.6-.4.99-.4s.72.13.99.4c.27.27.41.6.41.97s-.12.7-.37.96h.3v.4ZM232.55,144.25c0,.38.16.69.48.91h1.14c.32-.22.48-.52.48-.91,0-.29-.1-.54-.31-.73-.21-.2-.45-.29-.74-.29s-.54.1-.75.29c-.21.2-.31.45-.31.73Z"/>
    </g>
    <rect class="cls-4" x="142" y="5.74" width="68.03" height="206.93"/>
    <rect class="cls-4" x="210.18" y="212.62" width="68.03" height="206.93"/>
    <rect class="cls-4" x="73.96" y="212.81" width="68.03" height="206.93"/>
    <rect class="cls-4" x="210.19" y="5.78" width="68.03" height="206.93"/>
    <g>
      <path class="cls-1" d="M44.8,298.46c-1.42,0-2.26-.71-2.26-1.9s.79-1.8,2.13-1.8h3.89v-.84h-3.73c-1.71,0-2.58.86-2.58,2.56,0,1.38.99,2.25,2.57,2.25h3.74v-.27h-3.76Z"/>
      <path class="cls-1" d="M48.56,301.31v-1.49h-6.26v.84l2.91.02v.39c0,.83.2,1.45.59,1.84.3.3.71.45,1.21.45.97,0,1.55-.77,1.55-2.04ZM45.87,302.16c-.26-.25-.39-.63-.39-1.08v-.41l2.81-.02v.68c0,.77-.46,1.2-1.28,1.21-.48,0-.87-.13-1.14-.39Z"/>
      <rect class="cls-1" x="42.3" y="304.1" width="6.26" height=".84"/>
      <path class="cls-1" d="M48.56,308.03v-2.08h-6.26v2.05c0,1.92,1.36,3.37,3.15,3.37s3.11-1.34,3.11-3.34ZM45.45,310.5c-1.75,0-2.88-.99-2.88-2.52v-1.2h5.72v1.26c0,1.56-1.03,2.45-2.84,2.45Z"/>
      <path class="cls-1" d="M48.61,315.02c0-1.83-1.37-3.2-3.19-3.2s-3.19,1.35-3.19,3.2,1.37,3.19,3.19,3.19,3.18-1.37,3.18-3.19ZM48.34,315.02c0,1.44-1.12,2.33-2.92,2.33s-2.92-.89-2.92-2.33,1.12-2.35,2.92-2.35,2.92.9,2.92,2.35Z"/>
      <path class="cls-1" d="M46.22,322.83c.23-.79.42-1.47,1.16-1.47.56,0,.96.58.96,1.4v.05c-.02.93-.53,1.42-1.04,1.42-.18,0-.32-.03-.43-.11l-.08-.05-.14.23.07.05c.15.09.36.15.57.15.63,0,1.31-.59,1.31-1.7,0-1.16-.64-1.94-1.59-1.94-1.14,0-1.42.95-1.66,1.79-.23.8-.45,1.56-1.34,1.56-1.12,0-1.51-.9-1.51-1.66,0-1.07.67-1.79,1.66-1.79h.09v-.27h-.09c-1.15,0-1.93.83-1.93,2.07,0,1.08.68,2.17,2.21,2.17,1.23,0,1.52-1.01,1.78-1.91Z"/>
      <polygon class="cls-1" points="45.96 326.3 45.96 328.65 46.23 328.65 46.23 326.3 48.29 326.3 48.29 329.05 48.56 329.05 48.56 325.47 42.3 325.47 42.3 329.13 42.57 329.13 42.57 326.3 45.96 326.3"/>
      <path class="cls-1" d="M48.61,332.48c0-1.82-1.37-3.2-3.19-3.2s-3.19,1.35-3.19,3.2,1.37,3.19,3.19,3.19,3.18-1.37,3.18-3.19ZM48.34,332.48c0,1.44-1.12,2.33-2.92,2.33s-2.92-.89-2.92-2.33,1.12-2.35,2.92-2.35,2.92.9,2.92,2.35Z"/>
      <path class="cls-1" d="M44.8,341.04c-1.42,0-2.26-.71-2.26-1.9s.79-1.8,2.13-1.8h3.89v-.84h-3.73c-1.71,0-2.58.86-2.58,2.56,0,1.39.99,2.25,2.57,2.25h3.74v-.27h-3.76Z"/>
      <polygon class="cls-1" points="42.57 343.23 48.56 343.23 48.56 342.4 42.3 342.4 42.3 346.07 42.57 346.07 42.57 343.23"/>
      <path class="cls-1" d="M42.91,292.52s-.05-.08-.11-.1c-.21-.11-.37-.22-.5-.34-.11-.1-.2-.21-.26-.33-.1-.15-.16-.36-.16-.62,0-.48.19-1.04.36-1.45h0c0,1.82,1.37,3.2,3.19,3.2s3.18-1.37,3.18-3.19-1.37-3.2-3.19-3.2c-1.04,0-1.97.44-2.55,1.21-.24-.33-.78-.67-.8-.69l-.03-.02s-.1-.06-.15-.06c-.12,0-.23.1-.23.23s.09.22.2.23c.02,0,.05.02.09.03h0s.03.01.03.01c.05.01.09.03.13.04l.05.02c.07.03.14.06.21.1l.04-.08v.09s.05.04.09.07c.12.1.18.2.21.26-.12.19-.21.4-.29.63-.08.09-.15.19-.22.28-.04.05-.08.11-.13.18l-.02.04c-.05.07-.1.15-.15.23-.04.07-.09.15-.13.22-.02.03-.04.07-.05.1l-.05.1c-.22.44-.33.86-.33,1.25,0,1.36,1.35,1.9,1.36,1.91l.07.03.17-.33-.03-.04ZM48.34,289.68c0,1.44-1.12,2.33-2.92,2.33s-2.92-.89-2.92-2.33,1.12-2.35,2.92-2.35,2.92.9,2.92,2.35Z"/>
    </g>
    <g>
      <path class="cls-1" d="M36.17,267.3v-.63h-.86v-.39h.86v-2.1h.25l2.8,1.19v.42l-2.69-1.13v1.63h1.27v.39h-1.27v.63h-.35Z"/>
      <path class="cls-1" d="M37.29,269.88c-.18.44-.49.65-.94.65-.33,0-.59-.12-.8-.37-.21-.25-.31-.57-.31-.96s.09-.71.28-.96.44-.38.75-.42v.4c-.21.03-.38.14-.5.31-.12.17-.18.4-.18.67s.07.51.21.68c.14.17.33.26.55.26s.41-.08.55-.25c.14-.17.21-.39.21-.67v-.32h.33v.32c0,.24.07.44.2.58s.32.22.54.22.41-.08.55-.23c.14-.15.21-.36.21-.62,0-.23-.06-.43-.18-.58-.12-.15-.28-.24-.49-.27v-.4c.31.03.55.15.74.38s.28.51.28.86c0,.38-.1.68-.3.91-.2.23-.47.34-.8.34-.41,0-.71-.18-.89-.53Z"/>
      <path class="cls-1" d="M37.07,273.31h-.4v-1.89h.4v1.89Z"/>
      <path class="cls-1" d="M37.92,275.75c0,.41-.12.76-.37,1.03-.25.27-.57.41-.96.41s-.72-.14-.98-.41c-.26-.27-.38-.61-.38-1.03s.13-.76.38-1.03c.26-.27.58-.41.97-.41.3,0,.6.11.9.32l1.74,1.23v.48l-1.34-.94c.03.12.04.24.04.36ZM36.57,276.78c.29,0,.52-.1.71-.29.19-.19.28-.44.28-.75s-.09-.57-.28-.76l-.04-.03c-.23-.17-.46-.25-.68-.25-.29,0-.53.1-.72.29-.19.19-.28.44-.28.75s.09.55.28.75c.19.2.43.29.73.29Z"/>
      <path class="cls-1" d="M34.51,277.63l.76.29c.03-.12.11-.18.22-.18.07,0,.13.03.19.08s.08.12.08.19-.03.14-.08.19-.11.08-.19.08c-.04,0-.12-.03-.26-.09l-.72-.31v-.25Z"/>
      <path class="cls-1" d="M39.21,283.41l-2.51-1.61h-1.4v-.41h1.4l2.51-1.62v.45l-2.13,1.37,2.13,1.37v.45Z"/>
      <path class="cls-1" d="M36.65,285.79c-.09,0-.14,0-.17,0v-.02s0,0,0,0v-2.25c-.27.03-.49.14-.66.32-.17.18-.25.41-.25.68,0,.38.14.64.41.77v.42c-.23-.08-.41-.22-.54-.44-.14-.22-.2-.47-.2-.76,0-.41.13-.74.4-.99.27-.26.6-.38,1-.38s.73.13.99.38c.27.26.4.59.4.99,0,.38-.13.68-.39.92-.26.24-.59.36-.99.37ZM37.69,284.49c0-.27-.09-.49-.26-.67-.18-.18-.39-.28-.65-.3v1.88c.28-.02.5-.12.66-.28.17-.16.25-.37.25-.63Z"/>
      <path class="cls-1" d="M36.63,289.24c-.4,0-.73-.14-1.01-.41-.27-.27-.41-.61-.41-1s.14-.73.41-1,.61-.41,1.01-.41.72.14.99.41c.27.27.4.6.4,1s-.13.73-.4,1-.6.41-.99.41ZM36.63,288.84c.29,0,.53-.1.73-.29.2-.2.3-.43.3-.72s-.1-.53-.3-.72c-.2-.2-.44-.29-.73-.29s-.55.1-.75.29c-.2.2-.3.44-.3.72s.1.53.3.72c.21.2.46.29.75.29Z"/>
      <path class="cls-1" d="M38.05,291.38c0,.33-.11.6-.33.82-.22.21-.52.32-.88.32h-1.53v-.4h1.51c.27,0,.48-.07.64-.22s.23-.34.23-.59c0-.37-.16-.67-.49-.91h-1.88v-.39h2.65v.39h-.32c.27.26.4.58.4.98Z"/>
      <path class="cls-1" d="M38.05,294.74c0,.33-.11.6-.33.82-.22.21-.52.32-.88.32h-1.53v-.4h1.51c.27,0,.48-.07.64-.22s.23-.34.23-.59c0-.37-.16-.67-.49-.91h-1.88v-.39h4.08v.39h-1.74c.27.26.4.58.4.98Z"/>
      <path class="cls-1" d="M37.96,299.1h-2.65v-.39h.31c-.26-.26-.4-.59-.4-.98,0-.34.11-.61.33-.82.22-.21.51-.31.88-.31h1.53v.39h-1.51c-.27,0-.49.07-.64.22s-.23.34-.23.59c0,.36.17.67.49.91h1.89v.39Z"/>
      <path class="cls-1" d="M37.96,300.55h-2.65v-.4h2.65v.4ZM38.97,300.62c-.11,0-.18-.04-.23-.13s-.05-.18,0-.28c.05-.09.12-.14.23-.13.08,0,.14.03.19.08s.08.11.08.19-.03.14-.08.19-.11.08-.19.08Z"/>
      <path class="cls-1" d="M38.05,304.85c0,.32-.11.58-.33.78-.22.2-.51.3-.88.3h-1.53v-.39h1.51c.28,0,.49-.07.64-.2s.23-.32.23-.56c0-.36-.17-.65-.51-.85-.1.02-.22.03-.34.03h-1.53v-.4h1.51c.28,0,.49-.07.64-.2.15-.13.23-.32.23-.56,0-.33-.16-.6-.48-.82h-1.9v-.39h2.65v.39h-.3c.26.23.38.53.38.88,0,.41-.17.71-.49.91.33.27.49.63.49,1.06Z"/>
      <path class="cls-1" d="M37.96,309.38h-2.65v-.4h.29c-.25-.26-.37-.58-.37-.96s.14-.7.41-.97.6-.4.99-.4.72.13.99.4.41.6.41.97-.12.7-.37.96h.3v.4ZM35.58,308.08c0,.38.16.69.48.91h1.14c.32-.22.48-.52.48-.91,0-.29-.1-.54-.31-.74-.21-.2-.45-.29-.74-.29s-.54.1-.75.29c-.21.2-.31.45-.31.74Z"/>
      <path class="cls-1" d="M35.65,312.02l-.34.06c-.06-.21-.09-.4-.09-.57,0-.61.35-.92,1.04-.92h1.36v-.71h.34v.71h.98v.39h-.98v1.01h-.34v-1.01h-1.36c-.24,0-.41.05-.52.14s-.16.25-.16.45c0,.13.02.28.07.44Z"/>
      <path class="cls-1" d="M37.07,314.48h-.4v-1.89h.4v1.89Z"/>
      <path class="cls-1" d="M37.96,316.03h-.46c.35.26.53.61.53,1.04h-.37c-.01-.44-.22-.79-.62-1.04h-1.73v-.39h2.65v.39Z"/>
      <path class="cls-1" d="M36.63,320.28c-.4,0-.73-.14-1.01-.41-.27-.27-.41-.61-.41-1s.14-.73.41-1,.61-.41,1.01-.41.72.14.99.41c.27.27.4.6.4,1s-.13.73-.4,1-.6.41-.99.41ZM36.63,319.88c.29,0,.53-.1.73-.29.2-.2.3-.43.3-.72s-.1-.53-.3-.72c-.2-.2-.44-.29-.73-.29s-.55.1-.75.29c-.2.2-.3.44-.3.72s.1.53.3.72c.21.2.46.29.75.29Z"/>
      <path class="cls-1" d="M34.51,320.71l.76.29c.03-.12.11-.18.22-.18.07,0,.13.03.19.08s.08.12.08.19-.03.14-.08.19-.11.08-.19.08c-.04,0-.12-.03-.26-.09l-.72-.31v-.25Z"/>
      <path class="cls-1" d="M39.3,325.05c0,.41-.1.75-.29,1.03-.2.28-.48.44-.85.49v-.4c.52-.1.79-.46.79-1.1,0-.3-.07-.54-.2-.71-.13-.18-.31-.27-.54-.27-.34,0-.56.27-.67.8l-.11.59c-.14.72-.48,1.09-1.02,1.09-.36,0-.64-.13-.86-.4-.21-.27-.32-.62-.32-1.05,0-.47.12-.84.35-1.13.23-.29.56-.45.98-.5v.4c-.31.05-.55.18-.71.39-.17.21-.25.5-.25.85,0,.31.07.56.21.74.14.18.33.28.56.28.34,0,.57-.25.67-.74l.13-.68c.14-.72.48-1.08,1.02-1.08.34,0,.61.13.81.38.21.26.31.6.31,1.01Z"/>
      <path class="cls-1" d="M36.65,329.87c-.09,0-.14,0-.17,0v-.02s0,0,0,0v-2.25c-.27.03-.49.14-.66.32-.17.18-.25.41-.25.68,0,.38.14.64.41.77v.42c-.23-.08-.41-.22-.54-.44-.14-.22-.2-.47-.2-.76,0-.41.13-.74.4-.99.27-.26.6-.38,1-.38s.73.13.99.38c.27.26.4.59.4.99,0,.38-.13.68-.39.92-.26.24-.59.36-.99.37ZM37.69,328.57c0-.27-.09-.49-.26-.67-.18-.18-.39-.28-.65-.3v1.88c.28-.02.5-.12.66-.28.17-.16.25-.37.25-.63Z"/>
      <path class="cls-1" d="M36.63,333.32c-.4,0-.73-.14-1.01-.41s-.41-.6-.41-1,.14-.73.41-1.01c.27-.27.61-.41,1.01-.41s.72.14.99.41.4.6.4,1.01-.13.73-.4,1c-.27.27-.6.41-.99.41ZM36.63,332.92c.29,0,.53-.1.73-.29.2-.2.3-.43.3-.72s-.1-.53-.3-.72c-.2-.2-.44-.29-.73-.29s-.55.1-.75.29c-.2.2-.3.44-.3.72s.1.53.3.72c.21.2.46.29.75.29Z"/>
      <path class="cls-1" d="M39.39,336.67h-4.08v-.4h.29c-.24-.25-.36-.57-.36-.96s.14-.7.41-.97c.27-.27.6-.4.99-.4s.72.13.99.4c.27.27.41.6.41.97s-.12.71-.36.96h1.72v.4ZM35.58,335.37c0,.38.16.69.48.91h1.14c.33-.22.49-.52.49-.91,0-.29-.1-.54-.31-.73-.21-.2-.46-.29-.75-.29s-.53.1-.74.29c-.21.2-.31.45-.31.73Z"/>
      <path class="cls-1" d="M37.96,340.23h-2.65v-.4h.29c-.25-.26-.37-.58-.37-.96s.14-.7.41-.97c.27-.27.6-.4.99-.4s.72.13.99.4c.27.27.41.6.41.97s-.12.7-.37.96h.3v.4ZM35.58,338.92c0,.38.16.69.48.91h1.14c.32-.22.48-.52.48-.91,0-.29-.1-.54-.31-.73-.21-.2-.45-.29-.74-.29s-.54.1-.75.29c-.21.2-.31.45-.31.73Z"/>
      <path class="cls-1" d="M36.65,343.7c-.09,0-.14,0-.17,0v-.02s0,0,0,0v-2.25c-.27.03-.49.14-.66.32-.17.18-.25.41-.25.68,0,.38.14.64.41.77v.42c-.23-.08-.41-.22-.54-.44-.14-.22-.2-.47-.2-.76,0-.41.13-.74.4-.99.27-.26.6-.38,1-.38s.73.13.99.38c.27.26.4.59.4.99,0,.38-.13.68-.39.92-.26.24-.59.36-.99.37ZM37.69,342.4c0-.27-.09-.49-.26-.67-.18-.18-.39-.28-.65-.3v1.88c.28-.02.5-.12.66-.28.17-.16.25-.37.25-.63Z"/>
      <path class="cls-1" d="M38.05,347.73c0,.32-.11.58-.33.78-.22.2-.51.3-.88.3h-1.53v-.39h1.51c.28,0,.49-.07.64-.2s.23-.32.23-.56c0-.36-.17-.65-.51-.85-.1.02-.22.03-.34.03h-1.53v-.4h1.51c.28,0,.49-.07.64-.2.15-.13.23-.32.23-.56,0-.33-.16-.6-.48-.82h-1.9v-.39h2.65v.39h-.3c.26.23.38.53.38.88,0,.41-.17.71-.49.91.33.27.49.63.49,1.06Z"/>
      <path class="cls-1" d="M37.96,352.05h-2.65v-.39h.31c-.26-.26-.4-.59-.4-.98,0-.34.11-.61.33-.82.22-.21.51-.31.88-.31h1.53v.39h-1.51c-.27,0-.49.07-.64.22s-.23.34-.23.59c0,.36.17.67.49.91h1.89v.39Z"/>
      <path class="cls-1" d="M38.05,354.39c0,.33-.11.61-.33.82-.22.21-.52.32-.88.32h-1.53v-.4h1.51c.27,0,.48-.07.64-.22.15-.15.23-.34.23-.59,0-.37-.16-.67-.49-.91h-1.88v-.39h2.65v.39h-.32c.27.26.4.58.4.98Z"/>
      <path class="cls-1" d="M37.07,358.46h-.4v-1.89h.4v1.89Z"/>
      <path class="cls-1" d="M37.96,362.18h-2.74c-.4,0-.72-.12-.95-.37-.24-.25-.36-.56-.36-.95,0-.34.09-.63.28-.87s.42-.39.71-.44v.41c-.19.04-.34.14-.45.3-.12.16-.17.36-.17.6,0,.28.09.5.26.67.17.17.4.26.69.26h.46c-.25-.26-.38-.6-.38-.99s.13-.7.4-.96c.27-.26.59-.38.96-.38.4,0,.73.13.99.38.26.26.4.58.4.96s-.13.73-.38.99h.29v.39ZM35.65,360.84c0,.41.17.72.5.95h1.06c.33-.23.5-.54.5-.95,0-.29-.1-.53-.3-.71s-.45-.28-.74-.28c-.28,0-.52.09-.72.28s-.3.43-.3.71Z"/>
      <path class="cls-1" d="M37.96,365.52h-2.65v-.39h.31c-.26-.26-.4-.59-.4-.98,0-.34.11-.61.33-.82.22-.21.51-.31.88-.31h1.53v.39h-1.51c-.27,0-.49.07-.64.22s-.23.34-.23.59c0,.36.17.67.49.91h1.89v.39Z"/>
      <path class="cls-1" d="M34.51,366.24l.76.29c.03-.12.11-.18.22-.18.07,0,.13.03.19.08s.08.12.08.19-.03.14-.08.19-.11.08-.19.08c-.04,0-.12-.03-.26-.09l-.72-.31v-.25Z"/>
      <path class="cls-1" d="M32.41,284.97c0,.41-.1.75-.29,1.03-.2.28-.48.44-.85.49v-.4c.52-.1.79-.46.79-1.1,0-.3-.07-.54-.2-.71-.13-.18-.31-.27-.54-.27-.34,0-.56.27-.67.8l-.11.59c-.14.72-.48,1.09-1.02,1.09-.36,0-.64-.13-.86-.4-.21-.27-.32-.62-.32-1.05,0-.47.12-.84.35-1.13.23-.29.56-.45.98-.5v.4c-.31.05-.55.18-.71.39-.17.21-.25.5-.25.85,0,.31.07.56.21.74.14.18.33.28.56.28.34,0,.57-.25.67-.74l.13-.68c.14-.72.48-1.08,1.02-1.08.34,0,.61.13.81.38.21.26.31.6.31,1.01Z"/>
      <path class="cls-1" d="M29.75,289.8c-.09,0-.14,0-.17,0v-.02s0,0,0,0v-2.25c-.27.03-.49.14-.66.32-.17.18-.25.41-.25.68,0,.38.14.64.41.77v.42c-.23-.08-.41-.22-.54-.44-.14-.22-.2-.47-.2-.76,0-.41.13-.74.4-.99.27-.26.6-.38,1-.38s.73.13.99.38c.27.26.4.59.4.99,0,.38-.13.68-.39.92-.26.24-.59.36-.99.37ZM30.8,288.49c0-.27-.09-.49-.26-.67-.18-.18-.39-.28-.65-.3v1.88c.28-.02.5-.12.66-.28.17-.16.25-.37.25-.63Z"/>
      <path class="cls-1" d="M29.74,293.25c-.4,0-.73-.14-1.01-.41s-.41-.6-.41-1,.14-.73.41-1.01c.27-.27.61-.41,1.01-.41s.72.14.99.41.4.6.4,1.01-.13.73-.4,1c-.27.27-.6.41-.99.41ZM29.74,292.85c.29,0,.53-.1.73-.29.2-.2.3-.43.3-.72s-.1-.53-.3-.72c-.2-.2-.44-.29-.73-.29s-.55.1-.75.29c-.2.2-.3.44-.3.72s.1.53.3.72c.21.2.46.29.75.29Z"/>
      <path class="cls-1" d="M31.07,296.46h-2.65v-.39h.31c-.26-.26-.4-.59-.4-.98,0-.34.11-.61.33-.82.22-.21.51-.31.88-.31h1.53v.39h-1.51c-.27,0-.49.07-.64.22s-.23.34-.23.59c0,.36.17.67.49.91h1.89v.39Z"/>
      <path class="cls-1" d="M32.49,297.82h-4.08v-.39h4.08v.39Z"/>
      <path class="cls-1" d="M27.62,298.54l.76.29c.03-.12.11-.18.22-.18.07,0,.13.03.19.08s.08.12.08.19-.03.14-.08.19-.11.08-.19.08c-.04,0-.12-.03-.26-.09l-.72-.31v-.25Z"/>
      <path class="cls-1" d="M29.83,302.91v-.97h-1.42v-.41h3.91v1.45c0,.44-.11.79-.34,1.07-.23.28-.53.41-.91.41-.31,0-.57-.1-.79-.29-.21-.19-.35-.46-.42-.8l-1.45,1.25v-.51l1.42-1.22ZM30.21,301.94v1.03c0,.33.08.59.24.79.16.2.37.3.63.3s.48-.1.63-.3c.16-.2.24-.46.24-.79v-1.03h-1.74Z"/>
      <path class="cls-1" d="M29.75,307.63c-.09,0-.14,0-.17,0v-.02s0,0,0,0v-2.25c-.27.03-.49.14-.66.32-.17.18-.25.41-.25.68,0,.38.14.64.41.77v.42c-.23-.08-.41-.22-.54-.44-.14-.22-.2-.47-.2-.76,0-.41.13-.74.4-.99.27-.26.6-.38,1-.38s.73.13.99.38c.27.26.4.59.4.99,0,.38-.13.68-.39.92-.26.24-.59.36-.99.37ZM30.8,306.33c0-.27-.09-.49-.26-.67-.18-.18-.39-.28-.65-.3v1.88c.28-.02.5-.12.66-.28.17-.16.25-.37.25-.63Z"/>
      <path class="cls-1" d="M31.14,309.82c0,.38-.14.7-.41.97-.27.27-.6.4-.99.4s-.73-.13-.99-.4c-.27-.27-.41-.6-.41-.97s.12-.71.37-.97h-1.72v-.39h4.08v.39h-.3c.25.26.37.58.37.97ZM28.68,309.77c0,.29.1.53.31.73.2.2.45.3.75.3s.54-.1.74-.3c.21-.2.31-.45.31-.73,0-.38-.16-.69-.49-.91h-1.12c-.33.23-.49.53-.49.91Z"/>
      <path class="cls-1" d="M31.07,314.4h-2.65v-.39h.31c-.26-.26-.4-.59-.4-.98,0-.34.11-.61.33-.82.22-.21.51-.31.88-.31h1.53v.39h-1.51c-.27,0-.49.07-.64.22s-.23.34-.23.59c0,.36.17.67.49.91h1.89v.39Z"/>
      <path class="cls-1" d="M31.14,316.73c0,.38-.14.7-.41.97-.27.27-.6.4-.99.4s-.72-.13-.99-.4c-.27-.27-.41-.6-.41-.97s.12-.71.37-.97h-.3v-.39h4.08v.39h-1.72c.25.26.37.58.37.97ZM28.69,316.68c0,.29.1.53.31.73.2.2.45.3.74.3s.54-.1.75-.3c.21-.2.31-.45.31-.73,0-.39-.17-.69-.5-.91h-1.11c-.33.23-.49.53-.49.91Z"/>
      <path class="cls-1" d="M32.49,319.29h-4.08v-.39h4.08v.39Z"/>
      <path class="cls-1" d="M31.07,320.74h-2.65v-.4h2.65v.4ZM32.07,320.81c-.11,0-.18-.04-.23-.13s-.05-.18,0-.28.12-.14.23-.13c.08,0,.14.03.19.08s.08.11.08.19-.03.14-.08.19-.11.08-.19.08Z"/>
      <path class="cls-1" d="M28.7,322.98c0,.21.05.4.16.55s.25.25.43.29v.41c-.28-.05-.52-.2-.7-.43-.18-.23-.26-.5-.26-.82,0-.4.13-.73.4-.99.27-.26.61-.39,1-.39s.72.13.99.39c.27.26.4.59.4.99,0,.31-.09.59-.27.82-.18.23-.41.38-.69.43v-.41c.18-.04.32-.14.43-.29s.16-.33.16-.55c0-.29-.1-.53-.3-.71-.2-.18-.45-.28-.74-.28s-.54.09-.74.28-.3.42-.3.71Z"/>
      <path class="cls-1" d="M29.74,329.3c-.4,0-.73-.14-1.01-.41-.27-.27-.41-.61-.41-1s.14-.73.41-1,.61-.41,1.01-.41.72.14.99.41c.27.27.4.6.4,1s-.13.73-.4,1-.6.41-.99.41ZM29.74,328.9c.29,0,.53-.1.73-.29.2-.2.3-.43.3-.72s-.1-.53-.3-.72c-.2-.2-.44-.29-.73-.29s-.55.1-.75.29c-.2.2-.3.44-.3.72s.1.53.3.72c.21.2.46.29.75.29Z"/>
      <path class="cls-1" d="M31.07,330.74v1.07h-.34v-1.07h-2.32v-.39h2.32v-.78h.34v.78h.69c.3,0,.54.09.73.26.18.17.27.4.27.68,0,.17-.03.35-.08.54l-.34-.06c.04-.15.06-.29.06-.43,0-.19-.06-.34-.17-.45-.12-.11-.27-.17-.46-.17h-.69Z"/>
      <path class="cls-1" d="M30.24,335.12l-.8-.76h-1.02v-.41h3.91v.41h-2.32l2.32,2.24v.5l-1.78-1.69-2.12,1.9v-.52l1.83-1.66Z"/>
      <path class="cls-1" d="M29.74,340.38c-.4,0-.73-.14-1.01-.41s-.41-.6-.41-1,.14-.73.41-1.01c.27-.27.61-.41,1.01-.41s.72.14.99.41.4.6.4,1.01-.13.73-.4,1c-.27.27-.6.41-.99.41ZM29.74,339.98c.29,0,.53-.1.73-.29.2-.2.3-.43.3-.72s-.1-.53-.3-.72c-.2-.2-.44-.29-.73-.29s-.55.1-.75.29c-.2.2-.3.44-.3.72s.1.53.3.72c.21.2.46.29.75.29Z"/>
      <path class="cls-1" d="M31.07,341.54h-.46c.35.26.53.61.53,1.04h-.37c-.01-.44-.22-.79-.62-1.04h-1.73v-.39h2.65v.39Z"/>
      <path class="cls-1" d="M29.75,345.64c-.09,0-.14,0-.17,0v-.02s0,0,0,0v-2.25c-.27.03-.49.14-.66.32-.17.18-.25.41-.25.68,0,.38.14.64.41.77v.43c-.23-.08-.41-.22-.54-.44-.14-.22-.2-.47-.2-.76,0-.41.13-.74.4-.99.27-.26.6-.38,1-.38s.73.13.99.38c.27.26.4.59.4.99,0,.38-.13.68-.39.92-.26.24-.59.36-.99.37ZM30.8,344.33c0-.27-.09-.49-.26-.67-.18-.18-.39-.28-.65-.3v1.88c.28-.02.5-.12.66-.28s.25-.37.25-.63Z"/>
      <path class="cls-1" d="M31.07,348.99h-2.65v-.4h.29c-.25-.26-.37-.58-.37-.96s.14-.7.41-.97.6-.4.99-.4.72.13.99.4.41.6.41.97-.12.7-.37.96h.3v.4ZM28.68,347.69c0,.38.16.69.48.91h1.14c.32-.22.48-.52.48-.91,0-.29-.1-.54-.31-.74-.21-.2-.45-.29-.74-.29s-.54.1-.75.29c-.21.2-.31.45-.31.74Z"/>
    </g>
    <rect class="cls-4" x="5.94" y="212.58" width="68.03" height="206.93"/>
    <rect class="cls-4" x="73.97" y="5.78" width="68.03" height="206.93"/>
    <rect class="cls-4" x="141.99" y="212.58" width="68.03" height="206.93"/>
  </g>
  <g>
    <path class="cls-2" d="M268.11,401.51c.13.01.26.03.39.04.88.1,1.69.38,2.44.85,1.37.85,2.29,2.06,2.75,3.61.2.67.26,1.36.22,2.06-.08,1.34-.54,2.53-1.39,3.56-.93,1.13-2.12,1.84-3.56,2.13-.23.05-.46.09-.68.09-.26,0-.53-.02-.79-.09,0,0-.01,0-.03,0,.1.06.2.12.3.17.71.39,1.45.72,2.24.93.4.1.8.17,1.22.14.29-.02.56-.11.82-.26.55-.31.87-.81,1.15-1.35.1-.19.27-.29.46-.25.2.05.34.22.32.43-.01.15-.06.3-.1.44-.18.6-.39,1.19-.72,1.73-.28.46-.63.86-1.11,1.13-.37.21-.78.31-1.21.33-.36.02-.7,0-1.04-.12-.35-.12-.66-.31-.96-.53-.6-.44-1.12-.96-1.58-1.54-.27-.34-.53-.67-.8-1.01-.11-.14-.2-.28-.31-.41-.24-.26-.53-.43-.89-.44-.25,0-.44.09-.59.29-.2.27-.32.57-.43.87-.06.17-.1.35-.15.53-.05.18-.17.29-.35.32-.18.03-.33-.03-.43-.18-.1-.15-.11-.32,0-.47.21-.3.42-.59.65-.87.19-.23.41-.41.66-.57.01,0,.02-.02.04-.03-.05-.03-.09-.06-.14-.08-1.3-.8-2.18-1.93-2.66-3.37-.18-.53-.28-1.07-.3-1.62-.07-1.75.5-3.26,1.68-4.54.9-.97,2.01-1.57,3.3-1.83.24-.05.5-.07.74-.1.03,0,.05,0,.08-.01.25,0,.5,0,.75,0ZM263.9,407.74c0,.37.03.84.09,1.31.08.62.21,1.22.43,1.8.26.69.61,1.32,1.15,1.82.81.75,1.76,1,2.83.79.68-.14,1.23-.51,1.7-1.01.46-.49.76-1.07.98-1.7.33-.96.45-1.96.47-2.97,0-.48-.01-.95-.07-1.43-.07-.65-.2-1.29-.42-1.91-.24-.69-.58-1.32-1.11-1.83-.85-.82-1.86-1.08-3-.82-.72.16-1.28.59-1.74,1.15-.43.54-.71,1.15-.91,1.8-.29.94-.4,1.9-.4,2.99Z"/>
    <path class="cls-2" d="M275.71,411.7s-.02.08-.03.12c-.09.37-.41.64-.77.68-.47.05-.89-.28-.97-.71-.1-.5.24-.99.75-1.06.48-.07.92.26,1,.7,0,.03.02.06.02.1v.18Z"/>
  </g>
  <g>
    <path class="cls-2" d="M131.44,401.51c.13.01.26.03.39.04.88.1,1.69.38,2.44.85,1.37.85,2.29,2.06,2.75,3.61.2.67.26,1.36.22,2.06-.08,1.34-.54,2.53-1.39,3.56-.93,1.13-2.12,1.84-3.56,2.13-.23.05-.46.09-.68.09-.26,0-.53-.02-.79-.09,0,0-.01,0-.03,0,.1.06.2.12.3.17.71.39,1.45.72,2.24.93.4.1.8.17,1.22.14.29-.02.56-.11.82-.26.55-.31.87-.81,1.15-1.35.1-.19.27-.29.46-.25.2.05.34.22.32.43-.01.15-.06.3-.1.44-.18.6-.39,1.19-.72,1.73-.28.46-.63.86-1.11,1.13-.37.21-.78.31-1.21.33-.36.02-.7,0-1.04-.12-.35-.12-.66-.31-.96-.53-.6-.44-1.12-.96-1.58-1.54-.27-.34-.53-.67-.8-1.01-.11-.14-.2-.28-.31-.41-.24-.26-.53-.43-.89-.44-.25,0-.44.09-.59.29-.2.27-.32.57-.43.87-.06.17-.1.35-.15.53-.05.18-.17.29-.35.32-.18.03-.33-.03-.43-.18-.1-.15-.11-.32,0-.47.21-.3.42-.59.65-.87.19-.23.41-.41.66-.57.01,0,.02-.02.04-.03-.05-.03-.09-.06-.14-.08-1.3-.8-2.18-1.93-2.66-3.37-.18-.53-.28-1.07-.3-1.62-.07-1.75.5-3.26,1.68-4.54.9-.97,2.01-1.57,3.3-1.83.24-.05.5-.07.74-.1.03,0,.05,0,.08-.01.25,0,.5,0,.75,0ZM127.24,407.74c0,.37.03.84.09,1.31.08.62.21,1.22.43,1.8.26.69.61,1.32,1.15,1.82.81.75,1.76,1,2.83.79.68-.14,1.23-.51,1.7-1.01.46-.49.76-1.07.98-1.7.33-.96.45-1.96.47-2.97,0-.48-.01-.95-.07-1.43-.07-.65-.2-1.29-.42-1.91-.24-.69-.58-1.32-1.11-1.83-.85-.82-1.86-1.08-3-.82-.72.16-1.28.59-1.74,1.15-.43.54-.71,1.15-.91,1.8-.29.94-.4,1.9-.4,2.99Z"/>
    <path class="cls-2" d="M139.05,411.7s-.02.08-.03.12c-.09.37-.41.64-.77.68-.47.05-.89-.28-.97-.71-.1-.5.24-.99.75-1.06.48-.07.92.26,1,.7,0,.03.02.06.02.1v.18Z"/>
  </g>
  <g>
    <path class="cls-2" d="M199.46,194.18c.13.01.26.03.39.04.88.1,1.69.38,2.44.85,1.37.85,2.29,2.06,2.75,3.61.2.67.26,1.36.22,2.06-.08,1.34-.54,2.53-1.39,3.56-.93,1.13-2.12,1.84-3.56,2.13-.23.05-.46.09-.68.09-.26,0-.53-.02-.79-.09,0,0-.01,0-.03,0,.1.06.2.12.3.17.71.39,1.45.72,2.24.93.4.1.8.17,1.22.14.29-.02.56-.11.82-.26.55-.31.87-.81,1.15-1.35.1-.19.27-.29.46-.25.2.05.34.22.32.43-.01.15-.06.3-.1.44-.18.6-.39,1.19-.72,1.73-.28.46-.63.86-1.11,1.13-.37.21-.78.31-1.21.33-.36.02-.7,0-1.04-.12-.35-.12-.66-.31-.96-.53-.6-.44-1.12-.96-1.58-1.54-.27-.34-.53-.67-.8-1.01-.11-.14-.2-.28-.31-.41-.24-.26-.53-.43-.89-.44-.25,0-.44.09-.59.29-.2.27-.32.57-.43.87-.06.17-.1.35-.15.53-.05.18-.17.29-.35.32-.18.03-.33-.03-.43-.18-.1-.15-.11-.32,0-.47.21-.3.42-.59.65-.87.19-.23.41-.41.66-.57.01,0,.02-.02.04-.03-.05-.03-.09-.06-.14-.08-1.3-.8-2.18-1.93-2.66-3.37-.18-.53-.28-1.07-.3-1.62-.07-1.75.5-3.26,1.68-4.54.9-.97,2.01-1.57,3.3-1.83.24-.05.5-.07.74-.1.03,0,.05,0,.08-.01.25,0,.5,0,.75,0ZM195.26,200.41c0,.37.03.84.09,1.31.08.62.21,1.22.43,1.8.26.69.61,1.32,1.15,1.82.81.75,1.76,1,2.83.79.68-.14,1.23-.51,1.7-1.01.46-.49.76-1.07.98-1.7.33-.96.45-1.96.47-2.97,0-.48-.01-.95-.07-1.43-.07-.65-.2-1.29-.42-1.91-.24-.69-.58-1.32-1.11-1.83-.85-.82-1.86-1.08-3-.82-.72.16-1.28.59-1.74,1.15-.43.54-.71,1.15-.91,1.8-.29.94-.4,1.9-.4,2.99Z"/>
    <path class="cls-2" d="M207.06,204.37s-.02.08-.03.12c-.09.37-.41.64-.77.68-.47.05-.89-.28-.97-.71-.1-.5.24-.99.75-1.06.48-.07.92.26,1,.7,0,.03.02.06.02.1v.18Z"/>
  </g>
  <g>
    <path class="cls-2" d="M63.8,194.18c.13.01.26.03.39.04.88.1,1.69.38,2.44.85,1.37.85,2.29,2.06,2.75,3.61.2.67.26,1.36.22,2.06-.08,1.34-.54,2.53-1.39,3.56-.93,1.13-2.12,1.84-3.56,2.13-.23.05-.46.09-.68.09-.26,0-.53-.02-.79-.09,0,0-.01,0-.03,0,.1.06.2.12.3.17.71.39,1.45.72,2.24.93.4.1.8.17,1.22.14.29-.02.56-.11.82-.26.55-.31.87-.81,1.15-1.35.1-.19.27-.29.46-.25.2.05.34.22.32.43-.01.15-.06.3-.1.44-.18.6-.39,1.19-.72,1.73-.28.46-.63.86-1.11,1.13-.37.21-.78.31-1.21.33-.36.02-.7,0-1.04-.12-.35-.12-.66-.31-.96-.53-.6-.44-1.12-.96-1.58-1.54-.27-.34-.53-.67-.8-1.01-.11-.14-.2-.28-.31-.41-.24-.26-.53-.43-.89-.44-.25,0-.44.09-.59.29-.2.27-.32.57-.43.87-.06.17-.1.35-.15.53-.05.18-.17.29-.35.32-.18.03-.33-.03-.43-.18-.1-.15-.11-.32,0-.47.21-.3.42-.59.65-.87.19-.23.41-.41.66-.57.01,0,.02-.02.04-.03-.05-.03-.09-.06-.14-.08-1.3-.8-2.18-1.93-2.66-3.37-.18-.53-.28-1.07-.3-1.62-.07-1.75.5-3.26,1.68-4.54.9-.97,2.01-1.57,3.3-1.83.24-.05.5-.07.74-.1.03,0,.05,0,.08-.01.25,0,.5,0,.75,0ZM59.59,200.41c0,.37.03.84.09,1.31.08.62.21,1.22.43,1.8.26.69.61,1.32,1.15,1.82.81.75,1.76,1,2.83.79.68-.14,1.23-.51,1.7-1.01.46-.49.76-1.07.98-1.7.33-.96.45-1.96.47-2.97,0-.48-.01-.95-.07-1.43-.07-.65-.2-1.29-.42-1.91-.24-.69-.58-1.32-1.11-1.83-.85-.82-1.86-1.08-3-.82-.72.16-1.28.59-1.74,1.15-.43.54-.71,1.15-.91,1.8-.29.94-.4,1.9-.4,2.99Z"/>
    <path class="cls-2" d="M71.4,204.37s-.02.08-.03.12c-.09.37-.41.64-.77.68-.47.05-.89-.28-.97-.71-.1-.5.24-.99.75-1.06.48-.07.92.26,1,.7,0,.03.02.06.02.1v.18Z"/>
  </g>
  <rect class="cls-3" x=".35" y="-.13" width="283.46" height="425.47"/>
</svg>