<?xml version="1.0" encoding="utf-8"?>
<!-- Generator: Adobe Illustrator 28.5.0, SVG Export Plug-In . SVG Version: 9.03 Build 54727)  -->
<svg version="1.0" xmlns="http://www.w3.org/2000/svg" xmlns:xlink="http://www.w3.org/1999/xlink" x="0px" y="0px"
	 viewBox="0 0 283.46 425.2" style="enable-background:new 0 0 283.46 425.2;" xml:space="preserve">
<style type="text/css">
	.st0{fill:none;stroke:#C9CACA;stroke-width:0.2;stroke-miterlimit:10;}
	.st1{fill:none;stroke:#000000;stroke-width:0.1;stroke-miterlimit:10;}
</style>
<g id="배경">
</g>
<g id="logo">
	<g>
		<g>
			<path d="M103.25,21.49c0,3.08-1.54,4.92-4.12,4.92c-2.45,0-3.91-1.73-3.91-4.62v-8.46H93.4v8.12c0,3.72,1.87,5.61,5.56,5.61
				c3.01,0,4.88-2.14,4.88-5.59v-8.13h-0.59V21.49z"/>
			<path d="M109.43,13.32h-3.24v13.6h1.81l0.03-6.32h0.85c1.81,0,3.16-0.43,4-1.28c0.65-0.65,0.98-1.54,0.97-2.63
				C113.85,14.59,112.19,13.32,109.43,13.32z M111.28,19.17c-0.55,0.56-1.36,0.85-2.35,0.85h-0.88l-0.03-6.11h1.49
				c1.68,0,2.62,0.99,2.63,2.79C112.14,17.75,111.84,18.6,111.28,19.17z"/>
			<rect x="115.49" y="13.32" width="1.82" height="13.6"/>
			<path d="M124.04,13.32h-4.52v13.6h4.45c4.17,0,7.32-2.95,7.32-6.85C131.29,16.04,128.38,13.32,124.04,13.32z M129.41,20.07
				c0,3.81-2.15,6.27-5.47,6.27h-2.6V13.91h2.74C127.46,13.91,129.41,16.16,129.41,20.07z"/>
			<path d="M139.22,13.2c-3.97,0-6.96,2.98-6.96,6.92c0,4.01,2.93,6.92,6.96,6.92c3.96,0,6.94-2.98,6.94-6.94
				C146.16,16.17,143.18,13.2,139.22,13.2z M139.22,13.79c3.13,0,5.07,2.43,5.07,6.34c0,3.91-1.94,6.34-5.07,6.34
				c-3.15,0-5.11-2.43-5.11-6.34C134.12,16.22,136.07,13.79,139.22,13.79z"/>
			<path d="M156.2,18.39c-1.71-0.49-3.2-0.91-3.2-2.53c0-1.22,1.25-2.08,3.05-2.08l0.1,0c2.02,0.03,3.08,1.16,3.08,2.25
				c0,0.39-0.08,0.7-0.23,0.94l-0.11,0.16l0.5,0.3l0.1-0.15c0.21-0.32,0.32-0.77,0.32-1.25c0-1.38-1.29-2.84-3.69-2.84
				c-2.52,0-4.21,1.39-4.21,3.46c0,2.48,2.07,3.08,3.89,3.61c1.74,0.5,3.39,0.98,3.39,2.9c0,2.43-1.95,3.29-3.62,3.29
				c-2.33-0.02-3.9-1.46-3.9-3.6v-0.19h-0.59v0.19c0,2.5,1.81,4.19,4.5,4.19c2.35,0,4.72-1.48,4.72-4.79
				C160.34,19.58,158.14,18.95,156.2,18.39z"/>
			<polygon points="163.75,18.97 168.86,18.97 168.86,18.38 163.75,18.38 163.75,13.91 169.73,13.91 169.73,13.32 161.94,13.32 
				161.94,26.93 169.9,26.93 169.9,26.34 163.75,26.34 			"/>
			<path d="M177.17,13.2c-3.97,0-6.96,2.98-6.96,6.92c0,4.01,2.93,6.92,6.96,6.92c3.96,0,6.94-2.98,6.94-6.94
				C184.11,16.17,181.13,13.2,177.17,13.2z M177.17,13.79c3.13,0,5.07,2.43,5.07,6.34c0,3.91-1.94,6.34-5.07,6.34
				c-3.15,0-5.11-2.43-5.11-6.34C172.06,16.22,174.02,13.79,177.17,13.79z"/>
			<path d="M195.78,21.49c0,3.08-1.54,4.92-4.12,4.92c-2.45,0-3.91-1.73-3.91-4.62v-8.46h-1.82v8.12c0,3.72,1.87,5.61,5.55,5.61
				c3.01,0,4.88-2.14,4.88-5.59v-8.13h-0.59V21.49z"/>
			<polygon points="200.54,26.34 200.54,13.32 198.72,13.32 198.72,26.93 206.72,26.93 206.72,26.34 			"/>
			<path d="M90.33,25.6c-0.06,0.04-0.17,0.11-0.22,0.24c-0.24,0.45-0.49,0.81-0.73,1.08c-0.21,0.24-0.45,0.43-0.72,0.57
				c-0.33,0.23-0.77,0.34-1.36,0.35c-1.05,0-2.27-0.41-3.15-0.79c0,0,0,0,0.01,0c3.96,0,6.94-2.98,6.94-6.94
				c0-3.94-2.98-6.9-6.94-6.9c-3.97,0-6.96,2.98-6.96,6.92c0,2.27,0.96,4.27,2.64,5.54c-0.72,0.53-1.46,1.69-1.49,1.75l-0.03,0.06
				c-0.09,0.09-0.14,0.21-0.14,0.33c0,0.27,0.23,0.49,0.51,0.49c0.27,0,0.47-0.19,0.5-0.44c0.01-0.05,0.03-0.12,0.06-0.19l0.01-0.01
				l0.02-0.06c0.03-0.1,0.06-0.19,0.09-0.28l0.04-0.11c0.06-0.15,0.13-0.31,0.21-0.46l-0.17-0.09l0.2,0.03
				c0.04-0.07,0.09-0.13,0.16-0.23c0.21-0.26,0.43-0.39,0.57-0.45c0.42,0.26,0.88,0.47,1.36,0.63c0.2,0.17,0.41,0.33,0.6,0.48
				c0.11,0.08,0.24,0.17,0.4,0.28l0.08,0.05c0.16,0.11,0.33,0.22,0.51,0.33c0.15,0.1,0.32,0.19,0.48,0.28
				c0.07,0.04,0.14,0.08,0.21,0.12l0.21,0.11c0.96,0.47,1.87,0.71,2.72,0.71c2.96,0,4.13-2.93,4.14-2.96l0.06-0.16l-0.72-0.36
				L90.33,25.6z M84.16,13.79c3.13,0,5.07,2.43,5.07,6.34c0,3.91-1.94,6.34-5.07,6.34c-3.15,0-5.11-2.43-5.11-6.34
				C79.05,16.22,81.01,13.79,84.16,13.79z"/>
		</g>
		<g>
			<path d="M149.84,30.53h3.84c2.23,0,4.06,0.9,4.08,3.03c0.02,2.38-1.66,3.55-5.93,3.55h-0.43l-0.04,7.54h-1.53V30.53z
				 M151.88,36.88c3.38,0,4.49-1.26,4.47-3.33c-0.02-1.83-0.94-2.81-3.01-2.81h-1.96l0.04,6.13H151.88z M156.09,39.65
				c-0.85-1.68-1.07-2.55-2.94-2.55h-1.33v-0.22h1.46c3.19,0,3.55,1.07,4.32,2.6l2.64,5.15h-1.63L156.09,39.65z"/>
			<path d="M160.05,37.58c0-4.1,3.1-7.18,7.22-7.18c4.27,0,7.2,3.18,7.2,7.17c0,4.01-3.01,7.2-7.2,7.2
				C163.02,44.77,160.05,41.69,160.05,37.58z M172.88,37.58c0-4.19-2.09-6.96-5.61-6.96c-3.53,0-5.65,2.75-5.65,6.96
				c0,4.19,2.11,6.96,5.65,6.96C170.76,44.55,172.88,41.8,172.88,37.58z"/>
			<path d="M175.9,37.58c0-4.1,3.1-7.18,7.22-7.18c4.27,0,7.2,3.18,7.2,7.17c0,4.01-3.01,7.2-7.2,7.2
				C178.88,44.77,175.9,41.69,175.9,37.58z M188.74,37.58c0-4.19-2.09-6.96-5.61-6.96c-3.53,0-5.65,2.75-5.65,6.96
				c0,4.19,2.11,6.96,5.65,6.96C186.62,44.55,188.74,41.8,188.74,37.58z"/>
			<path d="M192.02,30.53h0.5v0.77L192.02,30.53z M192.48,30.53h1.29l5.38,9.42h-0.09l5.76-9.42h1.07v14.11h-1.53v-13.3l0.41-0.31
				l-6.21,10.16h-0.46l-5.58-9.86l0.18-0.06v13.37h-0.22V30.53z"/>
		</g>
		<path d="M89.88,43.61c-0.06,0.04-0.17,0.11-0.22,0.24c-0.24,0.45-0.49,0.81-0.73,1.08c-0.21,0.24-0.45,0.43-0.72,0.57
			c-0.33,0.23-0.77,0.34-1.36,0.35c-1.05,0-2.27-0.41-3.15-0.79c0,0,0,0,0.01,0c3.96,0,6.94-2.98,6.94-6.94
			c0-3.94-2.98-6.9-6.94-6.9c-3.97,0-6.96,2.98-6.96,6.92c0,2.27,0.96,4.27,2.64,5.54c-0.72,0.53-1.46,1.69-1.49,1.75l-0.03,0.06
			c-0.09,0.09-0.14,0.21-0.14,0.33c0,0.27,0.23,0.49,0.51,0.49c0.27,0,0.47-0.19,0.5-0.44c0.01-0.05,0.03-0.12,0.06-0.19l0.01-0.01
			l0.02-0.06c0.03-0.1,0.06-0.19,0.09-0.28l0.04-0.11c0.06-0.15,0.13-0.31,0.21-0.46l-0.17-0.09l0.2,0.03
			c0.04-0.07,0.09-0.13,0.16-0.23c0.21-0.26,0.43-0.39,0.57-0.45c0.42,0.26,0.88,0.47,1.36,0.63c0.2,0.17,0.41,0.33,0.6,0.48
			c0.11,0.08,0.24,0.17,0.4,0.28l0.08,0.05c0.16,0.11,0.33,0.22,0.51,0.33c0.15,0.1,0.32,0.19,0.48,0.28
			c0.07,0.04,0.14,0.08,0.21,0.12l0.21,0.11c0.96,0.47,1.87,0.71,2.72,0.71c2.96,0,4.13-2.93,4.14-2.96l0.06-0.16l-0.72-0.36
			L89.88,43.61z M83.7,31.8c3.13,0,5.07,2.43,5.07,6.34c0,3.91-1.94,6.34-5.07,6.34c-3.15,0-5.11-2.43-5.11-6.34
			C78.6,34.23,80.55,31.8,83.7,31.8z"/>
		<rect x="98.22" y="38.98" width="43.47" height="0.28"/>
	</g>
</g>
<g id="guide">
	<g>
		<g>
			<g>
				<line class="st0" x1="276.37" y1="0" x2="290.56" y2="0"/>
				<line class="st0" x1="283.46" y1="7.1" x2="283.46" y2="-7.1"/>
			</g>
			<g>
				<line class="st0" x1="276.37" y1="425.18" x2="290.56" y2="425.18"/>
				<line class="st0" x1="283.46" y1="432.28" x2="283.46" y2="418.08"/>
			</g>
		</g>
		<g>
			<g>
				<line class="st0" x1="-7.1" y1="0" x2="7.1" y2="0"/>
				<line class="st0" x1="0" y1="7.1" x2="0" y2="-7.1"/>
			</g>
			<g>
				<line class="st0" x1="-7.1" y1="425.19" x2="7.1" y2="425.19"/>
				<line class="st0" x1="0" y1="432.29" x2="0" y2="418.09"/>
			</g>
		</g>
	</g>
</g>
<g id="image_box">
	<rect x="-0.01" y="0" class="st1" width="283.47" height="425.16"/>
</g>
</svg>
