<?xml version="1.0" encoding="UTF-8"?>
<svg id="_레이어_1" data-name="레이어 1" xmlns="http://www.w3.org/2000/svg" version="1.1" viewBox="0 0 283.5 425.2">
  <defs>
    <style>
      .cls-1 {
        font-family: YDIYGO330, YDIYGO330;
        font-size: 3.4px;
        isolation: isolate;
      }

      .cls-1, .cls-2 {
        fill: #000;
      }

      .cls-3 {
        fill: #fff;
        stroke: #dbdcdc;
        stroke-width: .2px;
      }

      .cls-3, .cls-4, .cls-5, .cls-6, .cls-7 {
        stroke-miterlimit: 10;
      }

      .cls-4 {
        stroke-dasharray: 0 0 2 2;
      }

      .cls-4, .cls-5 {
        stroke: #4c4c4c;
        stroke-width: .1px;
      }

      .cls-4, .cls-5, .cls-6, .cls-7 {
        fill: none;
      }

      .cls-2, .cls-8 {
        stroke-width: 0px;
      }

      .cls-8 {
        fill: #f2f2f2;
      }

      .cls-6 {
        stroke: #000;
        stroke-width: .3px;
      }

      .cls-7 {
        stroke: #c9caca;
        stroke-width: .2px;
      }
    </style>
  </defs>
  <g id="_배경" data-name="배경">
    <rect class="cls-8" y="0" width="283.5" height="425"/>
    <g>
      <text class="cls-1" transform="translate(10.3 415.3) rotate(-90)"><tspan x="0" y="0">QUPIDO SEOUL - Q ROOM</tspan></text>
      <text class="cls-1" transform="translate(10.3 192.6) rotate(-90)"><tspan x="0" y="0">26</tspan></text>
      <text class="cls-1" transform="translate(10.3 129.6) rotate(-90)"><tspan x="0" y="0">QUPIDO SEOUL - Q ROOM</tspan></text>
      <text class="cls-1" transform="translate(10.3 16.8) rotate(-90)"><tspan x="0" y="0">27</tspan></text>
      <polyline class="cls-2" points="9 194.4 7.3 200 10.7 200"/>
      <polyline class="cls-2" points="9 17.9 7.3 23.5 10.7 23.5"/>
      <text class="cls-1" transform="translate(10.4 331.2) rotate(-90)"><tspan x="0" y="0">25</tspan></text>
      <polyline class="cls-2" points="9.1 333.1 7.4 338.7 10.8 338.7"/>
      <text class="cls-1" transform="translate(274.9 415.3) rotate(-90)"><tspan x="0" y="0">QUPIDO SEOUL - Q ROOM</tspan></text>
      <text class="cls-1" transform="translate(274.9 192.5) rotate(-90)"><tspan x="0" y="0">36</tspan></text>
      <text class="cls-1" transform="translate(275.1 129.6) rotate(-90)"><tspan x="0" y="0">QUPIDO SEOUL - Q ROOM</tspan></text>
      <text class="cls-1" transform="translate(274.9 16.8) rotate(-90)"><tspan x="0" y="0">37</tspan></text>
      <polyline class="cls-2" points="274 194.4 272.3 200 275.7 200"/>
      <polyline class="cls-2" points="274 17.9 272.3 23.5 275.7 23.5"/>
      <text class="cls-1" transform="translate(274.9 331.2) rotate(-90)"><tspan x="0" y="0">35</tspan></text>
      <polyline class="cls-2" points="274 333.1 272.3 338.7 275.7 338.7"/>
    </g>
    <g>
      <g>
        <path class="cls-2" d="M125.9,398.6c0,1.5-.7,2.4-2,2.4s-1.9-.8-1.9-2.2v-4.1h-.9v3.9c0,1.8.9,2.7,2.7,2.7s2.3-1,2.3-2.7v-3.9h-.3v3.9h0Z"/>
        <path class="cls-2" d="M128.9,394.6h-1.6v6.5h.9v-3h.4c.9,0,1.5-.2,1.9-.6.3-.3.5-.7.5-1.3,0-1-.8-1.6-2.1-1.6ZM129.7,397.4c-.3.3-.7.4-1.1.4h-.4v-2.9s.7,0,.7,0c.8,0,1.3.5,1.3,1.3,0,.5-.1.9-.4,1.2Z"/>
        <rect class="cls-2" x="131.8" y="394.6" width=".9" height="6.5"/>
        <path class="cls-2" d="M135.9,394.6h-2.2v6.5h2.1c2,0,3.5-1.4,3.5-3.3,0-1.9-1.4-3.2-3.5-3.2ZM138.5,397.9c0,1.8-1,3-2.6,3h-1.2v-6h1.3c1.6,0,2.6,1.1,2.6,3Z"/>
        <path class="cls-2" d="M143.2,394.6c-1.9,0-3.4,1.4-3.4,3.3s1.4,3.3,3.4,3.3,3.3-1.4,3.3-3.3-1.4-3.3-3.3-3.3ZM143.2,394.9c1.5,0,2.4,1.2,2.4,3s-.9,3-2.4,3-2.5-1.2-2.5-3,.9-3,2.5-3Z"/>
        <path class="cls-2" d="M151.4,397.1c-.8-.2-1.5-.4-1.5-1.2s.6-1,1.5-1h0c1,0,1.5.6,1.5,1.1s0,.3-.1.5h0c0,0,.2.2.2.2h0c.1-.2.2-.4.2-.7,0-.7-.6-1.4-1.8-1.4s-2,.7-2,1.7,1,1.5,1.9,1.7c.8.2,1.6.5,1.6,1.4s-.9,1.6-1.7,1.6c-1.1,0-1.9-.7-1.9-1.7h0c0,0-.3,0-.3,0h0c0,1.3.9,2.1,2.2,2.1s2.3-.7,2.3-2.3c0-1.3-1.1-1.6-2-1.9Z"/>
        <polygon class="cls-2" points="155 397.3 157.4 397.3 157.4 397.1 155 397.1 155 394.9 157.9 394.9 157.9 394.6 154.1 394.6 154.1 401.2 157.9 401.2 157.9 400.9 155 400.9 155 397.3"/>
        <path class="cls-2" d="M161.4,394.6c-1.9,0-3.4,1.4-3.4,3.3s1.4,3.3,3.4,3.3,3.3-1.4,3.3-3.3-1.4-3.3-3.3-3.3ZM161.4,394.9c1.5,0,2.4,1.2,2.4,3s-.9,3-2.4,3-2.5-1.2-2.5-3c0-1.9,1-3,2.5-3Z"/>
        <path class="cls-2" d="M170.4,398.6c0,1.5-.7,2.4-2,2.4s-1.9-.8-1.9-2.2v-4.1h-.9v3.9c0,1.8.9,2.7,2.7,2.7s2.4-1,2.4-2.7v-3.9h-.3v3.9h0Z"/>
        <polygon class="cls-2" points="172.7 400.9 172.7 394.6 171.8 394.6 171.8 401.2 175.7 401.2 175.7 400.9 172.7 400.9"/>
        <path class="cls-2" d="M119.7,400.5s0,0-.1.1c-.1.2-.2.4-.3.5,0,.1-.2.2-.3.3-.2.1-.4.2-.7.2-.5,0-1.1-.2-1.5-.4h0c1.9,0,3.3-1.4,3.3-3.3s-1.4-3.3-3.3-3.3-3.3,1.4-3.3,3.3.5,2.1,1.3,2.7c-.3.3-.7.8-.7.8h0c0,0,0,.1,0,.2,0,.1.1.2.2.2s.2,0,.2-.2c0,0,0,0,0,0h0c0,0,0-.1,0-.2h0c0-.1,0-.2,0-.3h0s0,0,0,0c0,0,0,0,0-.1,0-.1.2-.2.3-.2.2.1.4.2.7.3,0,0,.2.2.3.2,0,0,.1,0,.2.1h0c0,0,.2.1.2.2,0,0,.2,0,.2.1,0,0,0,0,0,0h0c.5.3.9.4,1.3.4,1.4,0,2-1.4,2-1.4h0c0,0-.3-.2-.3-.2h0ZM116.7,394.9c1.5,0,2.4,1.2,2.4,3s-.9,3-2.4,3-2.5-1.2-2.5-3,.9-3,2.5-3Z"/>
      </g>
      <g>
        <path class="cls-2" d="M148.3,402.9h1.9c1.1,0,2,.4,2,1.5,0,1.1-.8,1.7-2.9,1.7h-.2v3.6h-.8v-6.8h0ZM149.3,406c1.6,0,2.2-.6,2.1-1.6,0-.9-.4-1.4-1.4-1.4h-.9v3h.2ZM151.3,407.3c-.4-.8-.5-1.2-1.4-1.2h-.6c0-.1.7-.1.7-.1,1.5,0,1.7.5,2.1,1.2l1.3,2.5h-.8l-1.2-2.4Z"/>
        <path class="cls-2" d="M153.2,406.3c0-2,1.5-3.5,3.5-3.5s3.5,1.5,3.5,3.5-1.4,3.5-3.5,3.5-3.5-1.5-3.5-3.5ZM159.4,406.3c0-2-1-3.4-2.7-3.4s-2.7,1.3-2.7,3.4,1,3.4,2.7,3.4,2.7-1.3,2.7-3.4Z"/>
        <path class="cls-2" d="M160.8,406.3c0-2,1.5-3.5,3.5-3.5s3.5,1.5,3.5,3.5-1.4,3.5-3.5,3.5-3.5-1.5-3.5-3.5ZM167,406.3c0-2-1-3.4-2.7-3.4s-2.7,1.3-2.7,3.4,1,3.4,2.7,3.4,2.7-1.3,2.7-3.4Z"/>
        <path class="cls-2" d="M168.6,402.9h.2v.4l-.2-.4ZM168.8,402.9h.6l2.6,4.5h0l2.8-4.5h.5v6.8h-.7v-6.4h.2c0-.1-3,4.7-3,4.7h-.2l-2.7-4.8h0s0,6.4,0,6.4h-.1v-6.8h0Z"/>
      </g>
      <path class="cls-2" d="M119.4,409.2s0,0-.1.1c-.1.2-.2.4-.3.5,0,.1-.2.2-.3.3-.2.1-.4.2-.7.2-.5,0-1.1-.2-1.5-.4h0c1.9,0,3.3-1.4,3.3-3.3s-1.4-3.3-3.3-3.3-3.3,1.4-3.3,3.3.5,2.1,1.3,2.7c-.3.3-.7.8-.7.8h0c0,0,0,.1,0,.2,0,.1.1.2.2.2s.2,0,.2-.2c0,0,0,0,0,0h0c0,0,0-.1,0-.2h0c0-.1,0-.2,0-.3h0s0,0,0,0c0,0,0,0,0-.1,0-.1.2-.2.3-.2.2.1.4.2.7.3,0,0,.2.2.3.2,0,0,.1,0,.2.1h0c0,0,.2.1.2.2,0,0,.2,0,.2.1,0,0,0,0,0,0h0c.5.3.9.4,1.3.4,1.4,0,2-1.4,2-1.4h0c0,0-.3-.2-.3-.2h0ZM116.5,403.5c1.5,0,2.4,1.2,2.4,3s-.9,3-2.4,3-2.5-1.2-2.5-3,.9-3,2.5-3Z"/>
      <line class="cls-6" x1="123.4" y1="407" x2="144.4" y2="407"/>
    </g>
  </g>
  <g id="guide">
    <g>
      <g>
        <g>
          <line class="cls-7" x1="276.4" y1="0" x2="290.6" y2="0"/>
          <line class="cls-7" x1="283.5" y1="7.1" x2="283.5" y2="-7.1"/>
        </g>
        <g>
          <line class="cls-7" x1="276.4" y1="425.2" x2="290.6" y2="425.2"/>
          <line class="cls-7" x1="283.5" y1="432.3" x2="283.5" y2="418.1"/>
        </g>
      </g>
      <g>
        <g>
          <line class="cls-7" x1="-7.1" y1="0" x2="7.1" y2="0"/>
          <line class="cls-7" y1="7.1" y2="-7.1"/>
        </g>
        <g>
          <line class="cls-7" x1="-7.1" y1="425.2" x2="7.1" y2="425.2"/>
          <line class="cls-7" y1="432.3" y2="418.1"/>
        </g>
      </g>
    </g>
  </g>
  <g id="image_box" data-name="image box">
    <rect id="image_box_04" data-name="image box 04" class="cls-3" x="18.3" y="7.1" width="120" height="180"/>
    <rect id="image_box_03" data-name="image box 03" class="cls-3" x="145.4" y="7.1" width="120" height="180"/>
    <rect id="image_box_02" data-name="image box 02" class="cls-3" x="18.4" y="201.6" width="120" height="180"/>
    <rect id="image_box_01" data-name="image box 01" class="cls-3" x="145.4" y="201.6" width="120" height="180"/>
  </g>
  <g>
    <line class="cls-5" y1="194.3" x2="1" y2="194.3"/>
    <line class="cls-4" x1="3" y1="194.3" x2="281.5" y2="194.3"/>
    <line class="cls-5" x1="282.5" y1="194.3" x2="283.5" y2="194.3"/>
  </g>
</svg>