<?xml version="1.0" encoding="UTF-8"?>
<svg id="_레이어_1" data-name="레이어 1" xmlns="http://www.w3.org/2000/svg" viewBox="0 0 283.46 425.2">
  <defs>
    <style>
      .cls-1 {
        fill: #231815;
        stroke-width: 0px;
      }
    </style>
  </defs>
  <path class="cls-1" d="M99.06,406.6c0,3.41-1.71,5.45-4.57,5.45s-4.34-1.91-4.34-5.12v-9.38h-2.01v8.99c0,4.12,2.07,6.21,6.16,6.21,3.34,0,5.41-2.37,5.41-6.19v-9.01h-.65v9.05Z"/>
  <path class="cls-1" d="M105.9,397.55h-3.59v15.07h2.01l.04-7h.94c2.01,0,3.5-.48,4.43-1.42.72-.73,1.08-1.71,1.07-2.92-.02-2.34-1.85-3.74-4.91-3.74ZM107.95,404.02c-.61.62-1.51.94-2.6.94h-.98l-.04-6.77h1.65c1.86,0,2.9,1.1,2.92,3.09,0,1.16-.32,2.11-.95,2.74Z"/>
  <rect class="cls-1" x="112.62" y="397.55" width="2.01" height="15.07"/>
  <path class="cls-1" d="M122.1,397.55h-5.01v15.07h4.93c4.62,0,8.11-3.27,8.11-7.59s-3.23-7.48-8.04-7.48ZM128.04,405.03c0,4.22-2.38,6.94-6.06,6.94h-2.88v-13.77h3.03c3.75,0,5.91,2.49,5.91,6.83Z"/>
  <path class="cls-1" d="M138.92,397.41c-4.4,0-7.71,3.3-7.71,7.67s3.24,7.67,7.71,7.67,7.69-3.31,7.69-7.69-3.31-7.65-7.69-7.65ZM138.92,398.06c3.47,0,5.62,2.69,5.62,7.02s-2.15,7.02-5.62,7.02-5.66-2.69-5.66-7.02,2.17-7.02,5.66-7.02Z"/>
  <path class="cls-1" d="M157.73,403.16c-1.9-.54-3.54-1.01-3.54-2.8,0-1.36,1.39-2.3,3.38-2.3h.11c2.24.04,3.42,1.28,3.42,2.5,0,.43-.08.77-.25,1.04l-.12.18.55.33.11-.17c.23-.35.36-.86.36-1.38,0-1.52-1.43-3.14-4.08-3.14-2.79,0-4.66,1.54-4.66,3.83,0,2.75,2.29,3.41,4.31,3.99,1.93.56,3.76,1.08,3.76,3.22,0,2.69-2.16,3.64-4.01,3.64-2.58-.02-4.32-1.62-4.32-3.99v-.21h-.65v.21c0,2.78,2,4.64,4.99,4.64,2.61,0,5.24-1.64,5.24-5.31,0-2.97-2.44-3.66-4.59-4.28Z"/>
  <polygon class="cls-1" points="166.1 403.8 171.76 403.8 171.76 403.15 166.1 403.15 166.1 398.2 172.72 398.2 172.72 397.55 164.09 397.55 164.09 412.62 172.91 412.62 172.91 411.97 166.1 411.97 166.1 403.8"/>
  <path class="cls-1" d="M180.97,397.41c-4.4,0-7.71,3.3-7.71,7.67s3.24,7.67,7.71,7.67,7.69-3.31,7.69-7.69-3.31-7.65-7.69-7.65ZM180.97,398.06c3.47,0,5.62,2.69,5.62,7.02s-2.15,7.02-5.62,7.02-5.66-2.69-5.66-7.02,2.17-7.02,5.66-7.02Z"/>
  <path class="cls-1" d="M201.59,406.6c0,3.41-1.71,5.45-4.57,5.45s-4.34-1.91-4.34-5.12v-9.38h-2.01v8.99c0,4.12,2.07,6.21,6.16,6.21,3.34,0,5.41-2.37,5.41-6.19v-9.01h-.65v9.05Z"/>
  <polygon class="cls-1" points="206.87 411.97 206.87 397.55 204.85 397.55 204.85 412.62 213.71 412.62 213.71 411.97 206.87 411.97"/>
  <path class="cls-1" d="M84.74,411.15c-.07.04-.19.12-.25.26-.27.5-.54.9-.81,1.19-.23.26-.5.47-.8.63-.37.25-.86.38-1.5.39-1.17,0-2.51-.46-3.49-.87h0c4.38,0,7.69-3.31,7.69-7.69s-3.31-7.65-7.69-7.65-7.71,3.3-7.71,7.67c0,2.51,1.06,4.73,2.93,6.14-.8.59-1.61,1.88-1.65,1.94l-.04.06c-.1.1-.15.23-.15.37,0,.3.25.55.56.55s.53-.21.56-.49c.02-.06.04-.13.06-.21h0s.02-.07.02-.07c.03-.12.07-.21.1-.31l.04-.12c.07-.17.15-.34.23-.51l-.19-.1.22.03c.04-.08.1-.15.18-.25.24-.29.47-.43.63-.5.46.28.97.52,1.51.7.23.19.45.37.66.53.13.09.26.19.44.31l.08.06c.18.12.36.24.57.37.17.11.35.21.53.31.08.04.16.09.23.13l.23.12c1.06.52,2.08.79,3.01.79,3.28,0,4.58-3.25,4.59-3.28l.07-.18-.8-.4-.1.06ZM77.9,398.06c3.47,0,5.62,2.69,5.62,7.02s-2.15,7.02-5.62,7.02-5.66-2.69-5.66-7.02,2.17-7.02,5.66-7.02Z"/>
</svg>