<?xml version="1.0" encoding="UTF-8"?>
<svg xmlns="http://www.w3.org/2000/svg" version="1.1" viewBox="0 0 504.6 360">
  <defs>
    <style>
      .cls-1, .cls-2 {
        fill: #fff;
      }

      .cls-1, .cls-3, .cls-4 {
        stroke-miterlimit: 10;
      }

      .cls-1, .cls-4 {
        stroke: #000;
        stroke-width: .1px;
      }

      .cls-5 {
        fill: #000;
        font-family: AdobeMyungjoStd-Medium-KSCpc-EUC-H, 'Adobe Myungjo Std';
        font-size: 6.2px;
        font-weight: 500;
      }

      .cls-2 {
        stroke-width: 0px;
      }

      .cls-3 {
        stroke: #c9caca;
        stroke-width: .2px;
      }

      .cls-3, .cls-4 {
        fill: none;
      }
    </style>
  </defs>
  <g id="_레이어_1" data-name=" 레이어 1">
    <g id="guide">
      <g>
        <g>
          <line class="cls-3" y1="8.5" y2="-8.3"/>
          <line class="cls-3" x1="8.3" y1="0" x2="-8.5" y2="0"/>
        </g>
        <g>
          <line class="cls-3" x1="504.1" y1="8.5" x2="504.1" y2="-8.3"/>
          <line class="cls-3" x1="512.5" y1="0" x2="495.7" y2="0"/>
        </g>
      </g>
      <g>
        <g>
          <line class="cls-3" y1="368.4" y2="351.6"/>
          <line class="cls-3" x1="8.3" y1="360" x2="-8.5" y2="360"/>
        </g>
        <g>
          <line class="cls-3" x1="504.1" y1="368.4" x2="504.1" y2="351.6"/>
          <line class="cls-3" x1="512.5" y1="360" x2="495.7" y2="360"/>
        </g>
      </g>
    </g>
    <g>
      <rect class="cls-1" x="41.9" y="54" width="127.6" height="99.2"/>
      <path class="cls-2" d="M169.5,153.2H41.9V54h127.6v99.2ZM44.7,150.4h121.9V56.8H44.7v93.5h0Z"/>
    </g>
    <rect class="cls-4" x="41.9" y="54" width="127.6" height="99.2"/>
    <g>
      <rect class="cls-1" x="41.9" y="153.2" width="127.6" height="99.2"/>
      <path class="cls-2" d="M169.5,252.4H41.9v-99.2h127.6v99.2ZM44.7,249.6h121.9v-93.6H44.7v93.5h0Z"/>
    </g>
    <rect class="cls-4" x="41.9" y="153.2" width="127.6" height="99.2"/>
    <g>
      <rect class="cls-1" x="41.9" y="252.4" width="127.6" height="99.2"/>
      <path class="cls-2" d="M169.5,351.6H41.9v-99.2h127.6v99.2ZM44.7,348.8h121.9v-93.6H44.7v93.5h0Z"/>
    </g>
    <rect class="cls-4" x="41.9" y="252.4" width="127.6" height="99.2"/>
    <g>
      <rect class="cls-1" x="169.5" y="54" width="127.6" height="99.2"/>
      <path class="cls-2" d="M297.1,153.2h-127.6V54h127.6v99.2ZM172.3,150.4h121.9V56.8h-121.9v93.5h0Z"/>
    </g>
    <rect class="cls-4" x="169.5" y="54" width="127.6" height="99.2"/>
    <g>
      <rect class="cls-1" x="169.5" y="153.2" width="127.6" height="99.2"/>
      <path class="cls-2" d="M297.1,252.4h-127.6v-99.2h127.6v99.2ZM172.3,249.6h121.9v-93.6h-121.9v93.5h0Z"/>
    </g>
    <rect class="cls-4" x="169.5" y="153.2" width="127.6" height="99.2"/>
    <g>
      <rect class="cls-1" x="169.5" y="252.4" width="127.6" height="99.2"/>
      <path class="cls-2" d="M297.1,351.6h-127.6v-99.2h127.6v99.2ZM172.3,348.8h121.9v-93.6h-121.9v93.5h0Z"/>
    </g>
    <rect class="cls-4" x="169.5" y="252.4" width="127.6" height="99.2"/>
    <text class="cls-5" transform="translate(41.9 48.1)"><tspan x="0" y="0">35x45</tspan></text>
    <text class="cls-5" transform="translate(271.9 16.1)"><tspan x="0" y="0">30x40</tspan></text>
  </g>
  <g id="_레이어_2" data-name="레이어 2">
    <rect class="cls-1" x="297" y="11.4" width="85" height="113.4"/>
    <path class="cls-2" d="M297,11.4v113.4h85V11.4h-85ZM378.8,121.4h-78.5V14.8h78.5v106.6Z"/>
    <rect class="cls-4" x="297" y="11.4" width="85" height="113.4"/>
    <rect class="cls-1" x="382" y="11.4" width="85" height="113.4"/>
    <path class="cls-2" d="M382,11.4v113.4h85V11.4h-85ZM463.8,121.4h-78.5V14.8h78.5v106.6Z"/>
    <rect class="cls-4" x="382" y="11.4" width="85" height="113.4"/>
    <rect class="cls-1" x="297" y="124.8" width="85" height="113.4"/>
    <path class="cls-2" d="M297,124.8v113.4h85v-113.4h-85ZM378.8,234.8h-78.5v-106.6h78.5v106.6Z"/>
    <rect class="cls-4" x="297" y="124.8" width="85" height="113.4"/>
    <rect class="cls-1" x="382" y="124.8" width="85" height="113.4"/>
    <path class="cls-2" d="M382,124.8v113.4h85v-113.4h-85ZM463.8,234.8h-78.5v-106.6h78.5v106.6Z"/>
    <rect class="cls-4" x="382" y="124.8" width="85" height="113.4"/>
    <rect class="cls-1" x="297" y="238.2" width="85" height="113.4"/>
    <path class="cls-2" d="M297,238.2v113.4h85v-113.4h-85ZM378.8,348.2h-78.5v-106.6h78.5v106.6Z"/>
    <rect class="cls-4" x="297" y="238.2" width="85" height="113.4"/>
    <rect class="cls-1" x="382" y="238.2" width="85" height="113.4"/>
    <path class="cls-2" d="M382,238.2v113.4h85v-113.4h-85ZM463.8,348.2h-78.5v-106.6h78.5v106.6Z"/>
    <rect class="cls-4" x="382" y="238.2" width="85" height="113.4"/>
  </g>
</svg>