<?xml version="1.0" encoding="UTF-8"?>
<svg id="_레이어_1" data-name=" 레이어 1" xmlns="http://www.w3.org/2000/svg" version="1.1" viewBox="0 0 504.6 360">
  <defs>
    <style>
      .cls-1 {
        fill: #fff;
        stroke-width: 0px;
      }

      .cls-2 {
        fill: none;
        stroke: #000;
        stroke-miterlimit: 10;
        stroke-width: .1px;
      }
    </style>
  </defs>
  <rect class="cls-1" y="0" width="504.6" height="360"/>
  <path class="cls-1" d="M488.2,145v127.6h-99.2v-127.6h99.2ZM485.4,269.8v-121.9h-93.6v121.9h93.6Z"/>
  <path class="cls-1" d="M488.2,17.5v127.6h-99.2V17.5h99.2ZM485.4,142.3V20.4h-93.6v121.9h93.6Z"/>
  <rect id="box11" class="cls-2" x="389" y="17.5" width="99.2" height="127.6"/>
  <rect id="box10" class="cls-2" x="389" y="145" width="99.2" height="127.6"/>
  <path class="cls-1" d="M389,116.7h-127.6V17.5h127.6v99.2ZM264.2,113.9h121.9V20.3h-121.9v93.5h0Z"/>
  <path class="cls-1" d="M488.2,17.5v127.6h-99.2V17.5h99.2ZM485.4,142.3V20.4h-93.6v121.9h93.6Z"/>
  <rect class="cls-2" x="261.4" y="17.5" width="127.6" height="99.2"/>
  <g id="box8">
    <path class="cls-1" d="M389,215.9h-127.6v-99.2h127.6v99.2ZM264.2,213.1h121.9v-93.5h-121.9v93.5Z"/>
    <rect class="cls-2" x="261.4" y="116.7" width="127.6" height="99.2"/>
  </g>
  <g id="box7">
    <path class="cls-1" d="M389,315.1h-127.6v-99.2h127.6v99.2ZM264.2,312.3h121.9v-93.5h-121.9v93.5Z"/>
    <rect class="cls-2" x="261.4" y="215.9" width="127.6" height="99.2"/>
  </g>
  <g id="box6">
    <path class="cls-1" d="M261.4,116.7h-127.6V17.5h127.6v99.2ZM136.7,113.9h121.9V20.3h-121.9v93.5h0Z"/>
    <rect class="cls-2" x="133.9" y="17.5" width="127.6" height="99.2"/>
  </g>
  <g id="box5">
    <path class="cls-1" d="M261.4,215.9h-127.6v-99.2h127.6v99.2ZM136.7,213.1h121.9v-93.5h-121.9v93.5h0Z"/>
    <rect class="cls-2" x="133.9" y="116.7" width="127.6" height="99.2"/>
  </g>
  <g id="box4">
    <path class="cls-1" d="M261.4,315.1h-127.6v-99.2h127.6v99.2ZM136.7,312.3h121.9v-93.5h-121.9v93.5h0Z"/>
    <rect class="cls-2" x="133.9" y="215.9" width="127.6" height="99.2"/>
  </g>
  <g id="box3">
    <path class="cls-1" d="M133.9,116.7H6.3V17.5h127.6v99.2ZM9.1,113.9h121.9V20.3H9.1v93.5h0Z"/>
    <rect class="cls-2" x="6.3" y="17.5" width="127.6" height="99.2"/>
  </g>
  <g id="box2">
    <path class="cls-1" d="M133.9,215.9H6.3v-99.2h127.6v99.2ZM9.1,213.1h121.9v-93.5H9.1v93.5Z"/>
    <rect class="cls-2" x="6.3" y="116.7" width="127.6" height="99.2"/>
  </g>
  <g id="box1">
    <path class="cls-1" d="M133.9,315.1H6.3v-99.2h127.6v99.2ZM9.1,312.3h121.9v-93.5H9.1v93.5Z"/>
    <rect class="cls-2" x="6.3" y="215.9" width="127.6" height="99.2"/>
  </g>
  <g id="guide">
    <line class="cls-2" x1="389" y1="360" x2="389" y2="0"/>
    <line class="cls-2" x1="488.2" y1="360" x2="488.2" y2="0"/>
    <line class="cls-2" x1="389" y1="145.1" x2="504.6" y2="145.1"/>
    <line class="cls-2" x1="389" y1="17.5" x2="504.6" y2="17.5"/>
    <line class="cls-2" x1="389" y1="272.6" x2="504.6" y2="272.6"/>
    <line class="cls-2" y1="315.1" x2="389" y2="315.1"/>
    <line class="cls-2" y1="215.9" x2="389" y2="215.9"/>
    <line class="cls-2" y1="116.7" x2="389" y2="116.7"/>
    <line class="cls-2" y1="17.5" x2="389" y2="17.5"/>
    <line class="cls-2" x1="261.4" y1="360" x2="261.4" y2="0"/>
    <line class="cls-2" x1="133.8" y1="360" x2="133.8" y2="0"/>
    <line class="cls-2" x1="6.2" y1="360" x2="6.2" y2="0"/>
  </g>
</svg>